{"glyphs":{"0":{"ha":917,"x_min":156,"x_max":924,"o":"m 367 -1 q 214 42 272 -1 q 156 178 156 86 q 160 229 156 203 l 249 794 q 344 966 267 906 q 529 1026 422 1026 l 719 1026 q 874 978 824 1026 q 924 849 924 931 q 919 794 924 824 l 831 229 q 740 54 811 110 q 556 -1 668 -1 l 367 -1 m 557 51 q 774 233 744 51 l 861 792 q 865 836 865 817 q 704 975 865 975 l 526 975 q 378 926 438 975 q 306 792 319 878 l 218 235 q 214 194 214 213 q 258 88 214 125 q 381 51 303 51 l 557 51 z "},"1":{"ha":496,"x_min":211,"x_max":515,"o":"m 450 960 l 211 883 l 217 919 l 461 1018 l 515 1018 l 354 0 l 297 0 l 450 960 z "},"2":{"ha":828,"x_min":82,"x_max":838,"o":"m 89 49 l 521 424 q 781 819 781 646 q 728 933 781 893 q 550 974 676 974 l 278 974 l 286 1015 l 331 1018 q 571 1026 478 1026 q 838 828 838 1026 q 560 393 838 639 l 172 54 l 763 54 l 753 0 l 82 0 l 89 49 z "},"3":{"ha":818,"x_min":65,"x_max":813,"o":"m 422 -8 q 65 3 199 -8 l 72 43 l 418 43 q 590 85 521 43 q 679 232 660 126 q 696 343 696 314 q 642 449 696 415 q 514 486 589 483 l 251 496 l 258 533 l 525 542 q 669 583 613 544 q 738 700 725 621 q 754 825 754 801 q 702 935 754 896 q 553 975 650 975 l 260 975 l 267 1015 q 578 1026 385 1026 q 754 977 696 1026 q 813 840 813 928 q 794 701 813 810 q 749 597 783 638 q 676 537 715 556 q 607 514 638 518 q 705 463 657 504 q 753 346 753 422 q 736 226 753 326 q 637 52 718 113 q 422 -8 556 -8 z "},"4":{"ha":807,"x_min":90,"x_max":824,"o":"m 601 285 l 101 285 l 90 325 l 614 1018 l 674 1018 l 156 335 l 608 335 l 658 647 l 686 729 l 728 729 l 665 335 l 824 335 l 818 296 l 658 285 l 613 3 l 556 3 l 601 285 z "},"5":{"ha":893,"x_min":172,"x_max":921,"o":"m 486 -6 q 172 4 285 -6 l 179 46 l 494 46 q 679 97 601 46 q 772 242 757 149 l 793 378 q 797 422 797 401 q 752 529 797 492 q 618 567 707 567 l 493 567 q 367 533 417 567 q 294 429 318 500 l 242 429 l 363 1018 l 921 1018 l 913 967 l 407 967 l 318 532 q 389 592 339 567 q 510 618 439 618 l 636 618 q 797 567 740 618 q 854 433 854 517 q 851 385 854 418 l 826 233 q 715 57 810 119 q 486 -6 619 -6 z "},"6":{"ha":878,"x_min":176,"x_max":874,"o":"m 382 -3 q 229 61 282 -3 q 176 285 176 125 q 224 651 176 482 q 372 923 271 819 q 625 1026 472 1026 q 874 1017 706 1026 l 867 975 l 608 975 q 457 927 528 975 q 333 782 386 879 q 258 543 281 685 q 415 551 325 549 q 569 554 506 554 q 765 519 697 554 q 833 396 833 485 q 829 351 833 375 l 806 210 q 717 48 789 99 q 546 -3 646 -3 l 382 -3 m 547 50 q 683 85 629 50 q 751 213 738 119 l 772 346 q 776 382 776 367 q 722 478 776 453 q 554 503 667 503 l 251 503 q 232 285 232 367 q 273 102 232 154 q 396 50 314 50 l 547 50 z "},"7":{"ha":747,"x_min":217,"x_max":847,"o":"m 775 961 l 217 961 l 226 1018 l 828 1018 l 847 979 l 301 0 l 235 0 l 775 961 z "},"8":{"ha":904,"x_min":158,"x_max":888,"o":"m 367 -1 q 211 38 264 -1 q 158 151 158 78 q 163 190 158 169 l 186 340 q 250 459 199 415 q 353 514 301 503 q 281 574 304 536 q 258 657 258 611 q 261 694 258 669 l 279 813 q 365 974 299 922 q 529 1025 431 1025 l 721 1025 q 846 989 804 1025 q 888 875 888 953 q 882 813 888 844 l 864 694 q 819 591 857 639 q 726 526 781 543 q 805 479 778 517 q 832 389 832 442 q 829 351 832 376 l 804 190 q 725 47 789 94 q 557 -1 661 -1 l 367 -1 m 626 544 q 751 589 704 544 q 807 689 799 633 l 825 803 q 831 858 831 831 q 799 948 831 921 q 704 975 768 975 l 528 975 q 394 933 439 975 q 335 803 349 892 l 317 689 q 315 663 315 681 q 351 577 315 610 q 458 544 388 544 l 626 544 m 557 50 q 747 192 725 50 l 771 343 q 775 386 775 368 q 738 469 775 444 q 618 494 701 494 l 450 494 q 368 479 413 494 q 288 430 324 464 q 243 343 251 396 l 219 192 q 217 165 217 172 q 261 78 217 106 q 381 50 306 50 l 557 50 z "},"9":{"ha":878,"x_min":165,"x_max":863,"o":"m 657 1024 q 810 960 757 1024 q 863 736 863 896 q 815 370 863 539 q 667 98 768 201 q 414 -6 567 -6 q 165 4 333 -6 l 172 46 l 431 46 q 582 94 511 46 q 706 239 653 142 q 781 478 758 336 q 624 469 714 472 q 469 467 533 467 q 274 501 342 467 q 206 625 206 536 q 210 669 206 647 l 233 811 q 322 973 250 922 q 493 1024 393 1024 l 657 1024 m 492 971 q 356 936 410 971 q 288 808 301 901 l 267 675 q 263 639 263 654 q 317 543 263 568 q 485 518 372 518 l 788 518 q 807 736 807 654 q 766 919 807 867 q 643 971 725 971 l 492 971 z "},"\u0000":{"ha":0,"x_min":0,"x_max":0,"o":""},"\r":{"ha":328,"x_min":0,"x_max":0,"o":""}," ":{"ha":328,"x_min":0,"x_max":0,"o":""},"A":{"ha":924,"x_min":58,"x_max":865,"o":"m 593 1018 l 669 1018 l 865 0 l 807 0 l 742 333 l 294 333 l 117 0 l 58 0 l 593 1018 m 733 386 l 622 963 l 319 386 l 733 386 z "},"Á":{"ha":924,"x_min":58,"x_max":865,"o":"m 593 1018 l 669 1018 l 865 0 l 807 0 l 742 333 l 294 333 l 117 0 l 58 0 l 593 1018 m 733 386 l 622 963 l 319 386 l 733 386 m 789 1285 l 844 1285 l 635 1099 l 600 1099 l 789 1285 z "},"Ă":{"ha":924,"x_min":58,"x_max":865,"o":"m 593 1018 l 669 1018 l 865 0 l 807 0 l 742 333 l 294 333 l 117 0 l 58 0 l 593 1018 m 733 386 l 622 963 l 319 386 l 733 386 m 631 1100 q 524 1133 565 1100 q 482 1242 482 1167 q 485 1289 482 1256 l 515 1289 q 513 1249 513 1258 q 545 1159 513 1189 q 632 1129 578 1129 q 747 1167 699 1129 q 808 1289 794 1206 l 838 1289 q 765 1143 821 1186 q 631 1100 708 1100 z "},"Ắ":{"ha":924,"x_min":58,"x_max":865,"o":"m 593 1018 l 669 1018 l 865 0 l 807 0 l 742 333 l 294 333 l 117 0 l 58 0 l 593 1018 m 733 386 l 622 963 l 319 386 l 733 386 m 803 1428 l 858 1428 l 649 1242 l 614 1242 l 803 1428 m 619 1097 q 508 1125 553 1097 q 464 1214 464 1153 q 467 1244 464 1225 l 497 1244 q 496 1222 496 1236 q 530 1149 496 1172 q 619 1125 564 1125 q 728 1150 678 1125 q 789 1244 779 1175 l 819 1244 q 751 1131 807 1164 q 619 1097 696 1097 z "},"Ặ":{"ha":924,"x_min":58,"x_max":865,"o":"m 593 1018 l 669 1018 l 865 0 l 807 0 l 742 333 l 294 333 l 117 0 l 58 0 l 593 1018 m 733 386 l 622 963 l 319 386 l 733 386 m 631 1100 q 524 1133 565 1100 q 482 1242 482 1167 q 485 1289 482 1256 l 515 1289 q 513 1249 513 1258 q 545 1159 513 1189 q 632 1129 578 1129 q 747 1167 699 1129 q 808 1289 794 1206 l 838 1289 q 765 1143 821 1186 q 631 1100 708 1100 m 392 -279 q 381 -275 385 -279 q 376 -264 376 -271 l 376 -261 l 392 -168 q 413 -150 393 -150 l 439 -150 q 454 -164 454 -150 l 454 -168 l 439 -261 q 432 -274 438 -269 q 418 -279 426 -279 l 392 -279 z "},"Ằ":{"ha":924,"x_min":58,"x_max":865,"o":"m 593 1018 l 669 1018 l 865 0 l 807 0 l 742 333 l 294 333 l 117 0 l 58 0 l 593 1018 m 733 386 l 622 963 l 319 386 l 733 386 m 506 1428 l 558 1428 l 690 1242 l 657 1242 l 506 1428 m 619 1097 q 508 1125 553 1097 q 464 1214 464 1153 q 467 1244 464 1225 l 497 1244 q 496 1222 496 1236 q 530 1149 496 1172 q 619 1125 564 1125 q 789 1244 771 1125 l 819 1244 q 751 1131 807 1164 q 619 1097 696 1097 z "},"Ẳ":{"ha":924,"x_min":58,"x_max":865,"o":"m 593 1018 l 669 1018 l 865 0 l 807 0 l 742 333 l 294 333 l 117 0 l 58 0 l 593 1018 m 733 386 l 622 963 l 319 386 l 733 386 m 613 1214 q 719 1329 719 1246 q 654 1385 719 1385 q 600 1376 626 1385 l 604 1404 q 667 1413 631 1413 q 754 1333 754 1413 q 719 1244 754 1283 q 607 1185 683 1206 l 613 1214 m 619 1097 q 508 1125 553 1097 q 464 1214 464 1153 q 467 1244 464 1225 l 497 1244 q 496 1222 496 1236 q 530 1149 496 1172 q 619 1125 564 1125 q 730 1150 681 1125 q 789 1244 779 1175 l 819 1244 q 751 1131 807 1164 q 619 1097 696 1097 z "},"Ẵ":{"ha":924,"x_min":58,"x_max":906,"o":"m 593 1018 l 669 1018 l 865 0 l 807 0 l 742 333 l 294 333 l 117 0 l 58 0 l 593 1018 m 733 386 l 622 963 l 319 386 l 733 386 m 443 1292 q 490 1370 453 1346 q 572 1394 526 1394 q 626 1385 601 1394 q 682 1358 651 1375 q 734 1333 713 1342 q 779 1325 756 1325 q 844 1343 817 1325 q 875 1394 871 1361 l 906 1394 q 863 1320 899 1347 q 774 1293 828 1293 q 724 1302 747 1293 q 669 1328 701 1311 q 615 1353 638 1344 q 567 1361 593 1361 q 506 1344 532 1361 q 474 1292 479 1326 l 443 1292 m 626 1097 q 516 1125 560 1097 q 472 1214 472 1153 q 475 1244 472 1225 l 504 1244 q 503 1222 503 1236 q 538 1149 503 1172 q 628 1125 572 1125 q 740 1149 693 1125 q 797 1244 786 1174 l 828 1244 q 760 1131 815 1164 q 626 1097 704 1097 z "},"Â":{"ha":924,"x_min":58,"x_max":865,"o":"m 593 1018 l 669 1018 l 865 0 l 807 0 l 742 333 l 294 333 l 117 0 l 58 0 l 593 1018 m 733 386 l 622 963 l 319 386 l 733 386 m 636 1282 l 679 1282 l 813 1099 l 775 1099 l 651 1251 l 465 1099 l 428 1099 l 636 1282 z "},"Ấ":{"ha":924,"x_min":58,"x_max":997,"o":"m 593 1018 l 669 1018 l 865 0 l 807 0 l 742 333 l 294 333 l 117 0 l 58 0 l 593 1018 m 733 386 l 622 963 l 319 386 l 733 386 m 946 1382 l 997 1382 l 794 1199 l 763 1199 l 946 1382 m 632 1228 l 675 1228 l 818 1099 l 779 1099 l 649 1197 l 471 1099 l 433 1099 l 632 1228 z "},"Ậ":{"ha":924,"x_min":58,"x_max":865,"o":"m 593 1018 l 669 1018 l 865 0 l 807 0 l 742 333 l 294 333 l 117 0 l 58 0 l 593 1018 m 733 386 l 622 963 l 319 386 l 733 386 m 636 1282 l 679 1282 l 813 1099 l 775 1099 l 651 1251 l 465 1099 l 428 1099 l 636 1282 m 392 -279 q 381 -275 385 -279 q 376 -264 376 -271 l 376 -261 l 392 -168 q 413 -150 393 -150 l 439 -150 q 454 -164 454 -150 l 454 -168 l 439 -261 q 432 -274 438 -269 q 418 -279 426 -279 l 392 -279 z "},"Ầ":{"ha":924,"x_min":58,"x_max":865,"o":"m 593 1018 l 669 1018 l 865 0 l 807 0 l 742 333 l 294 333 l 117 0 l 58 0 l 593 1018 m 733 386 l 622 963 l 319 386 l 733 386 m 357 1382 l 410 1382 l 533 1199 l 501 1199 l 357 1382 m 622 1228 l 665 1228 l 808 1099 l 769 1099 l 639 1197 l 461 1099 l 424 1099 l 622 1228 z "},"Ẩ":{"ha":924,"x_min":58,"x_max":924,"o":"m 593 1018 l 669 1018 l 865 0 l 807 0 l 742 333 l 294 333 l 117 0 l 58 0 l 593 1018 m 733 386 l 622 963 l 319 386 l 733 386 m 792 1196 q 867 1239 844 1213 q 890 1294 890 1265 q 829 1340 890 1340 q 775 1332 800 1340 l 779 1360 q 839 1369 808 1369 q 903 1351 882 1369 q 924 1297 924 1332 q 891 1221 924 1256 q 788 1168 858 1186 l 792 1196 m 639 1228 l 682 1228 l 824 1099 l 786 1099 l 656 1197 l 478 1099 l 439 1099 l 639 1228 z "},"Ẫ":{"ha":924,"x_min":58,"x_max":906,"o":"m 593 1018 l 669 1018 l 865 0 l 807 0 l 742 333 l 294 333 l 117 0 l 58 0 l 593 1018 m 733 386 l 622 963 l 319 386 l 733 386 m 444 1294 q 490 1373 453 1349 q 572 1397 526 1397 q 626 1388 601 1397 q 683 1361 650 1379 q 735 1336 715 1344 q 779 1328 756 1328 q 843 1346 817 1328 q 875 1397 869 1364 l 906 1397 q 864 1323 899 1350 q 775 1296 829 1296 q 724 1305 747 1296 q 671 1331 701 1314 q 617 1356 640 1347 q 567 1364 593 1364 q 506 1347 532 1364 q 475 1294 481 1329 l 444 1294 m 638 1228 l 682 1228 l 822 1099 l 785 1099 l 654 1197 l 476 1099 l 438 1099 l 638 1228 z "},"Ȁ":{"ha":924,"x_min":58,"x_max":865,"o":"m 593 1018 l 669 1018 l 865 0 l 807 0 l 742 333 l 294 333 l 117 0 l 58 0 l 593 1018 m 733 386 l 622 963 l 319 386 l 733 386 m 379 1285 l 432 1285 l 564 1099 l 531 1099 l 379 1285 m 557 1285 l 610 1285 l 742 1099 l 708 1099 l 557 1285 z "},"Ä":{"ha":924,"x_min":58,"x_max":865,"o":"m 593 1018 l 669 1018 l 865 0 l 807 0 l 742 333 l 294 333 l 117 0 l 58 0 l 593 1018 m 733 386 l 622 963 l 319 386 l 733 386 m 457 1142 q 442 1157 442 1142 l 457 1253 q 479 1271 458 1271 l 506 1271 q 521 1257 521 1271 q 504 1160 521 1263 q 497 1147 503 1151 q 483 1142 490 1142 l 457 1142 m 744 1142 q 729 1157 729 1142 l 744 1253 q 767 1271 746 1271 l 793 1271 q 808 1257 808 1271 q 792 1160 808 1263 q 784 1147 790 1151 q 771 1142 778 1142 l 744 1142 z "},"Ạ":{"ha":924,"x_min":58,"x_max":865,"o":"m 593 1018 l 669 1018 l 865 0 l 807 0 l 742 333 l 294 333 l 117 0 l 58 0 l 593 1018 m 733 386 l 622 963 l 319 386 l 733 386 m 392 -279 q 381 -275 385 -279 q 376 -264 376 -271 l 376 -261 l 392 -168 q 413 -150 393 -150 l 439 -150 q 454 -164 454 -150 l 454 -168 l 439 -261 q 432 -274 438 -269 q 418 -279 426 -279 l 392 -279 z "},"À":{"ha":924,"x_min":58,"x_max":865,"o":"m 593 1018 l 669 1018 l 865 0 l 807 0 l 742 333 l 294 333 l 117 0 l 58 0 l 593 1018 m 733 386 l 622 963 l 319 386 l 733 386 m 494 1285 l 547 1285 l 679 1099 l 646 1099 l 494 1285 z "},"Ả":{"ha":924,"x_min":58,"x_max":865,"o":"m 593 1018 l 669 1018 l 865 0 l 807 0 l 742 333 l 294 333 l 117 0 l 58 0 l 593 1018 m 733 386 l 622 963 l 319 386 l 733 386 m 586 1110 q 693 1225 693 1142 q 628 1281 693 1281 q 574 1272 600 1281 l 578 1300 q 640 1308 604 1308 q 728 1229 728 1308 q 692 1140 728 1179 q 581 1081 657 1101 l 586 1110 z "},"Ȃ":{"ha":924,"x_min":58,"x_max":865,"o":"m 593 1018 l 669 1018 l 865 0 l 807 0 l 742 333 l 294 333 l 117 0 l 58 0 l 593 1018 m 733 386 l 622 963 l 319 386 l 733 386 m 456 1100 q 528 1247 472 1204 q 663 1289 585 1289 q 769 1256 728 1289 q 811 1147 811 1222 q 808 1100 811 1133 l 778 1100 q 781 1140 781 1131 q 747 1231 781 1201 q 658 1260 714 1260 q 547 1222 594 1260 q 485 1100 499 1183 l 456 1100 z "},"Ā":{"ha":924,"x_min":58,"x_max":865,"o":"m 593 1018 l 669 1018 l 865 0 l 807 0 l 742 333 l 294 333 l 117 0 l 58 0 l 593 1018 m 733 386 l 622 963 l 319 386 l 733 386 m 471 1208 l 826 1208 l 819 1174 l 464 1174 l 471 1208 z "},"Ą":{"ha":924,"x_min":58,"x_max":865,"o":"m 593 1018 l 669 1018 l 865 0 l 807 0 l 742 333 l 294 333 l 117 0 l 58 0 l 593 1018 m 733 386 l 622 963 l 319 386 l 733 386 m 801 -254 q 708 -227 743 -254 q 674 -153 674 -200 q 706 -72 674 -114 q 807 0 739 -29 l 832 0 q 743 -68 775 -28 q 711 -140 711 -108 q 742 -201 711 -179 q 831 -222 772 -222 l 839 -222 l 833 -253 q 801 -254 822 -254 z "},"Å":{"ha":924,"x_min":58,"x_max":865,"o":"m 593 1018 l 669 1018 l 865 0 l 807 0 l 742 333 l 294 333 l 117 0 l 58 0 l 593 1018 m 733 386 l 622 963 l 319 386 l 733 386 m 636 1081 q 542 1108 578 1081 q 507 1199 507 1136 q 553 1319 507 1269 q 679 1369 599 1369 q 768 1341 733 1369 q 803 1253 803 1313 q 759 1130 803 1179 q 636 1081 715 1081 m 638 1110 q 737 1150 703 1110 q 771 1250 771 1190 q 744 1319 771 1299 q 676 1340 717 1340 q 574 1300 610 1340 q 539 1199 539 1260 q 567 1131 539 1151 q 638 1110 594 1110 z "},"Ǻ":{"ha":924,"x_min":58,"x_max":897,"o":"m 636 1081 q 542 1108 578 1081 q 507 1199 507 1136 q 552 1319 507 1269 q 676 1369 597 1368 l 842 1532 l 897 1532 l 711 1367 q 778 1331 753 1358 q 803 1253 803 1303 q 759 1130 803 1179 q 636 1081 715 1081 m 676 1340 q 574 1300 610 1340 q 539 1199 539 1260 q 567 1131 539 1151 q 638 1110 594 1110 q 737 1150 703 1110 q 771 1250 771 1190 q 744 1319 771 1299 q 676 1340 717 1340 m 669 1018 l 865 0 l 807 0 l 742 333 l 294 333 l 117 0 l 58 0 l 593 1018 l 669 1018 m 733 386 l 622 963 l 319 386 l 733 386 z "},"Ã":{"ha":924,"x_min":58,"x_max":931,"o":"m 593 1018 l 669 1018 l 865 0 l 807 0 l 742 333 l 294 333 l 117 0 l 58 0 l 593 1018 m 733 386 l 622 963 l 319 386 l 733 386 m 433 1135 q 485 1234 444 1203 q 579 1265 526 1265 q 631 1253 607 1265 q 692 1217 656 1242 q 744 1182 722 1193 q 792 1171 767 1171 q 863 1196 833 1171 q 900 1267 892 1221 l 931 1267 q 883 1171 919 1206 q 786 1136 846 1136 q 735 1148 760 1136 q 681 1183 711 1160 q 624 1219 647 1207 q 572 1231 600 1231 q 501 1206 532 1231 q 464 1135 471 1182 l 433 1135 z "},"Æ":{"ha":1261,"x_min":39,"x_max":1382,"o":"m 851 -4 q 732 24 778 -4 q 686 125 686 51 q 689 165 686 150 l 715 332 l 363 332 l 103 0 l 39 0 l 676 814 q 781 936 739 894 q 874 998 824 978 q 999 1018 925 1018 q 1296 1011 1126 1018 l 1382 1008 l 1374 965 l 1004 965 q 908 951 939 965 q 867 913 876 938 q 849 838 857 888 l 844 808 l 800 531 l 1249 526 l 1242 485 l 793 479 l 744 186 q 742 150 742 172 q 778 69 742 89 q 874 49 814 49 l 1229 49 l 1222 6 l 1164 4 q 851 -4 947 -4 m 722 382 l 804 900 l 401 382 l 722 382 z "},"Ǽ":{"ha":1261,"x_min":39,"x_max":1382,"o":"m 851 -4 q 732 24 778 -4 q 686 125 686 51 q 689 165 686 150 l 715 332 l 363 332 l 103 0 l 39 0 l 676 814 q 781 936 739 894 q 874 998 824 978 q 999 1018 925 1018 q 1296 1011 1126 1018 l 1382 1008 l 1374 965 l 1004 965 q 908 951 939 965 q 867 913 876 938 q 849 838 857 888 l 844 808 l 800 531 l 1249 526 l 1242 485 l 793 479 l 744 186 q 742 150 742 172 q 778 69 742 89 q 874 49 814 49 l 1229 49 l 1222 6 l 1164 4 q 851 -4 947 -4 m 722 382 l 804 900 l 401 382 l 722 382 m 1004 1285 l 1060 1285 l 850 1099 l 815 1099 l 1004 1285 z "},"B":{"ha":836,"x_min":108,"x_max":838,"o":"m 269 1018 l 603 1018 q 838 828 838 1018 q 832 758 838 792 q 767 608 818 665 q 643 533 715 550 q 745 465 699 518 q 792 325 792 413 q 783 249 792 288 q 467 0 733 0 l 108 0 l 269 1018 m 554 556 q 775 750 733 556 q 783 819 783 790 q 592 967 783 967 l 317 967 l 253 556 l 554 556 m 475 51 q 649 106 592 51 q 729 265 707 160 q 736 328 736 293 q 684 458 736 410 q 550 507 632 507 l 246 507 l 172 51 l 475 51 z "},"Ḃ":{"ha":836,"x_min":108,"x_max":838,"o":"m 269 1018 l 603 1018 q 838 828 838 1018 q 832 758 838 792 q 767 608 818 665 q 643 533 715 550 q 745 465 699 518 q 792 325 792 413 q 783 249 792 288 q 467 0 733 0 l 108 0 l 269 1018 m 554 556 q 775 750 733 556 q 783 819 783 790 q 592 967 783 967 l 317 967 l 253 556 l 554 556 m 475 51 q 649 106 592 51 q 729 265 707 160 q 736 328 736 293 q 684 458 736 410 q 550 507 632 507 l 246 507 l 172 51 l 475 51 m 543 1151 q 532 1156 536 1151 q 528 1167 528 1160 l 528 1169 l 543 1263 q 564 1281 544 1281 l 590 1281 q 606 1267 606 1281 l 606 1263 l 590 1169 q 583 1156 589 1161 q 569 1151 578 1151 l 543 1151 z "},"C":{"ha":818,"x_min":154,"x_max":883,"o":"m 426 -8 q 219 68 285 -8 q 154 299 154 144 q 176 525 154 392 q 310 901 215 775 q 581 1026 406 1026 q 741 1017 671 1026 q 883 992 811 1007 l 875 951 q 583 975 717 975 q 415 926 482 975 q 306 775 349 876 q 233 508 263 674 q 213 300 213 386 q 265 103 213 163 q 439 43 317 43 q 606 48 540 43 q 732 63 671 53 l 725 21 q 426 -8 592 -8 z "},"Ć":{"ha":818,"x_min":154,"x_max":883,"o":"m 426 -8 q 219 68 285 -8 q 154 299 154 144 q 176 525 154 392 q 310 901 215 775 q 581 1026 406 1026 q 741 1017 671 1026 q 883 992 811 1007 l 875 951 q 583 975 717 975 q 415 926 482 975 q 306 775 349 876 q 233 508 263 674 q 213 300 213 386 q 265 103 213 163 q 439 43 317 43 q 606 48 540 43 q 732 63 671 53 l 725 21 q 426 -8 592 -8 m 749 1285 l 804 1285 l 594 1099 l 560 1099 l 749 1285 z "},"Č":{"ha":818,"x_min":154,"x_max":883,"o":"m 426 -8 q 219 68 285 -8 q 154 299 154 144 q 176 525 154 392 q 310 901 215 775 q 581 1026 406 1026 q 741 1017 671 1026 q 883 992 811 1007 l 875 951 q 583 975 717 975 q 415 926 482 975 q 306 775 349 876 q 233 508 263 674 q 213 300 213 386 q 265 103 213 163 q 439 43 317 43 q 606 48 540 43 q 732 63 671 53 l 725 21 q 426 -8 592 -8 m 458 1282 l 497 1282 l 618 1129 l 806 1282 l 843 1282 l 635 1099 l 592 1099 l 458 1282 z "},"Ç":{"ha":818,"x_min":154,"x_max":883,"o":"m 583 975 q 415 926 482 975 q 306 775 349 876 q 233 508 263 674 q 213 300 213 386 q 265 103 213 163 q 439 43 317 43 q 606 48 540 43 q 732 63 671 53 l 725 21 q 456 -8 606 -6 l 385 -92 q 457 -110 435 -93 q 479 -160 479 -128 q 463 -209 479 -183 q 413 -252 446 -235 q 338 -269 381 -269 l 304 -269 l 308 -246 l 343 -243 q 416 -211 389 -239 q 443 -160 443 -183 q 422 -121 443 -135 q 344 -106 400 -107 l 425 -8 q 219 68 283 -8 q 154 299 154 144 q 176 525 154 392 q 310 901 215 775 q 581 1026 406 1026 q 741 1017 671 1026 q 883 992 811 1007 l 875 951 q 583 975 717 975 z "},"Ḉ":{"ha":818,"x_min":154,"x_max":883,"o":"m 594 1099 l 560 1099 l 749 1285 l 804 1285 l 594 1099 m 583 975 q 415 926 482 975 q 306 775 349 876 q 233 508 263 674 q 213 300 213 386 q 265 103 213 163 q 439 43 317 43 q 606 48 540 43 q 732 63 671 53 l 725 21 q 456 -8 606 -6 l 385 -92 q 457 -110 435 -93 q 479 -160 479 -128 q 463 -209 479 -183 q 413 -252 446 -235 q 338 -269 381 -269 l 304 -269 l 308 -246 l 343 -243 q 416 -211 389 -239 q 443 -160 443 -183 q 422 -121 443 -135 q 344 -106 400 -107 l 425 -8 q 219 68 283 -8 q 154 299 154 144 q 176 525 154 392 q 310 901 215 775 q 581 1026 406 1026 q 741 1017 671 1026 q 883 992 811 1007 l 875 951 q 583 975 717 975 z "},"Ĉ":{"ha":818,"x_min":154,"x_max":883,"o":"m 426 -8 q 219 68 285 -8 q 154 299 154 144 q 176 525 154 392 q 310 901 215 775 q 581 1026 406 1026 q 741 1017 671 1026 q 883 992 811 1007 l 875 951 q 583 975 717 975 q 415 926 482 975 q 306 775 349 876 q 233 508 263 674 q 213 300 213 386 q 265 103 213 163 q 439 43 317 43 q 606 48 540 43 q 732 63 671 53 l 725 21 q 426 -8 592 -8 m 596 1282 l 639 1282 l 772 1099 l 735 1099 l 611 1251 l 425 1099 l 388 1099 l 596 1282 z "},"Ċ":{"ha":818,"x_min":154,"x_max":883,"o":"m 426 -8 q 219 68 285 -8 q 154 299 154 144 q 176 525 154 392 q 310 901 215 775 q 581 1026 406 1026 q 741 1017 671 1026 q 883 992 811 1007 l 875 951 q 583 975 717 975 q 415 926 482 975 q 306 775 349 876 q 233 508 263 674 q 213 300 213 386 q 265 103 213 163 q 439 43 317 43 q 606 48 540 43 q 732 63 671 53 l 725 21 q 426 -8 592 -8 m 588 1151 q 576 1156 581 1151 q 572 1167 572 1160 l 572 1169 l 588 1263 q 608 1281 589 1281 l 635 1281 q 650 1267 650 1281 l 650 1263 l 635 1169 q 628 1156 633 1161 q 614 1151 622 1151 l 588 1151 z "},"D":{"ha":925,"x_min":108,"x_max":928,"o":"m 269 1018 l 625 1018 q 859 931 790 1018 q 928 665 928 844 q 911 492 928 600 q 769 133 876 267 q 471 0 661 0 l 108 0 l 269 1018 m 472 51 q 731 176 639 51 q 856 507 824 301 q 871 667 871 601 q 814 894 871 821 q 611 967 757 967 l 317 967 l 172 51 l 472 51 z "},"Ð":{"ha":925,"x_min":85,"x_max":928,"o":"m 625 1018 q 859 931 790 1018 q 928 665 928 844 q 911 492 928 600 q 769 133 876 267 q 471 0 661 0 l 108 0 l 186 496 l 85 496 l 93 540 l 194 540 l 269 1018 l 625 1018 m 856 507 q 871 667 871 601 q 814 894 871 821 q 611 967 757 967 l 317 967 l 250 540 l 543 540 l 535 496 l 243 496 l 172 51 l 472 51 q 731 176 639 51 q 856 507 824 301 z "},"Ď":{"ha":925,"x_min":108,"x_max":928,"o":"m 269 1018 l 625 1018 q 859 931 790 1018 q 928 665 928 844 q 911 492 928 600 q 769 133 876 267 q 471 0 661 0 l 108 0 l 269 1018 m 472 51 q 731 176 639 51 q 856 507 824 301 q 871 667 871 601 q 814 894 871 821 q 611 967 757 967 l 317 967 l 172 51 l 472 51 m 444 1282 l 483 1282 l 604 1129 l 792 1282 l 829 1282 l 621 1099 l 578 1099 l 444 1282 z "},"Đ":{"ha":925,"x_min":85,"x_max":928,"o":"m 625 1018 q 859 931 790 1018 q 928 665 928 844 q 911 492 928 600 q 769 133 876 267 q 471 0 661 0 l 108 0 l 186 496 l 85 496 l 93 540 l 194 540 l 269 1018 l 625 1018 m 856 507 q 871 667 871 601 q 814 894 871 821 q 611 967 757 967 l 317 967 l 250 540 l 543 540 l 535 496 l 243 496 l 172 51 l 472 51 q 731 176 639 51 q 856 507 824 301 z "},"Ḋ":{"ha":925,"x_min":108,"x_max":928,"o":"m 269 1018 l 625 1018 q 859 931 790 1018 q 928 665 928 844 q 911 492 928 600 q 769 133 876 267 q 471 0 661 0 l 108 0 l 269 1018 m 472 51 q 731 176 639 51 q 856 507 824 301 q 871 667 871 601 q 814 894 871 821 q 611 967 757 967 l 317 967 l 172 51 l 472 51 m 574 1151 q 563 1156 567 1151 q 558 1167 558 1160 l 558 1169 l 574 1263 q 594 1281 575 1281 l 621 1281 q 636 1267 636 1281 l 636 1263 l 621 1169 q 614 1156 619 1161 q 600 1151 608 1151 l 574 1151 z "},"Ḍ":{"ha":925,"x_min":108,"x_max":928,"o":"m 269 1018 l 625 1018 q 859 931 790 1018 q 928 665 928 844 q 911 492 928 600 q 769 133 876 267 q 471 0 661 0 l 108 0 l 269 1018 m 472 51 q 731 176 639 51 q 856 507 824 301 q 871 667 871 601 q 814 894 871 821 q 611 967 757 967 l 317 967 l 172 51 l 472 51 m 338 -279 q 326 -275 331 -279 q 322 -264 322 -271 l 322 -261 l 338 -168 q 358 -150 339 -150 l 385 -150 q 400 -164 400 -150 l 400 -168 l 385 -261 q 378 -274 383 -269 q 364 -279 372 -279 l 338 -279 z "},"Ḏ":{"ha":925,"x_min":108,"x_max":928,"o":"m 269 1018 l 625 1018 q 859 931 790 1018 q 928 665 928 844 q 911 492 928 600 q 769 133 876 267 q 471 0 661 0 l 108 0 l 269 1018 m 472 51 q 731 176 639 51 q 856 507 824 301 q 871 667 871 601 q 814 894 871 821 q 611 967 757 967 l 317 967 l 172 51 l 472 51 m 188 -208 l 543 -208 l 536 -243 l 181 -243 l 188 -208 z "},"E":{"ha":790,"x_min":132,"x_max":867,"o":"m 306 -8 q 132 138 132 -11 q 136 185 132 160 l 240 836 q 313 976 256 933 q 449 1018 369 1018 q 635 1015 531 1018 q 781 1011 739 1013 l 867 1008 l 858 965 l 453 965 q 347 933 386 965 q 294 824 307 900 l 249 533 l 732 524 l 725 482 l 240 479 l 194 186 q 192 146 192 171 q 224 66 192 88 q 321 44 257 44 l 715 44 l 708 1 q 306 -8 575 -3 z "},"É":{"ha":790,"x_min":132,"x_max":867,"o":"m 306 -8 q 132 138 132 -11 q 136 185 132 160 l 240 836 q 313 976 256 933 q 449 1018 369 1018 q 635 1015 531 1018 q 781 1011 739 1013 l 867 1008 l 858 965 l 453 965 q 347 933 386 965 q 294 824 307 900 l 249 533 l 732 524 l 725 482 l 240 479 l 194 186 q 192 146 192 171 q 224 66 192 88 q 321 44 257 44 l 715 44 l 708 1 q 306 -8 575 -3 m 744 1285 l 800 1285 l 590 1099 l 556 1099 l 744 1285 z "},"Ĕ":{"ha":790,"x_min":132,"x_max":867,"o":"m 306 -8 q 132 138 132 -11 q 136 185 132 160 l 240 836 q 313 976 256 933 q 449 1018 369 1018 q 635 1015 531 1018 q 781 1011 739 1013 l 867 1008 l 858 965 l 453 965 q 347 933 386 965 q 294 824 307 900 l 249 533 l 732 524 l 725 482 l 240 479 l 194 186 q 192 146 192 171 q 224 66 192 88 q 321 44 257 44 l 715 44 l 708 1 q 306 -8 575 -3 m 586 1100 q 479 1133 521 1100 q 438 1242 438 1167 q 440 1289 438 1256 l 471 1289 q 468 1249 468 1258 q 501 1159 468 1189 q 588 1129 533 1129 q 702 1167 654 1129 q 764 1289 750 1206 l 793 1289 q 720 1143 776 1186 q 586 1100 664 1100 z "},"Ě":{"ha":790,"x_min":132,"x_max":867,"o":"m 306 -8 q 132 138 132 -11 q 136 185 132 160 l 240 836 q 313 976 256 933 q 449 1018 369 1018 q 635 1015 531 1018 q 781 1011 739 1013 l 867 1008 l 858 965 l 453 965 q 347 933 386 965 q 294 824 307 900 l 249 533 l 732 524 l 725 482 l 240 479 l 194 186 q 192 146 192 171 q 224 66 192 88 q 321 44 257 44 l 715 44 l 708 1 q 306 -8 575 -3 m 454 1282 l 493 1282 l 614 1129 l 801 1282 l 839 1282 l 631 1099 l 588 1099 l 454 1282 z "},"Ḝ":{"ha":790,"x_min":132,"x_max":867,"o":"m 586 1100 q 479 1133 521 1100 q 438 1242 438 1167 q 440 1289 438 1256 l 471 1289 q 468 1249 468 1258 q 501 1159 468 1189 q 588 1129 533 1129 q 702 1167 654 1129 q 764 1289 750 1206 l 793 1289 q 720 1143 776 1186 q 586 1100 664 1100 m 453 965 q 347 933 386 965 q 294 824 307 900 l 249 533 l 732 524 l 725 482 l 240 479 l 194 186 q 192 146 192 171 q 224 66 192 88 q 321 44 257 44 l 715 44 l 708 1 q 429 -6 522 -4 l 356 -92 q 428 -110 406 -93 q 450 -160 450 -128 q 433 -209 450 -183 q 384 -252 417 -235 q 308 -269 351 -269 l 275 -269 l 279 -246 l 314 -243 q 387 -211 360 -239 q 414 -160 414 -183 q 392 -121 414 -135 q 315 -106 371 -107 l 397 -7 l 300 -8 q 132 138 132 -8 q 136 185 132 160 l 240 836 q 313 976 256 933 q 449 1018 369 1018 q 635 1015 531 1018 q 781 1011 739 1013 l 867 1008 l 858 965 l 453 965 z "},"Ê":{"ha":790,"x_min":132,"x_max":867,"o":"m 306 -8 q 132 138 132 -11 q 136 185 132 160 l 240 836 q 313 976 256 933 q 449 1018 369 1018 q 635 1015 531 1018 q 781 1011 739 1013 l 867 1008 l 858 965 l 453 965 q 347 933 386 965 q 294 824 307 900 l 249 533 l 732 524 l 725 482 l 240 479 l 194 186 q 192 146 192 171 q 224 66 192 88 q 321 44 257 44 l 715 44 l 708 1 q 306 -8 575 -3 m 592 1282 l 635 1282 l 768 1099 l 731 1099 l 607 1251 l 421 1099 l 383 1099 l 592 1282 z "},"Ế":{"ha":790,"x_min":132,"x_max":953,"o":"m 306 -8 q 132 138 132 -11 q 136 185 132 160 l 240 836 q 313 976 256 933 q 449 1018 369 1018 q 635 1015 531 1018 q 781 1011 739 1013 l 867 1008 l 858 965 l 453 965 q 347 933 386 965 q 294 824 307 900 l 249 533 l 732 524 l 725 482 l 240 479 l 194 186 q 192 146 192 171 q 224 66 192 88 q 321 44 257 44 l 715 44 l 708 1 q 306 -8 575 -3 m 901 1382 l 953 1382 l 750 1199 l 718 1199 l 901 1382 m 588 1228 l 631 1228 l 774 1099 l 735 1099 l 604 1197 l 426 1099 l 389 1099 l 588 1228 z "},"Ệ":{"ha":790,"x_min":132,"x_max":867,"o":"m 306 -8 q 132 138 132 -11 q 136 185 132 160 l 240 836 q 313 976 256 933 q 449 1018 369 1018 q 635 1015 531 1018 q 781 1011 739 1013 l 867 1008 l 858 965 l 453 965 q 347 933 386 965 q 294 824 307 900 l 249 533 l 732 524 l 725 482 l 240 479 l 194 186 q 192 146 192 171 q 224 66 192 88 q 321 44 257 44 l 715 44 l 708 1 q 306 -8 575 -3 m 592 1282 l 635 1282 l 768 1099 l 731 1099 l 607 1251 l 421 1099 l 383 1099 l 592 1282 m 347 -279 q 336 -275 340 -279 q 332 -264 332 -271 l 332 -261 l 347 -168 q 368 -150 349 -150 l 394 -150 q 410 -164 410 -150 l 410 -168 l 394 -261 q 388 -274 393 -269 q 374 -279 382 -279 l 347 -279 z "},"Ề":{"ha":790,"x_min":132,"x_max":867,"o":"m 306 -8 q 132 138 132 -11 q 136 185 132 160 l 240 836 q 313 976 256 933 q 449 1018 369 1018 q 635 1015 531 1018 q 781 1011 739 1013 l 867 1008 l 858 965 l 453 965 q 347 933 386 965 q 294 824 307 900 l 249 533 l 732 524 l 725 482 l 240 479 l 194 186 q 192 146 192 171 q 224 66 192 88 q 321 44 257 44 l 715 44 l 708 1 q 306 -8 575 -3 m 313 1382 l 365 1382 l 489 1199 l 457 1199 l 313 1382 m 578 1228 l 621 1228 l 764 1099 l 725 1099 l 594 1197 l 417 1099 l 379 1099 l 578 1228 z "},"Ể":{"ha":790,"x_min":132,"x_max":879,"o":"m 306 -8 q 132 138 132 -11 q 136 185 132 160 l 240 836 q 313 976 256 933 q 449 1018 369 1018 q 635 1015 531 1018 q 781 1011 739 1013 l 867 1008 l 858 965 l 453 965 q 347 933 386 965 q 294 824 307 900 l 249 533 l 732 524 l 725 482 l 240 479 l 194 186 q 192 146 192 171 q 224 66 192 88 q 321 44 257 44 l 715 44 l 708 1 q 306 -8 575 -3 m 747 1196 q 823 1239 800 1213 q 846 1294 846 1265 q 785 1340 846 1340 q 731 1332 756 1340 l 735 1360 q 794 1369 764 1369 q 858 1351 838 1369 q 879 1297 879 1332 q 847 1221 879 1256 q 743 1168 814 1186 l 747 1196 m 594 1228 l 638 1228 l 779 1099 l 742 1099 l 611 1197 l 433 1099 l 394 1099 l 594 1228 z "},"Ễ":{"ha":790,"x_min":132,"x_max":867,"o":"m 306 -8 q 132 138 132 -11 q 136 185 132 160 l 240 836 q 313 976 256 933 q 449 1018 369 1018 q 635 1015 531 1018 q 781 1011 739 1013 l 867 1008 l 858 965 l 453 965 q 347 933 386 965 q 294 824 307 900 l 249 533 l 732 524 l 725 482 l 240 479 l 194 186 q 192 146 192 171 q 224 66 192 88 q 321 44 257 44 l 715 44 l 708 1 q 306 -8 575 -3 m 400 1294 q 445 1373 408 1349 q 528 1397 482 1397 q 581 1388 557 1397 q 639 1361 606 1379 q 691 1336 671 1344 q 735 1328 711 1328 q 799 1346 772 1328 q 831 1397 825 1364 l 861 1397 q 819 1323 854 1350 q 731 1296 785 1296 q 680 1305 703 1296 q 626 1331 657 1314 q 572 1356 596 1347 q 522 1364 549 1364 q 462 1347 488 1364 q 431 1294 436 1329 l 400 1294 m 593 1228 l 638 1228 l 778 1099 l 740 1099 l 610 1197 l 432 1099 l 393 1099 l 593 1228 z "},"Ȅ":{"ha":790,"x_min":132,"x_max":867,"o":"m 306 -8 q 132 138 132 -11 q 136 185 132 160 l 240 836 q 313 976 256 933 q 449 1018 369 1018 q 635 1015 531 1018 q 781 1011 739 1013 l 867 1008 l 858 965 l 453 965 q 347 933 386 965 q 294 824 307 900 l 249 533 l 732 524 l 725 482 l 240 479 l 194 186 q 192 146 192 171 q 224 66 192 88 q 321 44 257 44 l 715 44 l 708 1 q 306 -8 575 -3 m 335 1285 l 388 1285 l 519 1099 l 486 1099 l 335 1285 m 513 1285 l 565 1285 l 697 1099 l 664 1099 l 513 1285 z "},"Ë":{"ha":790,"x_min":132,"x_max":867,"o":"m 306 -8 q 132 138 132 -11 q 136 185 132 160 l 240 836 q 313 976 256 933 q 449 1018 369 1018 q 635 1015 531 1018 q 781 1011 739 1013 l 867 1008 l 858 965 l 453 965 q 347 933 386 965 q 294 824 307 900 l 249 533 l 732 524 l 725 482 l 240 479 l 194 186 q 192 146 192 171 q 224 66 192 88 q 321 44 257 44 l 715 44 l 708 1 q 306 -8 575 -3 m 413 1142 q 397 1157 397 1142 l 413 1253 q 435 1271 414 1271 l 461 1271 q 476 1257 476 1271 q 460 1160 476 1263 q 452 1147 458 1151 q 439 1142 446 1142 l 413 1142 m 700 1142 q 685 1157 685 1142 l 700 1253 q 722 1271 701 1271 l 749 1271 q 764 1257 764 1271 q 747 1160 764 1263 q 740 1147 746 1151 q 726 1142 733 1142 l 700 1142 z "},"Ė":{"ha":790,"x_min":132,"x_max":867,"o":"m 306 -8 q 132 138 132 -11 q 136 185 132 160 l 240 836 q 313 976 256 933 q 449 1018 369 1018 q 635 1015 531 1018 q 781 1011 739 1013 l 867 1008 l 858 965 l 453 965 q 347 933 386 965 q 294 824 307 900 l 249 533 l 732 524 l 725 482 l 240 479 l 194 186 q 192 146 192 171 q 224 66 192 88 q 321 44 257 44 l 715 44 l 708 1 q 306 -8 575 -3 m 583 1151 q 572 1156 576 1151 q 568 1167 568 1160 l 568 1169 l 583 1263 q 604 1281 585 1281 l 631 1281 q 646 1267 646 1281 l 646 1263 l 631 1169 q 624 1156 629 1161 q 610 1151 618 1151 l 583 1151 z "},"Ẹ":{"ha":790,"x_min":132,"x_max":867,"o":"m 306 -8 q 132 138 132 -11 q 136 185 132 160 l 240 836 q 313 976 256 933 q 449 1018 369 1018 q 635 1015 531 1018 q 781 1011 739 1013 l 867 1008 l 858 965 l 453 965 q 347 933 386 965 q 294 824 307 900 l 249 533 l 732 524 l 725 482 l 240 479 l 194 186 q 192 146 192 171 q 224 66 192 88 q 321 44 257 44 l 715 44 l 708 1 q 306 -8 575 -3 m 347 -279 q 336 -275 340 -279 q 332 -264 332 -271 l 332 -261 l 347 -168 q 368 -150 349 -150 l 394 -150 q 410 -164 410 -150 l 410 -168 l 394 -261 q 388 -274 393 -269 q 374 -279 382 -279 l 347 -279 z "},"È":{"ha":790,"x_min":132,"x_max":867,"o":"m 306 -8 q 132 138 132 -11 q 136 185 132 160 l 240 836 q 313 976 256 933 q 449 1018 369 1018 q 635 1015 531 1018 q 781 1011 739 1013 l 867 1008 l 858 965 l 453 965 q 347 933 386 965 q 294 824 307 900 l 249 533 l 732 524 l 725 482 l 240 479 l 194 186 q 192 146 192 171 q 224 66 192 88 q 321 44 257 44 l 715 44 l 708 1 q 306 -8 575 -3 m 450 1285 l 503 1285 l 635 1099 l 601 1099 l 450 1285 z "},"Ẻ":{"ha":790,"x_min":132,"x_max":867,"o":"m 306 -8 q 132 138 132 -11 q 136 185 132 160 l 240 836 q 313 976 256 933 q 449 1018 369 1018 q 635 1015 531 1018 q 781 1011 739 1013 l 867 1008 l 858 965 l 453 965 q 347 933 386 965 q 294 824 307 900 l 249 533 l 732 524 l 725 482 l 240 479 l 194 186 q 192 146 192 171 q 224 66 192 88 q 321 44 257 44 l 715 44 l 708 1 q 306 -8 575 -3 m 542 1110 q 649 1225 649 1142 q 583 1281 649 1281 q 529 1272 556 1281 l 533 1300 q 596 1308 560 1308 q 683 1229 683 1308 q 648 1140 683 1179 q 536 1081 613 1101 l 542 1110 z "},"Ȇ":{"ha":790,"x_min":132,"x_max":867,"o":"m 306 -8 q 132 138 132 -11 q 136 185 132 160 l 240 836 q 313 976 256 933 q 449 1018 369 1018 q 635 1015 531 1018 q 781 1011 739 1013 l 867 1008 l 858 965 l 453 965 q 347 933 386 965 q 294 824 307 900 l 249 533 l 732 524 l 725 482 l 240 479 l 194 186 q 192 146 192 171 q 224 66 192 88 q 321 44 257 44 l 715 44 l 708 1 q 306 -8 575 -3 m 411 1100 q 484 1247 428 1204 q 618 1289 540 1289 q 725 1256 683 1289 q 767 1147 767 1222 q 764 1100 767 1133 l 733 1100 q 736 1140 736 1131 q 703 1231 736 1201 q 614 1260 669 1260 q 502 1222 550 1260 q 440 1100 454 1183 l 411 1100 z "},"Ē":{"ha":790,"x_min":132,"x_max":867,"o":"m 306 -8 q 132 138 132 -11 q 136 185 132 160 l 240 836 q 313 976 256 933 q 449 1018 369 1018 q 635 1015 531 1018 q 781 1011 739 1013 l 867 1008 l 858 965 l 453 965 q 347 933 386 965 q 294 824 307 900 l 249 533 l 732 524 l 725 482 l 240 479 l 194 186 q 192 146 192 171 q 224 66 192 88 q 321 44 257 44 l 715 44 l 708 1 q 306 -8 575 -3 m 426 1208 l 782 1208 l 775 1174 l 419 1174 l 426 1208 z "},"Ḗ":{"ha":790,"x_min":132,"x_max":867,"o":"m 306 -8 q 132 138 132 -11 q 136 185 132 160 l 240 836 q 313 976 256 933 q 449 1018 369 1018 q 635 1015 531 1018 q 781 1011 739 1013 l 867 1008 l 858 965 l 453 965 q 347 933 386 965 q 294 824 307 900 l 249 533 l 732 524 l 725 482 l 240 479 l 194 186 q 192 146 192 171 q 224 66 192 88 q 321 44 257 44 l 715 44 l 708 1 q 306 -8 575 -3 m 426 1208 l 782 1208 l 775 1174 l 419 1174 l 426 1208 m 771 1457 l 826 1457 l 617 1271 l 582 1271 l 771 1457 z "},"Ḕ":{"ha":790,"x_min":132,"x_max":867,"o":"m 306 -8 q 132 138 132 -11 q 136 185 132 160 l 240 836 q 313 976 256 933 q 449 1018 369 1018 q 635 1015 531 1018 q 781 1011 739 1013 l 867 1008 l 858 965 l 453 965 q 347 933 386 965 q 294 824 307 900 l 249 533 l 732 524 l 725 482 l 240 479 l 194 186 q 192 146 192 171 q 224 66 192 88 q 321 44 257 44 l 715 44 l 708 1 q 306 -8 575 -3 m 426 1208 l 782 1208 l 775 1174 l 419 1174 l 426 1208 m 449 1457 l 501 1457 l 633 1271 l 600 1271 l 449 1457 z "},"Ę":{"ha":790,"x_min":132,"x_max":867,"o":"m 453 965 q 347 933 386 965 q 294 824 307 900 l 249 533 l 732 524 l 725 482 l 240 479 l 194 186 q 192 146 192 171 q 224 66 192 88 q 321 44 257 44 l 715 44 l 708 1 q 619 -67 651 -26 q 588 -139 588 -107 q 618 -199 588 -178 q 707 -221 649 -221 l 715 -221 l 710 -251 q 678 -253 699 -253 q 585 -226 619 -253 q 550 -151 550 -199 q 583 -71 550 -112 q 682 0 615 -29 l 306 -8 q 132 138 132 -11 q 136 185 132 160 l 240 836 q 313 976 256 933 q 449 1018 369 1018 q 635 1015 531 1018 q 781 1011 739 1013 l 867 1008 l 858 965 l 453 965 z "},"Ẽ":{"ha":790,"x_min":132,"x_max":886,"o":"m 306 -8 q 132 138 132 -11 q 136 185 132 160 l 240 836 q 313 976 256 933 q 449 1018 369 1018 q 635 1015 531 1018 q 781 1011 739 1013 l 867 1008 l 858 965 l 453 965 q 347 933 386 965 q 294 824 307 900 l 249 533 l 732 524 l 725 482 l 240 479 l 194 186 q 192 146 192 171 q 224 66 192 88 q 321 44 257 44 l 715 44 l 708 1 q 306 -8 575 -3 m 389 1135 q 441 1234 400 1203 q 535 1265 482 1265 q 587 1253 563 1265 q 647 1217 611 1242 q 700 1182 678 1193 q 747 1171 722 1171 q 818 1196 789 1171 q 856 1267 847 1221 l 886 1267 q 838 1171 875 1206 q 742 1136 801 1136 q 691 1148 715 1136 q 636 1183 667 1160 q 579 1219 603 1207 q 528 1231 556 1231 q 457 1206 488 1231 q 419 1135 426 1182 l 389 1135 z "},"F":{"ha":760,"x_min":108,"x_max":865,"o":"m 239 826 q 310 977 256 936 q 446 1018 364 1018 q 640 1015 533 1018 q 786 1011 746 1013 l 865 1008 l 858 965 l 449 965 q 344 932 382 965 q 294 824 307 899 l 247 528 l 731 519 l 724 478 l 240 475 l 165 0 l 108 0 l 239 826 z "},"Ḟ":{"ha":760,"x_min":108,"x_max":865,"o":"m 239 826 q 310 977 256 936 q 446 1018 364 1018 q 640 1015 533 1018 q 786 1011 746 1013 l 865 1008 l 858 965 l 449 965 q 344 932 382 965 q 294 824 307 899 l 247 528 l 731 519 l 724 478 l 240 475 l 165 0 l 108 0 l 239 826 m 572 1151 q 561 1156 565 1151 q 557 1167 557 1160 l 557 1169 l 572 1263 q 593 1281 574 1281 l 619 1281 q 635 1267 635 1281 l 635 1263 l 619 1169 q 613 1156 618 1161 q 599 1151 607 1151 l 572 1151 z "},"G":{"ha":888,"x_min":156,"x_max":911,"o":"m 418 -8 q 217 66 278 -8 q 156 303 156 140 q 176 528 156 392 q 311 899 214 769 q 594 1029 408 1029 q 766 1018 692 1029 q 911 986 840 1007 l 904 946 q 592 978 750 978 q 351 862 432 978 q 233 511 269 746 q 213 296 213 385 q 265 104 213 164 q 433 44 317 44 q 597 67 500 44 q 743 111 693 90 l 800 472 l 518 472 l 525 514 q 622 521 558 519 q 761 522 685 522 q 864 519 797 522 l 782 0 l 742 0 l 742 74 q 593 20 692 49 q 418 -8 494 -8 z "},"Ğ":{"ha":888,"x_min":156,"x_max":911,"o":"m 418 -8 q 217 66 278 -8 q 156 303 156 140 q 176 528 156 392 q 311 899 214 769 q 594 1029 408 1029 q 766 1018 692 1029 q 911 986 840 1007 l 904 946 q 592 978 750 978 q 351 862 432 978 q 233 511 269 746 q 213 296 213 385 q 265 104 213 164 q 433 44 317 44 q 597 67 500 44 q 743 111 693 90 l 800 472 l 518 472 l 525 514 q 622 521 558 519 q 761 522 685 522 q 864 519 797 522 l 782 0 l 742 0 l 742 74 q 593 20 692 49 q 418 -8 494 -8 m 614 1100 q 507 1133 549 1100 q 465 1242 465 1167 q 468 1289 465 1256 l 499 1289 q 496 1249 496 1258 q 528 1159 496 1189 q 615 1129 561 1129 q 730 1167 682 1129 q 792 1289 778 1206 l 821 1289 q 748 1143 804 1186 q 614 1100 692 1100 z "},"Ǧ":{"ha":888,"x_min":156,"x_max":911,"o":"m 418 -8 q 217 66 278 -8 q 156 303 156 140 q 176 528 156 392 q 311 899 214 769 q 594 1029 408 1029 q 766 1018 692 1029 q 911 986 840 1007 l 904 946 q 592 978 750 978 q 351 862 432 978 q 233 511 269 746 q 213 296 213 385 q 265 104 213 164 q 433 44 317 44 q 597 67 500 44 q 743 111 693 90 l 800 472 l 518 472 l 525 514 q 622 521 558 519 q 761 522 685 522 q 864 519 797 522 l 782 0 l 742 0 l 742 74 q 593 20 692 49 q 418 -8 494 -8 m 482 1282 l 521 1282 l 642 1129 l 829 1282 l 867 1282 l 658 1099 l 615 1099 l 482 1282 z "},"Ĝ":{"ha":888,"x_min":156,"x_max":911,"o":"m 418 -8 q 217 66 278 -8 q 156 303 156 140 q 176 528 156 392 q 311 899 214 769 q 594 1029 408 1029 q 766 1018 692 1029 q 911 986 840 1007 l 904 946 q 592 978 750 978 q 351 862 432 978 q 233 511 269 746 q 213 296 213 385 q 265 104 213 164 q 433 44 317 44 q 597 67 500 44 q 743 111 693 90 l 800 472 l 518 472 l 525 514 q 622 521 558 519 q 761 522 685 522 q 864 519 797 522 l 782 0 l 742 0 l 742 74 q 593 20 692 49 q 418 -8 494 -8 m 619 1282 l 663 1282 l 796 1099 l 758 1099 l 635 1251 l 449 1099 l 411 1099 l 619 1282 z "},"Ģ":{"ha":888,"x_min":156,"x_max":911,"o":"m 418 -8 q 217 66 278 -8 q 156 303 156 140 q 176 528 156 392 q 311 899 214 769 q 594 1029 408 1029 q 766 1018 692 1029 q 911 986 840 1007 l 904 946 q 592 978 750 978 q 351 862 432 978 q 233 511 269 746 q 213 296 213 385 q 265 104 213 164 q 433 44 317 44 q 597 67 500 44 q 743 111 693 90 l 800 472 l 518 472 l 525 514 q 622 521 558 519 q 761 522 685 522 q 864 519 797 522 l 782 0 l 742 0 l 742 74 q 593 20 692 49 q 418 -8 494 -8 m 307 -247 l 350 -242 q 416 -225 392 -236 q 458 -180 440 -214 q 485 -79 475 -146 l 522 -79 q 492 -193 511 -153 q 440 -251 474 -233 q 344 -269 406 -269 l 303 -269 l 307 -247 z "},"Ġ":{"ha":888,"x_min":156,"x_max":911,"o":"m 418 -8 q 217 66 278 -8 q 156 303 156 140 q 176 528 156 392 q 311 899 214 769 q 594 1029 408 1029 q 766 1018 692 1029 q 911 986 840 1007 l 904 946 q 592 978 750 978 q 351 862 432 978 q 233 511 269 746 q 213 296 213 385 q 265 104 213 164 q 433 44 317 44 q 597 67 500 44 q 743 111 693 90 l 800 472 l 518 472 l 525 514 q 622 521 558 519 q 761 522 685 522 q 864 519 797 522 l 782 0 l 742 0 l 742 74 q 593 20 692 49 q 418 -8 494 -8 m 611 1151 q 600 1156 604 1151 q 596 1167 596 1160 l 596 1169 l 611 1263 q 632 1281 613 1281 l 658 1281 q 674 1267 674 1281 l 674 1263 l 658 1169 q 651 1156 657 1161 q 638 1151 646 1151 l 611 1151 z "},"Ḡ":{"ha":888,"x_min":156,"x_max":911,"o":"m 418 -8 q 217 66 278 -8 q 156 303 156 140 q 176 528 156 392 q 311 899 214 769 q 594 1029 408 1029 q 766 1018 692 1029 q 911 986 840 1007 l 904 946 q 592 978 750 978 q 351 862 432 978 q 233 511 269 746 q 213 296 213 385 q 265 104 213 164 q 433 44 317 44 q 597 67 500 44 q 743 111 693 90 l 800 472 l 518 472 l 525 514 q 622 521 558 519 q 761 522 685 522 q 864 519 797 522 l 782 0 l 742 0 l 742 74 q 593 20 692 49 q 418 -8 494 -8 m 454 1208 l 810 1208 l 803 1174 l 447 1174 l 454 1208 z "},"H":{"ha":906,"x_min":108,"x_max":961,"o":"m 269 1018 l 326 1018 l 247 519 l 825 519 l 904 1018 l 961 1018 l 800 0 l 743 0 l 817 468 l 239 468 l 165 0 l 108 0 l 269 1018 z "},"Ħ":{"ha":906,"x_min":108,"x_max":1024,"o":"m 1017 735 l 917 735 l 800 0 l 743 0 l 817 468 l 239 468 l 165 0 l 108 0 l 225 735 l 124 735 l 129 775 l 231 775 l 269 1018 l 326 1018 l 288 775 l 865 775 l 904 1018 l 961 1018 l 922 775 l 1024 775 l 1017 735 m 860 735 l 282 735 l 247 519 l 825 519 l 860 735 z "},"Ḫ":{"ha":906,"x_min":108,"x_max":961,"o":"m 269 1018 l 326 1018 l 247 519 l 825 519 l 904 1018 l 961 1018 l 800 0 l 743 0 l 817 468 l 239 468 l 165 0 l 108 0 l 269 1018 m 382 -303 q 275 -269 317 -303 q 233 -161 233 -236 q 236 -114 233 -147 l 265 -114 q 263 -154 263 -144 q 296 -244 263 -214 q 383 -274 329 -274 q 498 -235 450 -274 q 558 -114 546 -197 l 589 -114 q 515 -260 572 -218 q 382 -303 458 -303 z "},"Ĥ":{"ha":906,"x_min":108,"x_max":961,"o":"m 269 1018 l 326 1018 l 247 519 l 825 519 l 904 1018 l 961 1018 l 800 0 l 743 0 l 817 468 l 239 468 l 165 0 l 108 0 l 269 1018 m 626 1282 l 669 1282 l 803 1099 l 765 1099 l 642 1251 l 456 1099 l 418 1099 l 626 1282 z "},"Ḥ":{"ha":906,"x_min":108,"x_max":961,"o":"m 269 1018 l 326 1018 l 247 519 l 825 519 l 904 1018 l 961 1018 l 800 0 l 743 0 l 817 468 l 239 468 l 165 0 l 108 0 l 269 1018 m 382 -279 q 371 -275 375 -279 q 367 -264 367 -271 l 367 -261 l 382 -168 q 403 -150 383 -150 l 429 -150 q 444 -164 444 -150 l 444 -168 l 429 -261 q 422 -274 428 -269 q 408 -279 417 -279 l 382 -279 z "},"I":{"ha":272,"x_min":108,"x_max":326,"o":"m 269 1018 l 326 1018 l 165 0 l 108 0 l 269 1018 z "},"Í":{"ha":272,"x_min":108,"x_max":518,"o":"m 269 1018 l 326 1018 l 165 0 l 108 0 l 269 1018 m 463 1285 l 518 1285 l 308 1099 l 274 1099 l 463 1285 z "},"Ĭ":{"ha":272,"x_min":108,"x_max":511,"o":"m 269 1018 l 326 1018 l 165 0 l 108 0 l 269 1018 m 304 1100 q 197 1133 239 1100 q 156 1242 156 1167 q 158 1289 156 1256 l 189 1289 q 186 1249 186 1258 q 219 1159 186 1189 q 306 1129 251 1129 q 420 1167 372 1129 q 482 1289 468 1206 l 511 1289 q 438 1143 494 1186 q 304 1100 382 1100 z "},"Î":{"ha":272,"x_min":101,"x_max":486,"o":"m 269 1018 l 326 1018 l 165 0 l 108 0 l 269 1018 m 310 1282 l 353 1282 l 486 1099 l 449 1099 l 325 1251 l 139 1099 l 101 1099 l 310 1282 z "},"Ȉ":{"ha":272,"x_min":53,"x_max":415,"o":"m 269 1018 l 326 1018 l 165 0 l 108 0 l 269 1018 m 53 1285 l 106 1285 l 238 1099 l 204 1099 l 53 1285 m 231 1285 l 283 1285 l 415 1099 l 382 1099 l 231 1285 z "},"Ï":{"ha":272,"x_min":108,"x_max":482,"o":"m 269 1018 l 326 1018 l 165 0 l 108 0 l 269 1018 m 131 1142 q 115 1157 115 1142 l 131 1253 q 153 1271 132 1271 l 179 1271 q 194 1257 194 1271 q 178 1160 194 1263 q 170 1147 176 1151 q 157 1142 164 1142 l 131 1142 m 418 1142 q 403 1157 403 1142 l 418 1253 q 440 1271 419 1271 l 467 1271 q 482 1257 482 1271 q 465 1160 482 1263 q 458 1147 464 1151 q 444 1142 451 1142 l 418 1142 z "},"Ḯ":{"ha":272,"x_min":108,"x_max":533,"o":"m 269 1018 l 326 1018 l 165 0 l 108 0 l 269 1018 m 131 1142 q 115 1157 115 1142 l 131 1253 q 153 1271 132 1271 l 179 1271 q 194 1257 194 1271 q 178 1160 194 1263 q 170 1147 176 1151 q 157 1142 164 1142 l 131 1142 m 418 1142 q 403 1157 403 1142 l 418 1253 q 440 1271 419 1271 l 467 1271 q 482 1257 482 1271 q 465 1160 482 1263 q 458 1147 464 1151 q 444 1142 451 1142 l 418 1142 m 478 1510 l 533 1510 l 324 1324 l 289 1324 l 478 1510 z "},"İ":{"ha":272,"x_min":108,"x_max":364,"o":"m 269 1018 l 326 1018 l 165 0 l 108 0 l 269 1018 m 301 1151 q 290 1156 294 1151 q 286 1167 286 1160 l 286 1169 l 301 1263 q 322 1281 303 1281 l 349 1281 q 364 1267 364 1281 l 364 1263 l 349 1169 q 342 1156 347 1161 q 328 1151 336 1151 l 301 1151 z "},"Ị":{"ha":272,"x_min":50,"x_max":326,"o":"m 269 1018 l 326 1018 l 165 0 l 108 0 l 269 1018 m 65 -279 q 54 -275 58 -279 q 50 -264 50 -271 l 50 -261 l 65 -168 q 86 -150 67 -150 l 113 -150 q 128 -164 128 -150 l 128 -168 l 113 -261 q 106 -274 111 -269 q 92 -279 100 -279 l 65 -279 z "},"Ì":{"ha":272,"x_min":108,"x_max":353,"o":"m 269 1018 l 326 1018 l 165 0 l 108 0 l 269 1018 m 168 1285 l 221 1285 l 353 1099 l 319 1099 l 168 1285 z "},"Ỉ":{"ha":272,"x_min":108,"x_max":401,"o":"m 269 1018 l 326 1018 l 165 0 l 108 0 l 269 1018 m 260 1110 q 367 1225 367 1142 q 301 1281 367 1281 q 247 1272 274 1281 l 251 1300 q 314 1308 278 1308 q 401 1229 401 1308 q 366 1140 401 1179 q 254 1081 331 1101 l 260 1110 z "},"Ȋ":{"ha":272,"x_min":108,"x_max":485,"o":"m 269 1018 l 326 1018 l 165 0 l 108 0 l 269 1018 m 129 1100 q 202 1247 146 1204 q 336 1289 258 1289 q 443 1256 401 1289 q 485 1147 485 1222 q 482 1100 485 1133 l 451 1100 q 454 1140 454 1131 q 421 1231 454 1201 q 332 1260 388 1260 q 220 1222 268 1260 q 158 1100 172 1183 l 129 1100 z "},"Ī":{"ha":272,"x_min":108,"x_max":500,"o":"m 269 1018 l 326 1018 l 165 0 l 108 0 l 269 1018 m 144 1208 l 500 1208 l 493 1174 l 138 1174 l 144 1208 z "},"Į":{"ha":272,"x_min":7,"x_max":326,"o":"m 269 1018 l 326 1018 l 165 0 l 108 0 l 269 1018 m 135 -254 q 42 -227 76 -254 q 7 -153 7 -200 q 40 -72 7 -114 q 140 0 72 -29 l 165 0 q 76 -68 108 -28 q 44 -140 44 -108 q 75 -201 44 -179 q 164 -222 106 -222 l 172 -222 l 167 -253 q 135 -254 156 -254 z "},"Ĩ":{"ha":272,"x_min":107,"x_max":604,"o":"m 269 1018 l 326 1018 l 165 0 l 108 0 l 269 1018 m 107 1135 q 159 1234 118 1203 q 253 1265 200 1265 q 305 1253 281 1265 q 365 1217 329 1242 q 418 1182 396 1193 q 465 1171 440 1171 q 536 1196 507 1171 q 574 1267 565 1221 l 604 1267 q 556 1171 593 1206 q 460 1136 519 1136 q 409 1148 433 1136 q 354 1183 385 1160 q 297 1219 321 1207 q 246 1231 274 1231 q 175 1206 206 1231 q 138 1135 144 1182 l 107 1135 z "},"J":{"ha":457,"x_min":43,"x_max":549,"o":"m 185 -8 q 105 1 142 -8 q 43 26 68 11 l 51 68 q 181 44 108 44 q 367 239 335 44 l 492 1018 l 549 1018 l 424 232 q 344 50 403 108 q 185 -8 286 -8 z "},"Ĵ":{"ha":457,"x_min":43,"x_max":711,"o":"m 185 -8 q 105 1 142 -8 q 43 26 68 11 l 51 68 q 181 44 108 44 q 367 239 335 44 l 492 1018 l 549 1018 l 424 232 q 344 50 403 108 q 185 -8 286 -8 m 535 1282 l 578 1282 l 711 1099 l 674 1099 l 550 1251 l 364 1099 l 326 1099 l 535 1282 z "},"K":{"ha":794,"x_min":108,"x_max":896,"o":"m 269 1018 l 326 1018 l 250 536 l 454 536 l 833 1018 l 896 1018 l 499 510 l 751 0 l 690 0 l 450 485 l 240 485 l 165 0 l 108 0 l 269 1018 z "},"Ķ":{"ha":794,"x_min":108,"x_max":896,"o":"m 269 1018 l 326 1018 l 250 536 l 454 536 l 833 1018 l 896 1018 l 499 510 l 751 0 l 690 0 l 450 485 l 240 485 l 165 0 l 108 0 l 269 1018 m 246 -247 l 289 -242 q 355 -225 331 -236 q 397 -180 379 -214 q 424 -79 414 -146 l 461 -79 q 431 -193 450 -153 q 378 -251 413 -233 q 283 -269 344 -269 l 242 -269 l 246 -247 z "},"L":{"ha":721,"x_min":133,"x_max":694,"o":"m 297 0 q 175 30 217 0 q 133 135 133 60 q 138 185 133 160 l 269 1018 l 326 1018 l 194 189 q 190 143 190 167 q 222 71 190 90 q 307 51 253 51 l 694 51 l 688 0 l 297 0 z "},"Ĺ":{"ha":721,"x_min":133,"x_max":694,"o":"m 297 0 q 175 30 217 0 q 133 135 133 60 q 138 185 133 160 l 269 1018 l 326 1018 l 194 189 q 190 143 190 167 q 222 71 190 90 q 307 51 253 51 l 694 51 l 688 0 l 297 0 m 474 1285 l 529 1285 l 319 1099 l 285 1099 l 474 1285 z "},"Ľ":{"ha":721,"x_min":133,"x_max":694,"o":"m 297 0 q 175 30 217 0 q 133 135 133 60 q 138 185 133 160 l 269 1018 l 326 1018 l 194 189 q 190 143 190 167 q 222 71 190 90 q 307 51 253 51 l 694 51 l 688 0 l 297 0 m 483 914 l 497 1007 l 553 1007 l 539 914 l 499 699 l 463 699 l 483 914 z "},"Ļ":{"ha":721,"x_min":133,"x_max":694,"o":"m 297 0 q 175 30 217 0 q 133 135 133 60 q 138 185 133 160 l 269 1018 l 326 1018 l 194 189 q 190 143 190 167 q 222 71 190 90 q 307 51 253 51 l 694 51 l 688 0 l 297 0 m 250 -247 l 293 -242 q 359 -225 335 -236 q 401 -180 383 -214 q 428 -79 418 -146 l 465 -79 q 435 -193 454 -153 q 383 -251 417 -233 q 288 -269 349 -269 l 246 -269 l 250 -247 z "},"Ŀ":{"ha":721,"x_min":133,"x_max":694,"o":"m 297 0 q 175 30 217 0 q 133 135 133 60 q 138 185 133 160 l 269 1018 l 326 1018 l 194 189 q 190 143 190 167 q 222 71 190 90 q 307 51 253 51 l 694 51 l 688 0 l 297 0 m 586 567 q 574 572 578 567 q 571 585 569 578 l 576 617 q 597 635 579 635 l 628 635 q 642 617 646 635 l 638 585 q 617 567 636 567 l 586 567 z "},"Ḷ":{"ha":721,"x_min":133,"x_max":694,"o":"m 297 0 q 175 30 217 0 q 133 135 133 60 q 138 185 133 160 l 269 1018 l 326 1018 l 194 189 q 190 143 190 167 q 222 71 190 90 q 307 51 253 51 l 694 51 l 688 0 l 297 0 m 318 -279 q 307 -275 311 -279 q 303 -264 303 -271 l 303 -261 l 318 -168 q 339 -150 319 -150 l 365 -150 q 381 -164 381 -150 l 381 -168 l 365 -261 q 358 -274 364 -269 q 344 -279 353 -279 l 318 -279 z "},"Ḻ":{"ha":721,"x_min":133,"x_max":694,"o":"m 297 0 q 175 30 217 0 q 133 135 133 60 q 138 185 133 160 l 269 1018 l 326 1018 l 194 189 q 190 143 190 167 q 222 71 190 90 q 307 51 253 51 l 694 51 l 688 0 l 297 0 m 168 -208 l 524 -208 l 517 -243 l 161 -243 l 168 -208 z "},"Ł":{"ha":721,"x_min":67,"x_max":694,"o":"m 694 51 l 688 0 l 297 0 q 175 30 217 0 q 133 135 133 60 q 138 185 133 160 l 186 490 l 67 444 l 72 485 l 193 531 l 269 1018 l 326 1018 l 251 549 l 460 633 l 454 594 l 246 510 l 194 189 q 190 143 190 167 q 222 71 190 90 q 307 51 253 51 l 694 51 z "},"M":{"ha":1089,"x_min":93,"x_max":1082,"o":"m 368 1018 l 421 1018 l 578 93 l 1029 1018 l 1082 1018 l 1038 0 l 982 0 l 1024 908 l 592 0 l 539 0 l 392 907 l 151 0 l 93 0 l 368 1018 z "},"Ṁ":{"ha":1089,"x_min":93,"x_max":1082,"o":"m 368 1018 l 421 1018 l 578 93 l 1029 1018 l 1082 1018 l 1038 0 l 982 0 l 1024 908 l 592 0 l 539 0 l 392 907 l 151 0 l 93 0 l 368 1018 m 715 1151 q 704 1156 708 1151 q 700 1167 700 1160 l 700 1169 l 715 1263 q 736 1281 717 1281 l 763 1281 q 778 1267 778 1281 l 778 1263 l 763 1169 q 756 1156 761 1161 q 742 1151 750 1151 l 715 1151 z "},"Ṃ":{"ha":1089,"x_min":93,"x_max":1082,"o":"m 368 1018 l 421 1018 l 578 93 l 1029 1018 l 1082 1018 l 1038 0 l 982 0 l 1024 908 l 592 0 l 539 0 l 392 907 l 151 0 l 93 0 l 368 1018 m 479 -279 q 468 -275 472 -279 q 464 -264 464 -271 l 464 -261 l 479 -168 q 500 -150 481 -150 l 526 -150 q 542 -164 542 -150 l 542 -168 l 526 -261 q 519 -274 525 -269 q 506 -279 514 -279 l 479 -279 z "},"N":{"ha":910,"x_min":108,"x_max":965,"o":"m 269 1018 l 318 1018 l 761 97 l 908 1018 l 965 1018 l 804 0 l 754 0 l 311 922 l 165 0 l 108 0 l 269 1018 z "},"Ń":{"ha":910,"x_min":108,"x_max":965,"o":"m 269 1018 l 318 1018 l 761 97 l 908 1018 l 965 1018 l 804 0 l 754 0 l 311 922 l 165 0 l 108 0 l 269 1018 m 774 1285 l 829 1285 l 619 1099 l 585 1099 l 774 1285 z "},"Ň":{"ha":910,"x_min":108,"x_max":965,"o":"m 269 1018 l 318 1018 l 761 97 l 908 1018 l 965 1018 l 804 0 l 754 0 l 311 922 l 165 0 l 108 0 l 269 1018 m 483 1282 l 522 1282 l 643 1129 l 831 1282 l 868 1282 l 660 1099 l 617 1099 l 483 1282 z "},"Ņ":{"ha":910,"x_min":108,"x_max":965,"o":"m 269 1018 l 318 1018 l 761 97 l 908 1018 l 965 1018 l 804 0 l 754 0 l 311 922 l 165 0 l 108 0 l 269 1018 m 308 -247 l 351 -242 q 417 -225 393 -236 q 459 -180 442 -214 q 486 -79 476 -146 l 524 -79 q 494 -193 513 -153 q 441 -251 475 -233 q 346 -269 407 -269 l 304 -269 l 308 -247 z "},"Ṅ":{"ha":910,"x_min":108,"x_max":965,"o":"m 269 1018 l 318 1018 l 761 97 l 908 1018 l 965 1018 l 804 0 l 754 0 l 311 922 l 165 0 l 108 0 l 269 1018 m 376 -279 q 365 -275 369 -279 q 361 -264 361 -271 l 361 -261 l 376 -168 q 397 -150 378 -150 l 424 -150 q 439 -164 439 -150 l 439 -168 l 424 -261 q 417 -274 422 -269 q 403 -279 411 -279 l 376 -279 z "},"Ṇ":{"ha":910,"x_min":108,"x_max":965,"o":"m 269 1018 l 318 1018 l 761 97 l 908 1018 l 965 1018 l 804 0 l 754 0 l 311 922 l 165 0 l 108 0 l 269 1018 m 376 -279 q 365 -275 369 -279 q 361 -264 361 -271 l 361 -261 l 376 -168 q 397 -150 378 -150 l 424 -150 q 439 -164 439 -150 l 439 -168 l 424 -261 q 417 -274 422 -269 q 403 -279 411 -279 l 376 -279 z "},"Ŋ":{"ha":910,"x_min":108,"x_max":965,"o":"m 804 0 l 783 -121 q 699 -289 764 -240 q 514 -337 633 -337 q 437 -328 478 -337 q 368 -304 396 -318 l 374 -262 q 517 -286 460 -286 q 659 -251 607 -286 q 728 -117 711 -215 l 749 11 l 311 922 l 165 0 l 108 0 l 269 1018 l 318 1018 l 761 97 l 908 1018 l 965 1018 l 804 0 z "},"Ṉ":{"ha":910,"x_min":108,"x_max":965,"o":"m 269 1018 l 318 1018 l 761 97 l 908 1018 l 965 1018 l 804 0 l 754 0 l 311 922 l 165 0 l 108 0 l 269 1018 m 251 -208 l 607 -208 l 600 -243 l 244 -243 l 251 -208 z "},"Ñ":{"ha":910,"x_min":108,"x_max":965,"o":"m 269 1018 l 318 1018 l 761 97 l 908 1018 l 965 1018 l 804 0 l 754 0 l 311 922 l 165 0 l 108 0 l 269 1018 m 418 1135 q 470 1234 429 1203 q 564 1265 511 1265 q 616 1253 592 1265 q 676 1217 640 1242 q 729 1182 707 1193 q 776 1171 751 1171 q 847 1196 818 1171 q 885 1267 876 1221 l 915 1267 q 867 1171 904 1206 q 771 1136 831 1136 q 720 1148 744 1136 q 665 1183 696 1160 q 608 1219 632 1207 q 557 1231 585 1231 q 486 1206 517 1231 q 449 1135 456 1182 l 418 1135 z "},"O":{"ha":946,"x_min":151,"x_max":953,"o":"m 468 -8 q 292 15 360 -8 q 188 102 224 39 q 151 282 151 165 q 174 515 151 381 q 264 832 207 722 q 408 984 321 942 q 636 1026 496 1026 q 809 1000 740 1026 q 915 907 878 974 q 953 724 953 840 q 931 489 953 624 q 840 177 899 285 q 694 31 782 69 q 468 -8 606 -8 m 481 43 q 675 78 603 43 q 795 212 747 114 q 874 501 843 310 q 894 725 894 622 q 864 881 894 826 q 776 955 833 935 q 626 975 718 975 q 433 938 507 975 q 310 799 360 901 q 231 503 261 697 q 208 283 208 361 q 237 133 208 185 q 323 62 265 81 q 481 43 381 43 z "},"Ó":{"ha":946,"x_min":151,"x_max":953,"o":"m 468 -8 q 292 15 360 -8 q 188 102 224 39 q 151 282 151 165 q 174 515 151 381 q 264 832 207 722 q 408 984 321 942 q 636 1026 496 1026 q 809 1000 740 1026 q 915 907 878 974 q 953 724 953 840 q 931 489 953 624 q 840 177 899 285 q 694 31 782 69 q 468 -8 606 -8 m 481 43 q 675 78 603 43 q 795 212 747 114 q 874 501 843 310 q 894 725 894 622 q 864 881 894 826 q 776 955 833 935 q 626 975 718 975 q 433 938 507 975 q 310 799 360 901 q 231 503 261 697 q 208 283 208 361 q 237 133 208 185 q 323 62 265 81 q 481 43 381 43 m 804 1285 l 860 1285 l 650 1099 l 615 1099 l 804 1285 z "},"Ŏ":{"ha":946,"x_min":151,"x_max":953,"o":"m 468 -8 q 292 15 360 -8 q 188 102 224 39 q 151 282 151 165 q 174 515 151 381 q 264 832 207 722 q 408 984 321 942 q 636 1026 496 1026 q 809 1000 740 1026 q 915 907 878 974 q 953 724 953 840 q 931 489 953 624 q 840 177 899 285 q 694 31 782 69 q 468 -8 606 -8 m 481 43 q 675 78 603 43 q 795 212 747 114 q 874 501 843 310 q 894 725 894 622 q 864 881 894 826 q 776 955 833 935 q 626 975 718 975 q 433 938 507 975 q 310 799 360 901 q 231 503 261 697 q 208 283 208 361 q 237 133 208 185 q 323 62 265 81 q 481 43 381 43 m 646 1100 q 539 1133 581 1100 q 497 1242 497 1167 q 500 1289 497 1256 l 531 1289 q 528 1249 528 1258 q 560 1159 528 1189 q 647 1129 593 1129 q 762 1167 714 1129 q 824 1289 810 1206 l 853 1289 q 780 1143 836 1186 q 646 1100 724 1100 z "},"Ô":{"ha":946,"x_min":151,"x_max":953,"o":"m 468 -8 q 292 15 360 -8 q 188 102 224 39 q 151 282 151 165 q 174 515 151 381 q 264 832 207 722 q 408 984 321 942 q 636 1026 496 1026 q 809 1000 740 1026 q 915 907 878 974 q 953 724 953 840 q 931 489 953 624 q 840 177 899 285 q 694 31 782 69 q 468 -8 606 -8 m 481 43 q 675 78 603 43 q 795 212 747 114 q 874 501 843 310 q 894 725 894 622 q 864 881 894 826 q 776 955 833 935 q 626 975 718 975 q 433 938 507 975 q 310 799 360 901 q 231 503 261 697 q 208 283 208 361 q 237 133 208 185 q 323 62 265 81 q 481 43 381 43 m 651 1282 l 694 1282 l 828 1099 l 790 1099 l 667 1251 l 481 1099 l 443 1099 l 651 1282 z "},"Ố":{"ha":946,"x_min":151,"x_max":1013,"o":"m 468 -8 q 292 15 360 -8 q 188 102 224 39 q 151 282 151 165 q 174 515 151 381 q 264 832 207 722 q 408 984 321 942 q 636 1026 496 1026 q 809 1000 740 1026 q 915 907 878 974 q 953 724 953 840 q 931 489 953 624 q 840 177 899 285 q 694 31 782 69 q 468 -8 606 -8 m 481 43 q 675 78 603 43 q 795 212 747 114 q 874 501 843 310 q 894 725 894 622 q 864 881 894 826 q 776 955 833 935 q 626 975 718 975 q 433 938 507 975 q 310 799 360 901 q 231 503 261 697 q 208 283 208 361 q 237 133 208 185 q 323 62 265 81 q 481 43 381 43 m 961 1382 l 1013 1382 l 810 1199 l 778 1199 l 961 1382 m 647 1228 l 690 1228 l 833 1099 l 794 1099 l 664 1197 l 486 1099 l 449 1099 l 647 1228 z "},"Ộ":{"ha":946,"x_min":151,"x_max":953,"o":"m 468 -8 q 292 15 360 -8 q 188 102 224 39 q 151 282 151 165 q 174 515 151 381 q 264 832 207 722 q 408 984 321 942 q 636 1026 496 1026 q 809 1000 740 1026 q 915 907 878 974 q 953 724 953 840 q 931 489 953 624 q 840 177 899 285 q 694 31 782 69 q 468 -8 606 -8 m 481 43 q 675 78 603 43 q 795 212 747 114 q 874 501 843 310 q 894 725 894 622 q 864 881 894 826 q 776 955 833 935 q 626 975 718 975 q 433 938 507 975 q 310 799 360 901 q 231 503 261 697 q 208 283 208 361 q 237 133 208 185 q 323 62 265 81 q 481 43 381 43 m 651 1282 l 694 1282 l 828 1099 l 790 1099 l 667 1251 l 481 1099 l 443 1099 l 651 1282 m 407 -279 q 396 -275 400 -279 q 392 -264 392 -271 l 392 -261 l 407 -168 q 428 -150 408 -150 l 454 -150 q 469 -164 469 -150 l 469 -168 l 454 -261 q 447 -274 453 -269 q 433 -279 442 -279 l 407 -279 z "},"Ồ":{"ha":946,"x_min":151,"x_max":953,"o":"m 468 -8 q 292 15 360 -8 q 188 102 224 39 q 151 282 151 165 q 174 515 151 381 q 264 832 207 722 q 408 984 321 942 q 636 1026 496 1026 q 809 1000 740 1026 q 915 907 878 974 q 953 724 953 840 q 931 489 953 624 q 840 177 899 285 q 694 31 782 69 q 468 -8 606 -8 m 481 43 q 675 78 603 43 q 795 212 747 114 q 874 501 843 310 q 894 725 894 622 q 864 881 894 826 q 776 955 833 935 q 626 975 718 975 q 433 938 507 975 q 310 799 360 901 q 231 503 261 697 q 208 283 208 361 q 237 133 208 185 q 323 62 265 81 q 481 43 381 43 m 372 1382 l 425 1382 l 549 1199 l 517 1199 l 372 1382 m 638 1228 l 681 1228 l 824 1099 l 785 1099 l 654 1197 l 476 1099 l 439 1099 l 638 1228 z "},"Ổ":{"ha":946,"x_min":151,"x_max":953,"o":"m 468 -8 q 292 15 360 -8 q 188 102 224 39 q 151 282 151 165 q 174 515 151 381 q 264 832 207 722 q 408 984 321 942 q 636 1026 496 1026 q 809 1000 740 1026 q 915 907 878 974 q 953 724 953 840 q 931 489 953 624 q 840 177 899 285 q 694 31 782 69 q 468 -8 606 -8 m 481 43 q 675 78 603 43 q 795 212 747 114 q 874 501 843 310 q 894 725 894 622 q 864 881 894 826 q 776 955 833 935 q 626 975 718 975 q 433 938 507 975 q 310 799 360 901 q 231 503 261 697 q 208 283 208 361 q 237 133 208 185 q 323 62 265 81 q 481 43 381 43 m 806 1196 q 881 1239 858 1213 q 904 1294 904 1265 q 843 1340 904 1340 q 789 1332 814 1340 l 793 1360 q 853 1369 822 1369 q 917 1351 896 1369 q 938 1297 938 1332 q 905 1221 938 1256 q 801 1168 872 1186 l 806 1196 m 653 1228 l 696 1228 l 838 1099 l 800 1099 l 669 1197 l 492 1099 l 453 1099 l 653 1228 z "},"Ỗ":{"ha":946,"x_min":151,"x_max":953,"o":"m 468 -8 q 292 15 360 -8 q 188 102 224 39 q 151 282 151 165 q 174 515 151 381 q 264 832 207 722 q 408 984 321 942 q 636 1026 496 1026 q 809 1000 740 1026 q 915 907 878 974 q 953 724 953 840 q 931 489 953 624 q 840 177 899 285 q 694 31 782 69 q 468 -8 606 -8 m 481 43 q 675 78 603 43 q 795 212 747 114 q 874 501 843 310 q 894 725 894 622 q 864 881 894 826 q 776 955 833 935 q 626 975 718 975 q 433 938 507 975 q 310 799 360 901 q 231 503 261 697 q 208 283 208 361 q 237 133 208 185 q 323 62 265 81 q 481 43 381 43 m 460 1294 q 505 1373 468 1349 q 588 1397 542 1397 q 641 1388 617 1397 q 699 1361 665 1379 q 751 1336 731 1344 q 794 1328 771 1328 q 858 1346 832 1328 q 890 1397 885 1364 l 921 1397 q 879 1323 914 1350 q 790 1296 844 1296 q 740 1305 763 1296 q 686 1331 717 1314 q 632 1356 656 1347 q 582 1364 608 1364 q 522 1347 547 1364 q 490 1294 496 1329 l 460 1294 m 653 1228 l 697 1228 l 838 1099 l 800 1099 l 669 1197 l 492 1099 l 453 1099 l 653 1228 z "},"Ȍ":{"ha":946,"x_min":151,"x_max":953,"o":"m 468 -8 q 292 15 360 -8 q 188 102 224 39 q 151 282 151 165 q 174 515 151 381 q 264 832 207 722 q 408 984 321 942 q 636 1026 496 1026 q 809 1000 740 1026 q 915 907 878 974 q 953 724 953 840 q 931 489 953 624 q 840 177 899 285 q 694 31 782 69 q 468 -8 606 -8 m 481 43 q 675 78 603 43 q 795 212 747 114 q 874 501 843 310 q 894 725 894 622 q 864 881 894 826 q 776 955 833 935 q 626 975 718 975 q 433 938 507 975 q 310 799 360 901 q 231 503 261 697 q 208 283 208 361 q 237 133 208 185 q 323 62 265 81 q 481 43 381 43 m 394 1285 l 447 1285 l 579 1099 l 546 1099 l 394 1285 m 572 1285 l 625 1285 l 757 1099 l 724 1099 l 572 1285 z "},"Ö":{"ha":946,"x_min":151,"x_max":953,"o":"m 468 -8 q 292 15 360 -8 q 188 102 224 39 q 151 282 151 165 q 174 515 151 381 q 264 832 207 722 q 408 984 321 942 q 636 1026 496 1026 q 809 1000 740 1026 q 915 907 878 974 q 953 724 953 840 q 931 489 953 624 q 840 177 899 285 q 694 31 782 69 q 468 -8 606 -8 m 481 43 q 675 78 603 43 q 795 212 747 114 q 874 501 843 310 q 894 725 894 622 q 864 881 894 826 q 776 955 833 935 q 626 975 718 975 q 433 938 507 975 q 310 799 360 901 q 231 503 261 697 q 208 283 208 361 q 237 133 208 185 q 323 62 265 81 q 481 43 381 43 m 472 1142 q 457 1157 457 1142 l 472 1253 q 494 1271 474 1271 l 521 1271 q 536 1257 536 1271 q 519 1160 536 1263 q 512 1147 518 1151 q 499 1142 506 1142 l 472 1142 m 760 1142 q 744 1157 744 1142 l 760 1253 q 782 1271 761 1271 l 808 1271 q 824 1257 824 1271 q 807 1160 824 1263 q 799 1147 806 1151 q 786 1142 793 1142 l 760 1142 z "},"Ȫ":{"ha":946,"x_min":151,"x_max":953,"o":"m 468 -8 q 292 15 360 -8 q 188 102 224 39 q 151 282 151 165 q 174 515 151 381 q 264 832 207 722 q 408 984 321 942 q 636 1026 496 1026 q 809 1000 740 1026 q 915 907 878 974 q 953 724 953 840 q 931 489 953 624 q 840 177 899 285 q 694 31 782 69 q 468 -8 606 -8 m 481 43 q 675 78 603 43 q 795 212 747 114 q 874 501 843 310 q 894 725 894 622 q 864 881 894 826 q 776 955 833 935 q 626 975 718 975 q 433 938 507 975 q 310 799 360 901 q 231 503 261 697 q 208 283 208 361 q 237 133 208 185 q 323 62 265 81 q 481 43 381 43 m 485 1142 q 469 1157 469 1142 l 485 1253 q 507 1271 486 1271 l 533 1271 q 549 1257 549 1271 q 532 1160 549 1263 q 524 1147 531 1151 q 511 1142 518 1142 l 485 1142 m 772 1142 q 757 1157 757 1142 l 772 1253 q 794 1271 774 1271 l 821 1271 q 836 1257 836 1271 q 819 1160 836 1263 q 812 1147 818 1151 q 799 1142 806 1142 l 772 1142 m 501 1397 l 857 1397 l 850 1363 l 494 1363 l 501 1397 z "},"Ȱ":{"ha":946,"x_min":151,"x_max":953,"o":"m 468 -8 q 292 15 360 -8 q 188 102 224 39 q 151 282 151 165 q 174 515 151 381 q 264 832 207 722 q 408 984 321 942 q 636 1026 496 1026 q 809 1000 740 1026 q 915 907 878 974 q 953 724 953 840 q 931 489 953 624 q 840 177 899 285 q 694 31 782 69 q 468 -8 606 -8 m 481 43 q 675 78 603 43 q 795 212 747 114 q 874 501 843 310 q 894 725 894 622 q 864 881 894 826 q 776 955 833 935 q 626 975 718 975 q 433 938 507 975 q 310 799 360 901 q 231 503 261 697 q 208 283 208 361 q 237 133 208 185 q 323 62 265 81 q 481 43 381 43 m 643 1151 q 632 1156 636 1151 q 628 1167 628 1160 l 628 1169 l 643 1263 q 664 1281 644 1281 l 690 1281 q 706 1267 706 1281 l 706 1263 l 690 1169 q 683 1156 689 1161 q 669 1151 678 1151 l 643 1151 m 515 1424 l 871 1424 l 864 1389 l 508 1389 l 515 1424 z "},"Ọ":{"ha":946,"x_min":151,"x_max":953,"o":"m 468 -8 q 292 15 360 -8 q 188 102 224 39 q 151 282 151 165 q 174 515 151 381 q 264 832 207 722 q 408 984 321 942 q 636 1026 496 1026 q 809 1000 740 1026 q 915 907 878 974 q 953 724 953 840 q 931 489 953 624 q 840 177 899 285 q 694 31 782 69 q 468 -8 606 -8 m 481 43 q 675 78 603 43 q 795 212 747 114 q 874 501 843 310 q 894 725 894 622 q 864 881 894 826 q 776 955 833 935 q 626 975 718 975 q 433 938 507 975 q 310 799 360 901 q 231 503 261 697 q 208 283 208 361 q 237 133 208 185 q 323 62 265 81 q 481 43 381 43 m 407 -279 q 396 -275 400 -279 q 392 -264 392 -271 l 392 -261 l 407 -168 q 428 -150 408 -150 l 454 -150 q 469 -164 469 -150 l 469 -168 l 454 -261 q 447 -274 453 -269 q 433 -279 442 -279 l 407 -279 z "},"Ò":{"ha":946,"x_min":151,"x_max":953,"o":"m 468 -8 q 292 15 360 -8 q 188 102 224 39 q 151 282 151 165 q 174 515 151 381 q 264 832 207 722 q 408 984 321 942 q 636 1026 496 1026 q 809 1000 740 1026 q 915 907 878 974 q 953 724 953 840 q 931 489 953 624 q 840 177 899 285 q 694 31 782 69 q 468 -8 606 -8 m 481 43 q 675 78 603 43 q 795 212 747 114 q 874 501 843 310 q 894 725 894 622 q 864 881 894 826 q 776 955 833 935 q 626 975 718 975 q 433 938 507 975 q 310 799 360 901 q 231 503 261 697 q 208 283 208 361 q 237 133 208 185 q 323 62 265 81 q 481 43 381 43 m 510 1285 l 563 1285 l 694 1099 l 661 1099 l 510 1285 z "},"Ỏ":{"ha":946,"x_min":151,"x_max":953,"o":"m 468 -8 q 292 15 360 -8 q 188 102 224 39 q 151 282 151 165 q 174 515 151 381 q 264 832 207 722 q 408 984 321 942 q 636 1026 496 1026 q 809 1000 740 1026 q 915 907 878 974 q 953 724 953 840 q 931 489 953 624 q 840 177 899 285 q 694 31 782 69 q 468 -8 606 -8 m 481 43 q 675 78 603 43 q 795 212 747 114 q 874 501 843 310 q 894 725 894 622 q 864 881 894 826 q 776 955 833 935 q 626 975 718 975 q 433 938 507 975 q 310 799 360 901 q 231 503 261 697 q 208 283 208 361 q 237 133 208 185 q 323 62 265 81 q 481 43 381 43 m 601 1110 q 708 1225 708 1142 q 643 1281 708 1281 q 589 1272 615 1281 l 593 1300 q 656 1308 619 1308 q 743 1229 743 1308 q 708 1140 743 1179 q 596 1081 672 1101 l 601 1110 z "},"Ơ":{"ha":946,"x_min":151,"x_max":1047,"o":"m 1047 1178 q 979 1028 1031 1072 q 861 983 928 983 l 843 983 q 925 888 897 950 q 953 724 953 825 q 931 489 953 624 q 840 177 899 285 q 694 31 782 69 q 468 -8 606 -8 q 292 15 360 -8 q 188 102 224 39 q 151 282 151 165 q 174 515 151 381 q 264 832 207 722 q 408 984 321 942 q 636 1026 496 1026 q 744 1018 694 1026 l 863 1018 q 1001 1178 975 1018 l 1047 1178 m 894 725 q 864 881 894 826 q 776 955 833 935 q 626 975 718 975 q 433 938 507 975 q 310 799 360 901 q 231 503 261 697 q 208 283 208 361 q 237 133 208 185 q 323 62 265 81 q 481 43 381 43 q 675 78 603 43 q 795 212 747 114 q 874 501 843 310 q 894 725 894 622 z "},"Ớ":{"ha":946,"x_min":151,"x_max":1047,"o":"m 1047 1178 q 979 1028 1031 1072 q 861 983 928 983 l 843 983 q 925 888 897 950 q 953 724 953 825 q 931 489 953 624 q 840 177 899 285 q 694 31 782 69 q 468 -8 606 -8 q 292 15 360 -8 q 188 102 224 39 q 151 282 151 165 q 174 515 151 381 q 264 832 207 722 q 408 984 321 942 q 636 1026 496 1026 q 744 1018 694 1026 l 863 1018 q 1001 1178 975 1018 l 1047 1178 m 894 725 q 864 881 894 826 q 776 955 833 935 q 626 975 718 975 q 433 938 507 975 q 310 799 360 901 q 231 503 261 697 q 208 283 208 361 q 237 133 208 185 q 323 62 265 81 q 481 43 381 43 q 675 78 603 43 q 795 212 747 114 q 874 501 843 310 q 894 725 894 622 m 796 1285 l 851 1285 l 642 1099 l 607 1099 l 796 1285 z "},"Ợ":{"ha":946,"x_min":151,"x_max":1047,"o":"m 1047 1178 q 979 1028 1031 1072 q 861 983 928 983 l 843 983 q 925 888 897 950 q 953 724 953 825 q 931 489 953 624 q 840 177 899 285 q 694 31 782 69 q 468 -8 606 -8 q 292 15 360 -8 q 188 102 224 39 q 151 282 151 165 q 174 515 151 381 q 264 832 207 722 q 408 984 321 942 q 636 1026 496 1026 q 744 1018 694 1026 l 863 1018 q 1001 1178 975 1018 l 1047 1178 m 894 725 q 864 881 894 826 q 776 955 833 935 q 626 975 718 975 q 433 938 507 975 q 310 799 360 901 q 231 503 261 697 q 208 283 208 361 q 237 133 208 185 q 323 62 265 81 q 481 43 381 43 q 675 78 603 43 q 795 212 747 114 q 874 501 843 310 q 894 725 894 622 m 393 -279 q 382 -275 386 -279 q 378 -264 378 -271 l 378 -261 l 393 -168 q 414 -150 394 -150 l 440 -150 q 456 -164 456 -150 l 456 -168 l 440 -261 q 433 -274 439 -269 q 419 -279 428 -279 l 393 -279 z "},"Ờ":{"ha":946,"x_min":151,"x_max":1047,"o":"m 1047 1178 q 979 1028 1031 1072 q 861 983 928 983 l 843 983 q 925 888 897 950 q 953 724 953 825 q 931 489 953 624 q 840 177 899 285 q 694 31 782 69 q 468 -8 606 -8 q 292 15 360 -8 q 188 102 224 39 q 151 282 151 165 q 174 515 151 381 q 264 832 207 722 q 408 984 321 942 q 636 1026 496 1026 q 744 1018 694 1026 l 863 1018 q 1001 1178 975 1018 l 1047 1178 m 894 725 q 864 881 894 826 q 776 955 833 935 q 626 975 718 975 q 433 938 507 975 q 310 799 360 901 q 231 503 261 697 q 208 283 208 361 q 237 133 208 185 q 323 62 265 81 q 481 43 381 43 q 675 78 603 43 q 795 212 747 114 q 874 501 843 310 q 894 725 894 622 m 501 1285 l 554 1285 l 686 1099 l 653 1099 l 501 1285 z "},"Ở":{"ha":946,"x_min":151,"x_max":1047,"o":"m 1047 1178 q 979 1028 1031 1072 q 861 983 928 983 l 843 983 q 925 888 897 950 q 953 724 953 825 q 931 489 953 624 q 840 177 899 285 q 694 31 782 69 q 468 -8 606 -8 q 292 15 360 -8 q 188 102 224 39 q 151 282 151 165 q 174 515 151 381 q 264 832 207 722 q 408 984 321 942 q 636 1026 496 1026 q 744 1018 694 1026 l 863 1018 q 1001 1178 975 1018 l 1047 1178 m 894 725 q 864 881 894 826 q 776 955 833 935 q 626 975 718 975 q 433 938 507 975 q 310 799 360 901 q 231 503 261 697 q 208 283 208 361 q 237 133 208 185 q 323 62 265 81 q 481 43 381 43 q 675 78 603 43 q 795 212 747 114 q 874 501 843 310 q 894 725 894 622 m 593 1110 q 700 1225 700 1142 q 635 1281 700 1281 q 581 1272 607 1281 l 585 1300 q 647 1308 611 1308 q 735 1229 735 1308 q 699 1140 735 1179 q 588 1081 664 1101 l 593 1110 z "},"Ỡ":{"ha":946,"x_min":151,"x_max":1047,"o":"m 1047 1178 q 979 1028 1031 1072 q 861 983 928 983 l 843 983 q 925 888 897 950 q 953 724 953 825 q 931 489 953 624 q 840 177 899 285 q 694 31 782 69 q 468 -8 606 -8 q 292 15 360 -8 q 188 102 224 39 q 151 282 151 165 q 174 515 151 381 q 264 832 207 722 q 408 984 321 942 q 636 1026 496 1026 q 744 1018 694 1026 l 863 1018 q 1001 1178 975 1018 l 1047 1178 m 894 725 q 864 881 894 826 q 776 955 833 935 q 626 975 718 975 q 433 938 507 975 q 310 799 360 901 q 231 503 261 697 q 208 283 208 361 q 237 133 208 185 q 323 62 265 81 q 481 43 381 43 q 675 78 603 43 q 795 212 747 114 q 874 501 843 310 q 894 725 894 622 m 440 1135 q 492 1234 451 1203 q 586 1265 533 1265 q 638 1253 614 1265 q 699 1217 663 1242 q 751 1182 729 1193 q 799 1171 774 1171 q 869 1196 840 1171 q 907 1267 899 1221 l 938 1267 q 890 1171 926 1206 q 793 1136 853 1136 q 742 1148 767 1136 q 688 1183 718 1160 q 631 1219 654 1207 q 579 1231 607 1231 q 508 1206 539 1231 q 471 1135 478 1182 l 440 1135 z "},"Ő":{"ha":946,"x_min":151,"x_max":953,"o":"m 468 -8 q 292 15 360 -8 q 188 102 224 39 q 151 282 151 165 q 174 515 151 381 q 264 832 207 722 q 408 984 321 942 q 636 1026 496 1026 q 809 1000 740 1026 q 915 907 878 974 q 953 724 953 840 q 931 489 953 624 q 840 177 899 285 q 694 31 782 69 q 468 -8 606 -8 m 481 43 q 675 78 603 43 q 795 212 747 114 q 874 501 843 310 q 894 725 894 622 q 864 881 894 826 q 776 955 833 935 q 626 975 718 975 q 433 938 507 975 q 310 799 360 901 q 231 503 261 697 q 208 283 208 361 q 237 133 208 185 q 323 62 265 81 q 481 43 381 43 m 692 1285 l 744 1285 l 536 1099 l 503 1099 l 692 1285 m 890 1285 l 943 1285 l 735 1099 l 701 1099 l 890 1285 z "},"Ȏ":{"ha":946,"x_min":151,"x_max":953,"o":"m 468 -8 q 292 15 360 -8 q 188 102 224 39 q 151 282 151 165 q 174 515 151 381 q 264 832 207 722 q 408 984 321 942 q 636 1026 496 1026 q 809 1000 740 1026 q 915 907 878 974 q 953 724 953 840 q 931 489 953 624 q 840 177 899 285 q 694 31 782 69 q 468 -8 606 -8 m 481 43 q 675 78 603 43 q 795 212 747 114 q 874 501 843 310 q 894 725 894 622 q 864 881 894 826 q 776 955 833 935 q 626 975 718 975 q 433 938 507 975 q 310 799 360 901 q 231 503 261 697 q 208 283 208 361 q 237 133 208 185 q 323 62 265 81 q 481 43 381 43 m 471 1100 q 544 1247 488 1204 q 678 1289 600 1289 q 785 1256 743 1289 q 826 1147 826 1222 q 824 1100 826 1133 l 793 1100 q 796 1140 796 1131 q 763 1231 796 1201 q 674 1260 729 1260 q 562 1222 610 1260 q 500 1100 514 1183 l 471 1100 z "},"Ō":{"ha":946,"x_min":151,"x_max":953,"o":"m 468 -8 q 292 15 360 -8 q 188 102 224 39 q 151 282 151 165 q 174 515 151 381 q 264 832 207 722 q 408 984 321 942 q 636 1026 496 1026 q 809 1000 740 1026 q 915 907 878 974 q 953 724 953 840 q 931 489 953 624 q 840 177 899 285 q 694 31 782 69 q 468 -8 606 -8 m 481 43 q 675 78 603 43 q 795 212 747 114 q 874 501 843 310 q 894 725 894 622 q 864 881 894 826 q 776 955 833 935 q 626 975 718 975 q 433 938 507 975 q 310 799 360 901 q 231 503 261 697 q 208 283 208 361 q 237 133 208 185 q 323 62 265 81 q 481 43 381 43 m 486 1208 l 842 1208 l 835 1174 l 479 1174 l 486 1208 z "},"Ṓ":{"ha":946,"x_min":151,"x_max":953,"o":"m 468 -8 q 292 15 360 -8 q 188 102 224 39 q 151 282 151 165 q 174 515 151 381 q 264 832 207 722 q 408 984 321 942 q 636 1026 496 1026 q 809 1000 740 1026 q 915 907 878 974 q 953 724 953 840 q 931 489 953 624 q 840 177 899 285 q 694 31 782 69 q 468 -8 606 -8 m 481 43 q 675 78 603 43 q 795 212 747 114 q 874 501 843 310 q 894 725 894 622 q 864 881 894 826 q 776 955 833 935 q 626 975 718 975 q 433 938 507 975 q 310 799 360 901 q 231 503 261 697 q 208 283 208 361 q 237 133 208 185 q 323 62 265 81 q 481 43 381 43 m 486 1208 l 842 1208 l 835 1174 l 479 1174 l 486 1208 m 832 1457 l 888 1457 l 678 1271 l 643 1271 l 832 1457 z "},"Ṑ":{"ha":946,"x_min":151,"x_max":953,"o":"m 468 -8 q 292 15 360 -8 q 188 102 224 39 q 151 282 151 165 q 174 515 151 381 q 264 832 207 722 q 408 984 321 942 q 636 1026 496 1026 q 809 1000 740 1026 q 915 907 878 974 q 953 724 953 840 q 931 489 953 624 q 840 177 899 285 q 694 31 782 69 q 468 -8 606 -8 m 481 43 q 675 78 603 43 q 795 212 747 114 q 874 501 843 310 q 894 725 894 622 q 864 881 894 826 q 776 955 833 935 q 626 975 718 975 q 433 938 507 975 q 310 799 360 901 q 231 503 261 697 q 208 283 208 361 q 237 133 208 185 q 323 62 265 81 q 481 43 381 43 m 486 1208 l 842 1208 l 835 1174 l 479 1174 l 486 1208 m 508 1457 l 561 1457 l 693 1271 l 660 1271 l 508 1457 z "},"Ǫ":{"ha":946,"x_min":151,"x_max":953,"o":"m 636 1026 q 809 1000 740 1026 q 915 907 878 974 q 953 724 953 840 q 931 489 953 624 q 858 217 903 318 q 749 65 814 115 q 590 0 685 15 q 501 -68 533 -28 q 469 -140 469 -108 q 500 -201 469 -179 q 589 -222 531 -222 l 597 -222 l 592 -253 q 560 -254 581 -254 q 467 -227 501 -254 q 432 -153 432 -200 q 462 -74 432 -115 q 556 -4 492 -33 q 468 -8 514 -8 q 292 15 360 -8 q 188 102 224 39 q 151 282 151 165 q 174 515 151 381 q 264 832 207 722 q 408 984 321 942 q 636 1026 496 1026 m 874 501 q 894 725 894 622 q 864 881 894 826 q 776 955 833 935 q 626 975 718 975 q 433 938 507 975 q 310 799 360 901 q 231 503 261 697 q 208 283 208 361 q 237 133 208 185 q 323 62 265 81 q 481 43 381 43 q 675 78 603 43 q 795 212 747 114 q 874 501 843 310 z "},"Ø":{"ha":946,"x_min":86,"x_max":1021,"o":"m 918 901 q 953 724 953 832 q 931 489 953 624 q 840 177 899 285 q 694 31 782 69 q 468 -8 606 -8 q 304 11 369 -8 q 201 81 239 31 l 132 0 l 86 0 l 183 111 q 151 282 151 175 q 174 515 151 381 q 264 832 207 722 q 408 984 321 942 q 636 1026 496 1026 q 797 1005 732 1026 q 900 932 861 983 l 975 1018 l 1021 1018 l 918 901 m 208 283 q 225 160 208 208 l 860 888 q 774 956 831 938 q 626 975 717 975 q 433 938 507 975 q 310 799 360 901 q 231 503 261 697 q 208 283 208 361 m 894 725 q 876 853 894 804 l 242 125 q 327 60 271 78 q 481 43 383 43 q 675 78 603 43 q 795 212 747 114 q 874 501 843 310 q 894 725 894 622 z "},"Ǿ":{"ha":946,"x_min":86,"x_max":1021,"o":"m 918 901 q 953 724 953 832 q 931 489 953 624 q 840 177 899 285 q 694 31 782 69 q 468 -8 606 -8 q 304 11 369 -8 q 201 81 239 31 l 132 0 l 86 0 l 183 111 q 151 282 151 175 q 174 515 151 381 q 264 832 207 722 q 408 984 321 942 q 636 1026 496 1026 q 797 1005 732 1026 q 900 932 861 983 l 975 1018 l 1021 1018 l 918 901 m 208 283 q 225 160 208 208 l 860 888 q 774 956 831 938 q 626 975 717 975 q 433 938 507 975 q 310 799 360 901 q 231 503 261 697 q 208 283 208 361 m 894 725 q 876 853 894 804 l 242 125 q 327 60 271 78 q 481 43 383 43 q 675 78 603 43 q 795 212 747 114 q 874 501 843 310 q 894 725 894 622 m 799 1285 l 854 1285 l 644 1099 l 610 1099 l 799 1285 z "},"Õ":{"ha":946,"x_min":151,"x_max":953,"o":"m 468 -8 q 292 15 360 -8 q 188 102 224 39 q 151 282 151 165 q 174 515 151 381 q 264 832 207 722 q 408 984 321 942 q 636 1026 496 1026 q 809 1000 740 1026 q 915 907 878 974 q 953 724 953 840 q 931 489 953 624 q 840 177 899 285 q 694 31 782 69 q 468 -8 606 -8 m 481 43 q 675 78 603 43 q 795 212 747 114 q 874 501 843 310 q 894 725 894 622 q 864 881 894 826 q 776 955 833 935 q 626 975 718 975 q 433 938 507 975 q 310 799 360 901 q 231 503 261 697 q 208 283 208 361 q 237 133 208 185 q 323 62 265 81 q 481 43 381 43 m 449 1135 q 501 1234 460 1203 q 594 1265 542 1265 q 647 1253 622 1265 q 707 1217 671 1242 q 760 1182 738 1193 q 807 1171 782 1171 q 878 1196 849 1171 q 915 1267 907 1221 l 946 1267 q 898 1171 935 1206 q 801 1136 861 1136 q 751 1148 775 1136 q 696 1183 726 1160 q 639 1219 663 1207 q 588 1231 615 1231 q 517 1206 547 1231 q 479 1135 486 1182 l 449 1135 z "},"Ṍ":{"ha":946,"x_min":151,"x_max":953,"o":"m 468 -8 q 292 15 360 -8 q 188 102 224 39 q 151 282 151 165 q 174 515 151 381 q 264 832 207 722 q 408 984 321 942 q 636 1026 496 1026 q 809 1000 740 1026 q 915 907 878 974 q 953 724 953 840 q 931 489 953 624 q 840 177 899 285 q 694 31 782 69 q 468 -8 606 -8 m 481 43 q 675 78 603 43 q 795 212 747 114 q 874 501 843 310 q 894 725 894 622 q 864 881 894 826 q 776 955 833 935 q 626 975 718 975 q 433 938 507 975 q 310 799 360 901 q 231 503 261 697 q 208 283 208 361 q 237 133 208 185 q 323 62 265 81 q 481 43 381 43 m 449 1135 q 501 1234 460 1203 q 594 1265 542 1265 q 647 1253 622 1265 q 707 1217 671 1242 q 760 1182 738 1193 q 807 1171 782 1171 q 878 1196 849 1171 q 915 1267 907 1221 l 946 1267 q 898 1171 935 1206 q 801 1136 861 1136 q 751 1148 775 1136 q 696 1183 726 1160 q 639 1219 663 1207 q 588 1231 615 1231 q 517 1206 547 1231 q 479 1135 486 1182 l 449 1135 m 844 1508 l 900 1508 l 690 1322 l 656 1322 l 844 1508 z "},"Ṏ":{"ha":946,"x_min":151,"x_max":953,"o":"m 468 -8 q 292 15 360 -8 q 188 102 224 39 q 151 282 151 165 q 174 515 151 381 q 264 832 207 722 q 408 984 321 942 q 636 1026 496 1026 q 809 1000 740 1026 q 915 907 878 974 q 953 724 953 840 q 931 489 953 624 q 840 177 899 285 q 694 31 782 69 q 468 -8 606 -8 m 481 43 q 675 78 603 43 q 795 212 747 114 q 874 501 843 310 q 894 725 894 622 q 864 881 894 826 q 776 955 833 935 q 626 975 718 975 q 433 938 507 975 q 310 799 360 901 q 231 503 261 697 q 208 283 208 361 q 237 133 208 185 q 323 62 265 81 q 481 43 381 43 m 424 1135 q 476 1234 435 1203 q 569 1265 517 1265 q 622 1253 597 1265 q 682 1217 646 1242 q 735 1182 713 1193 q 782 1171 757 1171 q 853 1196 824 1171 q 890 1267 882 1221 l 921 1267 q 873 1171 910 1206 q 776 1136 836 1136 q 726 1148 750 1136 q 671 1183 701 1160 q 614 1219 638 1207 q 563 1231 590 1231 q 492 1206 522 1231 q 454 1135 461 1182 l 424 1135 m 525 1342 q 510 1357 510 1342 l 525 1453 q 547 1471 526 1471 l 574 1471 q 589 1457 589 1471 q 572 1360 589 1463 q 565 1347 571 1351 q 551 1342 558 1342 l 525 1342 m 813 1342 q 797 1357 797 1342 l 813 1453 q 835 1471 814 1471 l 861 1471 q 876 1457 876 1471 q 860 1360 876 1463 q 852 1347 858 1351 q 839 1342 846 1342 l 813 1342 z "},"Ȭ":{"ha":946,"x_min":151,"x_max":953,"o":"m 468 -8 q 292 15 360 -8 q 188 102 224 39 q 151 282 151 165 q 174 515 151 381 q 264 832 207 722 q 408 984 321 942 q 636 1026 496 1026 q 809 1000 740 1026 q 915 907 878 974 q 953 724 953 840 q 931 489 953 624 q 840 177 899 285 q 694 31 782 69 q 468 -8 606 -8 m 481 43 q 675 78 603 43 q 795 212 747 114 q 874 501 843 310 q 894 725 894 622 q 864 881 894 826 q 776 955 833 935 q 626 975 718 975 q 433 938 507 975 q 310 799 360 901 q 231 503 261 697 q 208 283 208 361 q 237 133 208 185 q 323 62 265 81 q 481 43 381 43 m 501 1394 l 857 1394 l 850 1360 l 494 1360 l 501 1394 m 424 1135 q 476 1234 435 1203 q 569 1265 517 1265 q 622 1253 597 1265 q 682 1217 646 1242 q 735 1182 713 1193 q 782 1171 757 1171 q 853 1196 824 1171 q 890 1267 882 1221 l 921 1267 q 873 1171 910 1206 q 776 1136 836 1136 q 726 1148 750 1136 q 671 1183 701 1160 q 614 1219 638 1207 q 563 1231 590 1231 q 492 1206 522 1231 q 454 1135 461 1182 l 424 1135 z "},"Œ":{"ha":1479,"x_min":151,"x_max":1556,"o":"m 1142 965 q 1035 933 1075 965 q 983 824 996 900 l 938 533 l 1421 524 l 1414 482 l 929 479 l 883 186 q 881 146 881 171 q 913 66 881 88 q 1010 44 946 44 l 1404 44 l 1397 1 q 994 -8 1264 -3 q 868 24 918 -10 q 821 146 818 58 q 681 25 764 58 q 468 -8 597 -8 q 292 15 360 -8 q 188 102 224 39 q 151 282 151 165 q 174 515 151 381 q 264 832 207 722 q 408 984 321 942 q 636 1026 496 1026 q 832 990 758 1026 q 935 863 906 954 q 1010 982 956 946 q 1136 1018 1064 1018 q 1324 1015 1219 1018 q 1469 1011 1428 1013 l 1556 1008 l 1547 965 l 1142 965 m 481 43 q 675 78 603 43 q 795 212 747 114 q 874 501 843 310 q 894 725 894 622 q 864 881 894 826 q 776 955 833 935 q 626 975 718 975 q 433 938 507 975 q 310 799 360 901 q 231 503 261 697 q 208 283 208 361 q 237 133 208 185 q 323 62 265 81 q 481 43 381 43 z "},"P":{"ha":825,"x_min":108,"x_max":860,"o":"m 269 1018 l 644 1018 q 860 807 860 1018 q 850 714 860 765 q 540 407 803 407 q 231 418 422 407 l 165 0 l 108 0 l 269 1018 m 539 458 q 794 717 753 458 q 801 803 801 763 q 759 928 801 890 q 633 967 717 967 l 317 967 l 236 458 l 539 458 z "},"Ṗ":{"ha":825,"x_min":108,"x_max":860,"o":"m 269 1018 l 644 1018 q 860 807 860 1018 q 850 714 860 765 q 540 407 803 407 q 231 418 422 407 l 165 0 l 108 0 l 269 1018 m 539 458 q 794 717 753 458 q 801 803 801 763 q 759 928 801 890 q 633 967 717 967 l 317 967 l 236 458 l 539 458 m 544 1151 q 533 1156 538 1151 q 529 1167 529 1160 l 529 1169 l 544 1263 q 565 1281 546 1281 l 592 1281 q 607 1267 607 1281 l 607 1263 l 592 1169 q 585 1156 590 1161 q 571 1151 579 1151 l 544 1151 z "},"Þ":{"ha":750,"x_min":108,"x_max":753,"o":"m 524 815 q 753 606 753 815 q 743 513 753 564 q 433 246 703 246 q 349 247 385 246 q 288 250 313 249 l 206 254 l 165 0 l 108 0 l 269 1018 l 324 1018 l 292 815 l 524 815 m 688 515 q 694 601 694 561 q 649 725 694 688 q 513 763 603 763 l 283 763 l 211 297 l 432 297 q 688 515 651 297 z "},"Q":{"ha":946,"x_min":151,"x_max":953,"o":"m 468 -8 q 292 15 360 -8 q 188 102 224 39 q 151 282 151 165 q 174 515 151 381 q 264 832 207 722 q 408 984 321 942 q 636 1026 496 1026 q 809 1000 740 1026 q 915 907 878 974 q 953 724 953 840 q 931 489 953 624 q 840 177 899 285 q 694 31 782 69 q 468 -8 606 -8 m 481 43 q 675 78 603 43 q 795 212 747 114 q 874 501 843 310 q 894 725 894 622 q 864 881 894 826 q 776 955 833 935 q 626 975 718 975 q 433 938 507 975 q 310 799 360 901 q 231 503 261 697 q 208 283 208 361 q 237 133 208 185 q 323 62 265 81 q 481 43 381 43 m 672 -218 q 537 -176 588 -218 q 482 -47 486 -135 l 521 -47 q 571 -143 533 -114 q 674 -172 608 -172 q 767 -157 724 -172 l 760 -204 q 672 -218 714 -218 z "},"R":{"ha":844,"x_min":108,"x_max":858,"o":"m 269 1018 l 629 1018 q 792 969 725 1018 q 858 794 858 921 q 851 715 858 764 q 760 511 828 567 q 607 447 692 456 l 754 0 l 697 0 l 551 442 l 519 442 q 373 445 468 443 q 235 450 278 447 l 165 0 l 108 0 l 269 1018 m 556 490 q 710 538 649 490 q 793 721 772 586 q 799 789 799 754 q 619 967 799 967 l 317 967 l 243 490 l 556 490 z "},"Ŕ":{"ha":844,"x_min":108,"x_max":858,"o":"m 269 1018 l 629 1018 q 792 969 725 1018 q 858 794 858 921 q 851 715 858 764 q 760 511 828 567 q 607 447 692 456 l 754 0 l 697 0 l 551 442 l 519 442 q 373 445 468 443 q 235 450 278 447 l 165 0 l 108 0 l 269 1018 m 556 490 q 710 538 649 490 q 793 721 772 586 q 799 789 799 754 q 619 967 799 967 l 317 967 l 243 490 l 556 490 m 694 1285 l 750 1285 l 540 1099 l 506 1099 l 694 1285 z "},"Ř":{"ha":844,"x_min":108,"x_max":858,"o":"m 269 1018 l 629 1018 q 792 969 725 1018 q 858 794 858 921 q 851 715 858 764 q 760 511 828 567 q 607 447 692 456 l 754 0 l 697 0 l 551 442 l 519 442 q 373 445 468 443 q 235 450 278 447 l 165 0 l 108 0 l 269 1018 m 556 490 q 710 538 649 490 q 793 721 772 586 q 799 789 799 754 q 619 967 799 967 l 317 967 l 243 490 l 556 490 m 404 1282 l 443 1282 l 564 1129 l 751 1282 l 789 1282 l 581 1099 l 538 1099 l 404 1282 z "},"Ŗ":{"ha":844,"x_min":108,"x_max":858,"o":"m 269 1018 l 629 1018 q 792 969 725 1018 q 858 794 858 921 q 851 715 858 764 q 760 511 828 567 q 607 447 692 456 l 754 0 l 697 0 l 551 442 l 519 442 q 373 445 468 443 q 235 450 278 447 l 165 0 l 108 0 l 269 1018 m 556 490 q 710 538 649 490 q 793 721 772 586 q 799 789 799 754 q 619 967 799 967 l 317 967 l 243 490 l 556 490 m 254 -247 l 297 -242 q 363 -225 339 -236 q 405 -180 388 -214 q 432 -79 422 -146 l 469 -79 q 440 -193 458 -153 q 387 -251 421 -233 q 292 -269 353 -269 l 250 -269 l 254 -247 z "},"Ȑ":{"ha":844,"x_min":108,"x_max":858,"o":"m 269 1018 l 629 1018 q 792 969 725 1018 q 858 794 858 921 q 851 715 858 764 q 760 511 828 567 q 607 447 692 456 l 754 0 l 697 0 l 551 442 l 519 442 q 373 445 468 443 q 235 450 278 447 l 165 0 l 108 0 l 269 1018 m 556 490 q 710 538 649 490 q 793 721 772 586 q 799 789 799 754 q 619 967 799 967 l 317 967 l 243 490 l 556 490 m 285 1285 l 338 1285 l 469 1099 l 436 1099 l 285 1285 m 463 1285 l 515 1285 l 647 1099 l 614 1099 l 463 1285 z "},"Ṛ":{"ha":844,"x_min":108,"x_max":858,"o":"m 269 1018 l 629 1018 q 792 969 725 1018 q 858 794 858 921 q 851 715 858 764 q 760 511 828 567 q 607 447 692 456 l 754 0 l 697 0 l 551 442 l 519 442 q 373 445 468 443 q 235 450 278 447 l 165 0 l 108 0 l 269 1018 m 556 490 q 710 538 649 490 q 793 721 772 586 q 799 789 799 754 q 619 967 799 967 l 317 967 l 243 490 l 556 490 m 351 -279 q 340 -275 344 -279 q 336 -264 336 -271 l 336 -261 l 351 -168 q 372 -150 353 -150 l 399 -150 q 414 -164 414 -150 l 414 -168 l 399 -261 q 392 -274 397 -269 q 378 -279 386 -279 l 351 -279 z "},"Ȓ":{"ha":844,"x_min":108,"x_max":858,"o":"m 269 1018 l 629 1018 q 792 969 725 1018 q 858 794 858 921 q 851 715 858 764 q 760 511 828 567 q 607 447 692 456 l 754 0 l 697 0 l 551 442 l 519 442 q 373 445 468 443 q 235 450 278 447 l 165 0 l 108 0 l 269 1018 m 556 490 q 710 538 649 490 q 793 721 772 586 q 799 789 799 754 q 619 967 799 967 l 317 967 l 243 490 l 556 490 m 361 1100 q 434 1247 378 1204 q 568 1289 490 1289 q 675 1256 633 1289 q 717 1147 717 1222 q 714 1100 717 1133 l 683 1100 q 686 1140 686 1131 q 653 1231 686 1201 q 564 1260 619 1260 q 452 1222 500 1260 q 390 1100 404 1183 l 361 1100 z "},"Ṟ":{"ha":844,"x_min":108,"x_max":858,"o":"m 269 1018 l 629 1018 q 792 969 725 1018 q 858 794 858 921 q 851 715 858 764 q 760 511 828 567 q 607 447 692 456 l 754 0 l 697 0 l 551 442 l 519 442 q 373 445 468 443 q 235 450 278 447 l 165 0 l 108 0 l 269 1018 m 556 490 q 710 538 649 490 q 793 721 772 586 q 799 789 799 754 q 619 967 799 967 l 317 967 l 243 490 l 556 490 m 214 -208 l 569 -208 l 563 -243 l 207 -243 l 214 -208 z "},"S":{"ha":786,"x_min":107,"x_max":825,"o":"m 414 -8 q 249 -3 338 -8 q 107 11 161 3 l 113 53 q 419 43 218 43 q 608 82 540 43 q 692 228 676 121 l 706 311 q 708 360 708 347 q 670 455 708 425 q 547 485 632 485 l 403 485 q 257 522 306 485 q 208 643 208 560 q 213 696 208 667 l 226 786 q 322 976 247 925 q 532 1026 397 1026 q 678 1019 581 1026 q 825 1003 775 1011 l 819 961 q 531 972 642 972 q 403 957 453 972 q 323 901 354 942 q 281 783 292 860 l 268 700 q 264 651 264 674 q 299 565 264 589 q 411 540 333 540 l 560 540 q 765 371 765 540 q 761 315 765 344 l 747 222 q 642 42 726 92 q 414 -8 557 -8 z "},"Ś":{"ha":786,"x_min":107,"x_max":825,"o":"m 414 -8 q 249 -3 338 -8 q 107 11 161 3 l 113 53 q 419 43 218 43 q 608 82 540 43 q 692 228 676 121 l 706 311 q 708 360 708 347 q 670 455 708 425 q 547 485 632 485 l 403 485 q 257 522 306 485 q 208 643 208 560 q 213 696 208 667 l 226 786 q 322 976 247 925 q 532 1026 397 1026 q 678 1019 581 1026 q 825 1003 775 1011 l 819 961 q 531 972 642 972 q 403 957 453 972 q 323 901 354 942 q 281 783 292 860 l 268 700 q 264 651 264 674 q 299 565 264 589 q 411 540 333 540 l 560 540 q 765 371 765 540 q 761 315 765 344 l 747 222 q 642 42 726 92 q 414 -8 557 -8 m 717 1285 l 772 1285 l 563 1099 l 528 1099 l 717 1285 z "},"Ṥ":{"ha":786,"x_min":107,"x_max":825,"o":"m 414 -8 q 249 -3 338 -8 q 107 11 161 3 l 113 53 q 419 43 218 43 q 608 82 540 43 q 692 228 676 121 l 706 311 q 708 360 708 347 q 670 455 708 425 q 547 485 632 485 l 403 485 q 257 522 306 485 q 208 643 208 560 q 213 696 208 667 l 226 786 q 322 976 247 925 q 532 1026 397 1026 q 678 1019 581 1026 q 825 1003 775 1011 l 819 961 q 531 972 642 972 q 403 957 453 972 q 323 901 354 942 q 281 783 292 860 l 268 700 q 264 651 264 674 q 299 565 264 589 q 411 540 333 540 l 560 540 q 765 371 765 540 q 761 315 765 344 l 747 222 q 642 42 726 92 q 414 -8 557 -8 m 675 1285 l 731 1285 l 521 1099 l 486 1099 l 675 1285 m 626 1326 q 615 1331 619 1326 q 611 1342 611 1335 l 611 1344 l 626 1438 q 647 1456 628 1456 l 674 1456 q 689 1442 689 1456 l 689 1438 l 674 1344 q 667 1331 672 1336 q 653 1326 661 1326 l 626 1326 z "},"Š":{"ha":786,"x_min":107,"x_max":825,"o":"m 414 -8 q 249 -3 338 -8 q 107 11 161 3 l 113 53 q 419 43 218 43 q 608 82 540 43 q 692 228 676 121 l 706 311 q 708 360 708 347 q 670 455 708 425 q 547 485 632 485 l 403 485 q 257 522 306 485 q 208 643 208 560 q 213 696 208 667 l 226 786 q 322 976 247 925 q 532 1026 397 1026 q 678 1019 581 1026 q 825 1003 775 1011 l 819 961 q 531 972 642 972 q 403 957 453 972 q 323 901 354 942 q 281 783 292 860 l 268 700 q 264 651 264 674 q 299 565 264 589 q 411 540 333 540 l 560 540 q 765 371 765 540 q 761 315 765 344 l 747 222 q 642 42 726 92 q 414 -8 557 -8 m 426 1282 l 465 1282 l 586 1129 l 774 1282 l 811 1282 l 603 1099 l 560 1099 l 426 1282 z "},"Ṧ":{"ha":786,"x_min":107,"x_max":825,"o":"m 414 -8 q 249 -3 338 -8 q 107 11 161 3 l 113 53 q 419 43 218 43 q 608 82 540 43 q 692 228 676 121 l 706 311 q 708 360 708 347 q 670 455 708 425 q 547 485 632 485 l 403 485 q 257 522 306 485 q 208 643 208 560 q 213 696 208 667 l 226 786 q 322 976 247 925 q 532 1026 397 1026 q 678 1019 581 1026 q 825 1003 775 1011 l 819 961 q 531 972 642 972 q 403 957 453 972 q 323 901 354 942 q 281 783 292 860 l 268 700 q 264 651 264 674 q 299 565 264 589 q 411 540 333 540 l 560 540 q 765 371 765 540 q 761 315 765 344 l 747 222 q 642 42 726 92 q 414 -8 557 -8 m 426 1282 l 465 1282 l 586 1129 l 774 1282 l 811 1282 l 603 1099 l 560 1099 l 426 1282 m 599 1339 q 588 1343 592 1339 q 583 1354 583 1347 l 583 1357 l 599 1450 q 619 1468 600 1468 l 646 1468 q 661 1454 661 1468 l 661 1450 l 646 1357 q 639 1344 644 1349 q 625 1339 633 1339 l 599 1339 z "},"Ş":{"ha":786,"x_min":107,"x_max":825,"o":"m 268 700 q 264 651 264 674 q 299 565 264 589 q 411 540 333 540 l 560 540 q 765 371 765 540 q 761 315 765 344 l 747 222 q 642 42 726 92 q 414 -8 557 -8 l 399 -8 l 328 -92 q 400 -110 378 -93 q 422 -160 422 -128 q 406 -209 422 -183 q 356 -252 389 -235 q 281 -269 324 -269 l 247 -269 l 251 -246 l 286 -243 q 359 -211 332 -239 q 386 -160 386 -183 q 365 -121 386 -135 q 288 -106 343 -107 l 369 -8 q 107 11 186 -3 l 113 53 q 419 43 218 43 q 608 82 540 43 q 692 228 676 121 l 706 311 q 708 360 708 347 q 670 455 708 425 q 547 485 632 485 l 403 485 q 257 522 306 485 q 208 643 208 560 q 213 696 208 667 l 226 786 q 322 976 247 925 q 532 1026 397 1026 q 678 1019 581 1026 q 825 1003 775 1011 l 819 961 q 531 972 642 972 q 403 957 453 972 q 323 901 354 942 q 281 783 292 860 l 268 700 z "},"Ŝ":{"ha":786,"x_min":107,"x_max":825,"o":"m 414 -8 q 249 -3 338 -8 q 107 11 161 3 l 113 53 q 419 43 218 43 q 608 82 540 43 q 692 228 676 121 l 706 311 q 708 360 708 347 q 670 455 708 425 q 547 485 632 485 l 403 485 q 257 522 306 485 q 208 643 208 560 q 213 696 208 667 l 226 786 q 322 976 247 925 q 532 1026 397 1026 q 678 1019 581 1026 q 825 1003 775 1011 l 819 961 q 531 972 642 972 q 403 957 453 972 q 323 901 354 942 q 281 783 292 860 l 268 700 q 264 651 264 674 q 299 565 264 589 q 411 540 333 540 l 560 540 q 765 371 765 540 q 761 315 765 344 l 747 222 q 642 42 726 92 q 414 -8 557 -8 m 564 1282 l 607 1282 l 740 1099 l 703 1099 l 579 1251 l 393 1099 l 356 1099 l 564 1282 z "},"Ș":{"ha":786,"x_min":107,"x_max":825,"o":"m 414 -8 q 249 -3 338 -8 q 107 11 161 3 l 113 53 q 419 43 218 43 q 608 82 540 43 q 692 228 676 121 l 706 311 q 708 360 708 347 q 670 455 708 425 q 547 485 632 485 l 403 485 q 257 522 306 485 q 208 643 208 560 q 213 696 208 667 l 226 786 q 322 976 247 925 q 532 1026 397 1026 q 678 1019 581 1026 q 825 1003 775 1011 l 819 961 q 531 972 642 972 q 403 957 453 972 q 323 901 354 942 q 281 783 292 860 l 268 700 q 264 651 264 674 q 299 565 264 589 q 411 540 333 540 l 560 540 q 765 371 765 540 q 761 315 765 344 l 747 222 q 642 42 726 92 q 414 -8 557 -8 m 251 -247 l 294 -242 q 360 -225 336 -236 q 402 -180 385 -214 q 429 -79 419 -146 l 467 -79 q 437 -193 456 -153 q 384 -251 418 -233 q 289 -269 350 -269 l 247 -269 l 251 -247 z "},"Ṡ":{"ha":786,"x_min":107,"x_max":825,"o":"m 414 -8 q 249 -3 338 -8 q 107 11 161 3 l 113 53 q 419 43 218 43 q 608 82 540 43 q 692 228 676 121 l 706 311 q 708 360 708 347 q 670 455 708 425 q 547 485 632 485 l 403 485 q 257 522 306 485 q 208 643 208 560 q 213 696 208 667 l 226 786 q 322 976 247 925 q 532 1026 397 1026 q 678 1019 581 1026 q 825 1003 775 1011 l 819 961 q 531 972 642 972 q 403 957 453 972 q 323 901 354 942 q 281 783 292 860 l 268 700 q 264 651 264 674 q 299 565 264 589 q 411 540 333 540 l 560 540 q 765 371 765 540 q 761 315 765 344 l 747 222 q 642 42 726 92 q 414 -8 557 -8 m 556 1151 q 544 1156 549 1151 q 540 1167 540 1160 l 540 1169 l 556 1263 q 576 1281 557 1281 l 603 1281 q 618 1267 618 1281 l 618 1263 l 603 1169 q 596 1156 601 1161 q 582 1151 590 1151 l 556 1151 z "},"Ṣ":{"ha":786,"x_min":107,"x_max":825,"o":"m 414 -8 q 249 -3 338 -8 q 107 11 161 3 l 113 53 q 419 43 218 43 q 608 82 540 43 q 692 228 676 121 l 706 311 q 708 360 708 347 q 670 455 708 425 q 547 485 632 485 l 403 485 q 257 522 306 485 q 208 643 208 560 q 213 696 208 667 l 226 786 q 322 976 247 925 q 532 1026 397 1026 q 678 1019 581 1026 q 825 1003 775 1011 l 819 961 q 531 972 642 972 q 403 957 453 972 q 323 901 354 942 q 281 783 292 860 l 268 700 q 264 651 264 674 q 299 565 264 589 q 411 540 333 540 l 560 540 q 765 371 765 540 q 761 315 765 344 l 747 222 q 642 42 726 92 q 414 -8 557 -8 m 319 -279 q 308 -275 313 -279 q 304 -264 304 -271 l 304 -261 l 319 -168 q 340 -150 321 -150 l 367 -150 q 382 -164 382 -150 l 382 -168 l 367 -261 q 360 -274 365 -269 q 346 -279 354 -279 l 319 -279 z "},"Ṩ":{"ha":786,"x_min":107,"x_max":825,"o":"m 414 -8 q 249 -3 338 -8 q 107 11 161 3 l 113 53 q 419 43 218 43 q 608 82 540 43 q 692 228 676 121 l 706 311 q 708 360 708 347 q 670 455 708 425 q 547 485 632 485 l 403 485 q 257 522 306 485 q 208 643 208 560 q 213 696 208 667 l 226 786 q 322 976 247 925 q 532 1026 397 1026 q 678 1019 581 1026 q 825 1003 775 1011 l 819 961 q 531 972 642 972 q 403 957 453 972 q 323 901 354 942 q 281 783 292 860 l 268 700 q 264 651 264 674 q 299 565 264 589 q 411 540 333 540 l 560 540 q 765 371 765 540 q 761 315 765 344 l 747 222 q 642 42 726 92 q 414 -8 557 -8 m 319 -279 q 308 -275 313 -279 q 304 -264 304 -271 l 304 -261 l 319 -168 q 340 -150 321 -150 l 367 -150 q 382 -164 382 -150 l 382 -168 l 367 -261 q 360 -274 365 -269 q 346 -279 354 -279 l 319 -279 m 556 1151 q 544 1156 549 1151 q 540 1167 540 1160 l 540 1169 l 556 1263 q 576 1281 557 1281 l 603 1281 q 618 1267 618 1281 l 618 1263 l 603 1169 q 596 1156 601 1161 q 582 1151 590 1151 l 556 1151 z "},"ẞ":{"ha":892,"x_min":118,"x_max":914,"o":"m 911 989 l 896 971 l 894 967 l 893 967 l 560 557 l 513 535 l 650 535 q 802 490 751 535 q 853 363 853 444 q 835 222 853 347 q 496 -8 796 -8 q 401 -3 465 -8 q 307 8 336 3 l 314 53 q 501 43 378 43 q 689 82 617 43 q 778 225 761 121 q 794 357 794 338 q 757 451 794 419 q 638 483 719 483 l 471 483 l 478 535 l 506 535 l 825 946 l 851 967 l 463 967 q 358 931 399 967 q 306 825 317 896 l 175 0 l 118 0 l 247 825 q 322 972 264 925 q 467 1018 381 1018 q 650 1017 546 1018 q 810 1014 754 1015 q 914 1011 879 1011 l 904 989 l 911 989 z "},"Ə":{"ha":828,"x_min":149,"x_max":839,"o":"m 407 -8 q 210 58 272 -8 q 149 274 149 124 q 165 467 149 354 l 175 517 l 760 517 q 782 738 782 661 q 753 883 782 832 q 663 955 725 935 q 494 975 601 975 q 346 967 403 975 q 279 957 289 958 l 286 997 q 529 1026 414 1026 q 705 1003 639 1026 q 805 917 771 979 q 839 742 839 856 q 818 514 839 650 q 729 197 786 311 q 594 37 672 82 q 407 -8 515 -8 m 411 43 q 565 81 503 43 q 672 210 626 118 q 750 468 717 301 l 222 468 q 204 274 204 342 q 253 97 204 150 q 411 43 301 43 z "},"T":{"ha":838,"x_min":193,"x_max":944,"o":"m 536 967 l 193 967 l 201 1018 l 944 1018 l 936 967 l 593 967 l 440 0 l 383 0 l 536 967 z "},"Ŧ":{"ha":836,"x_min":193,"x_max":944,"o":"m 593 967 l 529 563 l 801 563 l 796 522 l 522 522 l 440 0 l 383 0 l 465 522 l 193 522 l 199 563 l 472 563 l 536 967 l 193 967 l 201 1018 l 944 1018 l 936 967 l 593 967 z "},"Ť":{"ha":838,"x_min":193,"x_max":944,"o":"m 536 967 l 193 967 l 201 1018 l 944 1018 l 936 967 l 593 967 l 440 0 l 383 0 l 536 967 m 442 1282 l 481 1282 l 601 1129 l 789 1282 l 826 1282 l 618 1099 l 575 1099 l 442 1282 z "},"Ţ":{"ha":838,"x_min":193,"x_max":944,"o":"m 944 1018 l 936 967 l 593 967 l 440 0 l 421 0 l 343 -92 q 415 -110 393 -93 q 438 -160 438 -128 q 421 -209 438 -183 q 372 -252 404 -235 q 296 -269 339 -269 l 263 -269 l 267 -246 l 301 -243 q 374 -211 347 -239 q 401 -160 401 -183 q 380 -121 401 -135 q 303 -106 358 -107 l 390 0 l 383 0 l 536 967 l 193 967 l 201 1018 l 944 1018 z "},"Ț":{"ha":838,"x_min":193,"x_max":944,"o":"m 536 967 l 193 967 l 201 1018 l 944 1018 l 936 967 l 593 967 l 440 0 l 383 0 l 536 967 m 267 -247 l 310 -242 q 376 -225 351 -236 q 417 -180 400 -214 q 444 -79 435 -146 l 482 -79 q 452 -193 471 -153 q 399 -251 433 -233 q 304 -269 365 -269 l 263 -269 l 267 -247 z "},"Ṫ":{"ha":838,"x_min":193,"x_max":944,"o":"m 536 967 l 193 967 l 201 1018 l 944 1018 l 936 967 l 593 967 l 440 0 l 383 0 l 536 967 m 571 1151 q 560 1156 564 1151 q 556 1167 556 1160 l 556 1169 l 571 1263 q 592 1281 572 1281 l 618 1281 q 633 1267 633 1281 l 633 1263 l 618 1169 q 611 1156 617 1161 q 597 1151 606 1151 l 571 1151 z "},"Ṭ":{"ha":838,"x_min":193,"x_max":944,"o":"m 536 967 l 193 967 l 201 1018 l 944 1018 l 936 967 l 593 967 l 440 0 l 383 0 l 536 967 m 335 -279 q 324 -275 328 -279 q 319 -264 319 -271 l 319 -261 l 335 -168 q 356 -150 336 -150 l 382 -150 q 397 -164 397 -150 l 397 -168 l 382 -261 q 375 -274 381 -269 q 361 -279 369 -279 l 335 -279 z "},"Ṯ":{"ha":838,"x_min":193,"x_max":944,"o":"m 536 967 l 193 967 l 201 1018 l 944 1018 l 936 967 l 593 967 l 440 0 l 383 0 l 536 967 m 222 -208 l 578 -208 l 571 -243 l 215 -243 l 222 -208 z "},"U":{"ha":931,"x_min":163,"x_max":985,"o":"m 465 -8 q 238 55 313 -8 q 163 264 163 118 q 179 449 163 349 l 269 1018 l 326 1018 l 236 444 q 218 265 218 339 q 279 93 218 143 q 467 43 340 43 q 644 72 575 43 q 761 188 713 101 q 836 444 810 275 l 928 1018 l 985 1018 l 893 440 q 806 156 864 253 q 668 25 749 58 q 465 -8 588 -8 z "},"Ú":{"ha":931,"x_min":163,"x_max":985,"o":"m 465 -8 q 238 55 313 -8 q 163 264 163 118 q 179 449 163 349 l 269 1018 l 326 1018 l 236 444 q 218 265 218 339 q 279 93 218 143 q 467 43 340 43 q 644 72 575 43 q 761 188 713 101 q 836 444 810 275 l 928 1018 l 985 1018 l 893 440 q 806 156 864 253 q 668 25 749 58 q 465 -8 588 -8 m 775 1285 l 831 1285 l 621 1099 l 586 1099 l 775 1285 z "},"Ŭ":{"ha":931,"x_min":163,"x_max":985,"o":"m 465 -8 q 238 55 313 -8 q 163 264 163 118 q 179 449 163 349 l 269 1018 l 326 1018 l 236 444 q 218 265 218 339 q 279 93 218 143 q 467 43 340 43 q 644 72 575 43 q 761 188 713 101 q 836 444 810 275 l 928 1018 l 985 1018 l 893 440 q 806 156 864 253 q 668 25 749 58 q 465 -8 588 -8 m 617 1100 q 510 1133 551 1100 q 468 1242 468 1167 q 471 1289 468 1256 l 501 1289 q 499 1249 499 1258 q 531 1159 499 1189 q 618 1129 564 1129 q 733 1167 685 1129 q 794 1289 781 1206 l 824 1289 q 751 1143 807 1186 q 617 1100 694 1100 z "},"Û":{"ha":931,"x_min":163,"x_max":985,"o":"m 465 -8 q 238 55 313 -8 q 163 264 163 118 q 179 449 163 349 l 269 1018 l 326 1018 l 236 444 q 218 265 218 339 q 279 93 218 143 q 467 43 340 43 q 644 72 575 43 q 761 188 713 101 q 836 444 810 275 l 928 1018 l 985 1018 l 893 440 q 806 156 864 253 q 668 25 749 58 q 465 -8 588 -8 m 622 1282 l 665 1282 l 799 1099 l 761 1099 l 638 1251 l 451 1099 l 414 1099 l 622 1282 z "},"Ȕ":{"ha":931,"x_min":163,"x_max":985,"o":"m 465 -8 q 238 55 313 -8 q 163 264 163 118 q 179 449 163 349 l 269 1018 l 326 1018 l 236 444 q 218 265 218 339 q 279 93 218 143 q 467 43 340 43 q 644 72 575 43 q 761 188 713 101 q 836 444 810 275 l 928 1018 l 985 1018 l 893 440 q 806 156 864 253 q 668 25 749 58 q 465 -8 588 -8 m 365 1285 l 418 1285 l 550 1099 l 517 1099 l 365 1285 m 543 1285 l 596 1285 l 728 1099 l 694 1099 l 543 1285 z "},"Ü":{"ha":931,"x_min":163,"x_max":985,"o":"m 465 -8 q 238 55 313 -8 q 163 264 163 118 q 179 449 163 349 l 269 1018 l 326 1018 l 236 444 q 218 265 218 339 q 279 93 218 143 q 467 43 340 43 q 644 72 575 43 q 761 188 713 101 q 836 444 810 275 l 928 1018 l 985 1018 l 893 440 q 806 156 864 253 q 668 25 749 58 q 465 -8 588 -8 m 443 1142 q 428 1157 428 1142 l 443 1253 q 465 1271 444 1271 l 492 1271 q 507 1257 507 1271 q 490 1160 507 1263 q 483 1147 489 1151 q 469 1142 476 1142 l 443 1142 m 731 1142 q 715 1157 715 1142 l 731 1253 q 753 1271 732 1271 l 779 1271 q 794 1257 794 1271 q 778 1160 794 1263 q 770 1147 776 1151 q 757 1142 764 1142 l 731 1142 z "},"Ụ":{"ha":931,"x_min":163,"x_max":985,"o":"m 465 -8 q 238 55 313 -8 q 163 264 163 118 q 179 449 163 349 l 269 1018 l 326 1018 l 236 444 q 218 265 218 339 q 279 93 218 143 q 467 43 340 43 q 644 72 575 43 q 761 188 713 101 q 836 444 810 275 l 928 1018 l 985 1018 l 893 440 q 806 156 864 253 q 668 25 749 58 q 465 -8 588 -8 m 378 -279 q 367 -275 371 -279 q 363 -264 363 -271 l 363 -261 l 378 -168 q 399 -150 379 -150 l 425 -150 q 440 -164 440 -150 l 440 -168 l 425 -261 q 418 -274 424 -269 q 404 -279 413 -279 l 378 -279 z "},"Ù":{"ha":931,"x_min":163,"x_max":985,"o":"m 465 -8 q 238 55 313 -8 q 163 264 163 118 q 179 449 163 349 l 269 1018 l 326 1018 l 236 444 q 218 265 218 339 q 279 93 218 143 q 467 43 340 43 q 644 72 575 43 q 761 188 713 101 q 836 444 810 275 l 928 1018 l 985 1018 l 893 440 q 806 156 864 253 q 668 25 749 58 q 465 -8 588 -8 m 481 1285 l 533 1285 l 665 1099 l 632 1099 l 481 1285 z "},"Ủ":{"ha":931,"x_min":163,"x_max":985,"o":"m 465 -8 q 238 55 313 -8 q 163 264 163 118 q 179 449 163 349 l 269 1018 l 326 1018 l 236 444 q 218 265 218 339 q 279 93 218 143 q 467 43 340 43 q 644 72 575 43 q 761 188 713 101 q 836 444 810 275 l 928 1018 l 985 1018 l 893 440 q 806 156 864 253 q 668 25 749 58 q 465 -8 588 -8 m 572 1110 q 679 1225 679 1142 q 614 1281 679 1281 q 560 1272 586 1281 l 564 1300 q 626 1308 590 1308 q 714 1229 714 1308 q 678 1140 714 1179 q 567 1081 643 1101 l 572 1110 z "},"Ư":{"ha":931,"x_min":163,"x_max":1150,"o":"m 1150 1178 q 1088 1033 1135 1079 q 979 983 1042 988 l 893 440 q 806 156 864 253 q 668 25 749 58 q 465 -8 588 -8 q 238 55 313 -8 q 163 264 163 118 q 179 449 163 349 l 269 1018 l 326 1018 l 236 444 q 218 265 218 339 q 279 93 218 143 q 467 43 340 43 q 644 72 575 43 q 761 188 713 101 q 836 444 810 275 l 928 1018 l 965 1018 q 1104 1178 1078 1018 l 1150 1178 z "},"Ứ":{"ha":931,"x_min":163,"x_max":1150,"o":"m 1150 1178 q 1088 1033 1135 1079 q 979 983 1042 988 l 893 440 q 806 156 864 253 q 668 25 749 58 q 465 -8 588 -8 q 238 55 313 -8 q 163 264 163 118 q 179 449 163 349 l 269 1018 l 326 1018 l 236 444 q 218 265 218 339 q 279 93 218 143 q 467 43 340 43 q 644 72 575 43 q 761 188 713 101 q 836 444 810 275 l 928 1018 l 965 1018 q 1104 1178 1078 1018 l 1150 1178 m 779 1285 l 835 1285 l 625 1099 l 590 1099 l 779 1285 z "},"Ự":{"ha":931,"x_min":163,"x_max":1150,"o":"m 1150 1178 q 1088 1033 1135 1079 q 979 983 1042 988 l 893 440 q 806 156 864 253 q 668 25 749 58 q 465 -8 588 -8 q 238 55 313 -8 q 163 264 163 118 q 179 449 163 349 l 269 1018 l 326 1018 l 236 444 q 218 265 218 339 q 279 93 218 143 q 467 43 340 43 q 644 72 575 43 q 761 188 713 101 q 836 444 810 275 l 928 1018 l 965 1018 q 1104 1178 1078 1018 l 1150 1178 m 390 -279 q 379 -275 383 -279 q 375 -264 375 -271 l 375 -261 l 390 -168 q 411 -150 392 -150 l 438 -150 q 453 -164 453 -150 l 453 -168 l 438 -261 q 431 -274 436 -269 q 417 -279 425 -279 l 390 -279 z "},"Ừ":{"ha":931,"x_min":163,"x_max":1150,"o":"m 1150 1178 q 1088 1033 1135 1079 q 979 983 1042 988 l 893 440 q 806 156 864 253 q 668 25 749 58 q 465 -8 588 -8 q 238 55 313 -8 q 163 264 163 118 q 179 449 163 349 l 269 1018 l 326 1018 l 236 444 q 218 265 218 339 q 279 93 218 143 q 467 43 340 43 q 644 72 575 43 q 761 188 713 101 q 836 444 810 275 l 928 1018 l 965 1018 q 1104 1178 1078 1018 l 1150 1178 m 485 1285 l 538 1285 l 669 1099 l 636 1099 l 485 1285 z "},"Ử":{"ha":931,"x_min":163,"x_max":1150,"o":"m 1150 1178 q 1088 1033 1135 1079 q 979 983 1042 988 l 893 440 q 806 156 864 253 q 668 25 749 58 q 465 -8 588 -8 q 238 55 313 -8 q 163 264 163 118 q 179 449 163 349 l 269 1018 l 326 1018 l 236 444 q 218 265 218 339 q 279 93 218 143 q 467 43 340 43 q 644 72 575 43 q 761 188 713 101 q 836 444 810 275 l 928 1018 l 965 1018 q 1104 1178 1078 1018 l 1150 1178 m 576 1110 q 683 1225 683 1142 q 618 1281 683 1281 q 564 1272 590 1281 l 568 1300 q 631 1308 594 1308 q 718 1229 718 1308 q 683 1140 718 1179 q 571 1081 647 1101 l 576 1110 z "},"Ữ":{"ha":931,"x_min":163,"x_max":1150,"o":"m 1150 1178 q 1088 1033 1135 1079 q 979 983 1042 988 l 893 440 q 806 156 864 253 q 668 25 749 58 q 465 -8 588 -8 q 238 55 313 -8 q 163 264 163 118 q 179 449 163 349 l 269 1018 l 326 1018 l 236 444 q 218 265 218 339 q 279 93 218 143 q 467 43 340 43 q 644 72 575 43 q 761 188 713 101 q 836 444 810 275 l 928 1018 l 965 1018 q 1104 1178 1078 1018 l 1150 1178 m 424 1135 q 476 1234 435 1203 q 569 1265 517 1265 q 622 1253 597 1265 q 682 1217 646 1242 q 735 1182 713 1193 q 782 1171 757 1171 q 853 1196 824 1171 q 890 1267 882 1221 l 921 1267 q 873 1171 910 1206 q 776 1136 836 1136 q 726 1148 750 1136 q 671 1183 701 1160 q 614 1219 638 1207 q 563 1231 590 1231 q 492 1206 522 1231 q 454 1135 461 1182 l 424 1135 z "},"Ű":{"ha":931,"x_min":163,"x_max":985,"o":"m 465 -8 q 238 55 313 -8 q 163 264 163 118 q 179 449 163 349 l 269 1018 l 326 1018 l 236 444 q 218 265 218 339 q 279 93 218 143 q 467 43 340 43 q 644 72 575 43 q 761 188 713 101 q 836 444 810 275 l 928 1018 l 985 1018 l 893 440 q 806 156 864 253 q 668 25 749 58 q 465 -8 588 -8 m 663 1285 l 715 1285 l 507 1099 l 474 1099 l 663 1285 m 861 1285 l 914 1285 l 706 1099 l 672 1099 l 861 1285 z "},"Ȗ":{"ha":931,"x_min":163,"x_max":985,"o":"m 465 -8 q 238 55 313 -8 q 163 264 163 118 q 179 449 163 349 l 269 1018 l 326 1018 l 236 444 q 218 265 218 339 q 279 93 218 143 q 467 43 340 43 q 644 72 575 43 q 761 188 713 101 q 836 444 810 275 l 928 1018 l 985 1018 l 893 440 q 806 156 864 253 q 668 25 749 58 q 465 -8 588 -8 m 442 1100 q 515 1247 458 1204 q 649 1289 571 1289 q 756 1256 714 1289 q 797 1147 797 1222 q 794 1100 797 1133 l 764 1100 q 767 1140 767 1131 q 733 1231 767 1201 q 644 1260 700 1260 q 533 1222 581 1260 q 471 1100 485 1183 l 442 1100 z "},"Ū":{"ha":931,"x_min":163,"x_max":985,"o":"m 465 -8 q 238 55 313 -8 q 163 264 163 118 q 179 449 163 349 l 269 1018 l 326 1018 l 236 444 q 218 265 218 339 q 279 93 218 143 q 467 43 340 43 q 644 72 575 43 q 761 188 713 101 q 836 444 810 275 l 928 1018 l 985 1018 l 893 440 q 806 156 864 253 q 668 25 749 58 q 465 -8 588 -8 m 457 1208 l 813 1208 l 806 1174 l 450 1174 l 457 1208 z "},"Ṻ":{"ha":931,"x_min":163,"x_max":985,"o":"m 465 -8 q 238 55 313 -8 q 163 264 163 118 q 179 449 163 349 l 269 1018 l 326 1018 l 236 444 q 218 265 218 339 q 279 93 218 143 q 467 43 340 43 q 644 72 575 43 q 761 188 713 101 q 836 444 810 275 l 928 1018 l 985 1018 l 893 440 q 806 156 864 253 q 668 25 749 58 q 465 -8 588 -8 m 457 1208 l 813 1208 l 806 1174 l 450 1174 l 457 1208 m 497 1326 q 482 1342 482 1326 l 497 1438 q 519 1456 499 1456 l 546 1456 q 561 1442 561 1456 q 544 1344 561 1447 q 537 1331 543 1336 q 524 1326 531 1326 l 497 1326 m 785 1326 q 769 1342 769 1326 l 785 1438 q 807 1456 786 1456 l 833 1456 q 849 1442 849 1456 q 832 1344 849 1447 q 824 1331 831 1336 q 811 1326 818 1326 l 785 1326 z "},"Ų":{"ha":931,"x_min":163,"x_max":985,"o":"m 985 1018 l 893 440 q 826 195 869 288 q 724 58 783 103 q 582 0 664 14 q 493 -68 525 -28 q 461 -140 461 -108 q 492 -201 461 -179 q 581 -222 522 -222 l 589 -222 l 583 -253 q 551 -254 572 -254 q 458 -227 493 -254 q 424 -153 424 -200 q 453 -74 424 -115 q 546 -4 483 -33 q 465 -8 508 -8 q 238 55 313 -8 q 163 264 163 118 q 179 449 163 349 l 269 1018 l 326 1018 l 236 444 q 218 265 218 339 q 279 93 218 143 q 467 43 340 43 q 644 72 575 43 q 761 188 713 101 q 836 444 810 275 l 928 1018 l 985 1018 z "},"Ů":{"ha":931,"x_min":163,"x_max":985,"o":"m 465 -8 q 238 55 313 -8 q 163 264 163 118 q 179 449 163 349 l 269 1018 l 326 1018 l 236 444 q 218 265 218 339 q 279 93 218 143 q 467 43 340 43 q 644 72 575 43 q 761 188 713 101 q 836 444 810 275 l 928 1018 l 985 1018 l 893 440 q 806 156 864 253 q 668 25 749 58 q 465 -8 588 -8 m 622 1081 q 528 1108 564 1081 q 493 1199 493 1136 q 539 1319 493 1269 q 665 1369 585 1369 q 754 1341 719 1369 q 789 1253 789 1313 q 745 1130 789 1179 q 622 1081 701 1081 m 624 1110 q 723 1150 689 1110 q 757 1250 757 1190 q 730 1319 757 1299 q 663 1340 703 1340 q 560 1300 596 1340 q 525 1199 525 1260 q 553 1131 525 1151 q 624 1110 581 1110 z "},"Ũ":{"ha":931,"x_min":163,"x_max":985,"o":"m 465 -8 q 238 55 313 -8 q 163 264 163 118 q 179 449 163 349 l 269 1018 l 326 1018 l 236 444 q 218 265 218 339 q 279 93 218 143 q 467 43 340 43 q 644 72 575 43 q 761 188 713 101 q 836 444 810 275 l 928 1018 l 985 1018 l 893 440 q 806 156 864 253 q 668 25 749 58 q 465 -8 588 -8 m 419 1135 q 472 1234 431 1203 q 565 1265 513 1265 q 617 1253 593 1265 q 678 1217 642 1242 q 731 1182 708 1193 q 778 1171 753 1171 q 849 1196 819 1171 q 886 1267 878 1221 l 917 1267 q 869 1171 906 1206 q 772 1136 832 1136 q 722 1148 746 1136 q 667 1183 697 1160 q 610 1219 633 1207 q 558 1231 586 1231 q 488 1206 518 1231 q 450 1135 457 1182 l 419 1135 z "},"Ṹ":{"ha":931,"x_min":163,"x_max":985,"o":"m 465 -8 q 238 55 313 -8 q 163 264 163 118 q 179 449 163 349 l 269 1018 l 326 1018 l 236 444 q 218 265 218 339 q 279 93 218 143 q 467 43 340 43 q 644 72 575 43 q 761 188 713 101 q 836 444 810 275 l 928 1018 l 985 1018 l 893 440 q 806 156 864 253 q 668 25 749 58 q 465 -8 588 -8 m 419 1135 q 472 1234 431 1203 q 565 1265 513 1265 q 617 1253 593 1265 q 678 1217 642 1242 q 731 1182 708 1193 q 778 1171 753 1171 q 849 1196 819 1171 q 886 1267 878 1221 l 917 1267 q 869 1171 906 1206 q 772 1136 832 1136 q 722 1148 746 1136 q 667 1183 697 1160 q 610 1219 633 1207 q 558 1231 586 1231 q 488 1206 518 1231 q 450 1135 457 1182 l 419 1135 m 817 1510 l 872 1510 l 663 1324 l 628 1324 l 817 1510 z "},"V":{"ha":924,"x_min":219,"x_max":1026,"o":"m 219 1018 l 279 1018 l 464 63 l 968 1018 l 1026 1018 l 493 0 l 417 0 l 219 1018 z "},"W":{"ha":1371,"x_min":219,"x_max":1468,"o":"m 219 1018 l 279 1018 l 421 72 l 810 1018 l 876 1018 l 951 74 l 1408 1018 l 1468 1018 l 979 0 l 910 0 l 832 940 l 442 0 l 372 0 l 219 1018 z "},"Ẃ":{"ha":1371,"x_min":219,"x_max":1468,"o":"m 219 1018 l 279 1018 l 421 72 l 810 1018 l 876 1018 l 951 74 l 1408 1018 l 1468 1018 l 979 0 l 910 0 l 832 940 l 442 0 l 372 0 l 219 1018 m 1013 1285 l 1068 1285 l 858 1099 l 824 1099 l 1013 1285 z "},"Ŵ":{"ha":1371,"x_min":219,"x_max":1468,"o":"m 219 1018 l 279 1018 l 421 72 l 810 1018 l 876 1018 l 951 74 l 1408 1018 l 1468 1018 l 979 0 l 910 0 l 832 940 l 442 0 l 372 0 l 219 1018 m 860 1282 l 903 1282 l 1036 1099 l 999 1099 l 875 1251 l 689 1099 l 651 1099 l 860 1282 z "},"Ẅ":{"ha":1371,"x_min":219,"x_max":1468,"o":"m 219 1018 l 279 1018 l 421 72 l 810 1018 l 876 1018 l 951 74 l 1408 1018 l 1468 1018 l 979 0 l 910 0 l 832 940 l 442 0 l 372 0 l 219 1018 m 681 1142 q 665 1157 665 1142 l 681 1253 q 703 1271 682 1271 l 729 1271 q 744 1257 744 1271 q 728 1160 744 1263 q 720 1147 726 1151 q 707 1142 714 1142 l 681 1142 m 968 1142 q 953 1157 953 1142 l 968 1253 q 990 1271 969 1271 l 1017 1271 q 1032 1257 1032 1271 q 1015 1160 1032 1263 q 1008 1147 1014 1151 q 994 1142 1001 1142 l 968 1142 z "},"Ẁ":{"ha":1371,"x_min":219,"x_max":1468,"o":"m 219 1018 l 279 1018 l 421 72 l 810 1018 l 876 1018 l 951 74 l 1408 1018 l 1468 1018 l 979 0 l 910 0 l 832 940 l 442 0 l 372 0 l 219 1018 m 718 1285 l 771 1285 l 903 1099 l 869 1099 l 718 1285 z "},"X":{"ha":826,"x_min":61,"x_max":933,"o":"m 525 499 l 764 0 l 700 0 l 483 458 l 129 0 l 61 0 l 457 514 l 218 1018 l 282 1018 l 500 553 l 864 1018 l 933 1018 l 525 499 z "},"Y":{"ha":829,"x_min":200,"x_max":951,"o":"m 429 353 l 200 1018 l 264 1018 l 465 422 l 885 1018 l 951 1018 l 486 353 l 429 0 l 372 0 l 429 353 z "},"Ý":{"ha":829,"x_min":200,"x_max":951,"o":"m 429 353 l 200 1018 l 264 1018 l 465 422 l 885 1018 l 951 1018 l 486 353 l 429 0 l 372 0 l 429 353 m 721 1285 l 776 1285 l 567 1099 l 532 1099 l 721 1285 z "},"Ŷ":{"ha":829,"x_min":200,"x_max":951,"o":"m 429 353 l 200 1018 l 264 1018 l 465 422 l 885 1018 l 951 1018 l 486 353 l 429 0 l 372 0 l 429 353 m 568 1282 l 611 1282 l 744 1099 l 707 1099 l 583 1251 l 397 1099 l 360 1099 l 568 1282 z "},"Ÿ":{"ha":829,"x_min":200,"x_max":951,"o":"m 429 353 l 200 1018 l 264 1018 l 465 422 l 885 1018 l 951 1018 l 486 353 l 429 0 l 372 0 l 429 353 m 389 1142 q 374 1157 374 1142 l 389 1253 q 411 1271 390 1271 l 438 1271 q 453 1257 453 1271 q 436 1160 453 1263 q 428 1147 435 1151 q 415 1142 422 1142 l 389 1142 m 676 1142 q 661 1157 661 1142 l 676 1253 q 699 1271 678 1271 l 725 1271 q 740 1257 740 1271 q 724 1160 740 1263 q 716 1147 722 1151 q 703 1142 710 1142 l 676 1142 z "},"Ẏ":{"ha":829,"x_min":200,"x_max":951,"o":"m 429 353 l 200 1018 l 264 1018 l 465 422 l 885 1018 l 951 1018 l 486 353 l 429 0 l 372 0 l 429 353 m 324 -279 q 313 -275 317 -279 q 308 -264 308 -271 l 308 -261 l 324 -168 q 344 -150 325 -150 l 371 -150 q 386 -164 386 -150 l 386 -168 l 371 -261 q 364 -274 369 -269 q 350 -279 358 -279 l 324 -279 z "},"Ỵ":{"ha":829,"x_min":200,"x_max":951,"o":"m 429 353 l 200 1018 l 264 1018 l 465 422 l 885 1018 l 951 1018 l 486 353 l 429 0 l 372 0 l 429 353 m 324 -279 q 313 -275 317 -279 q 308 -264 308 -271 l 308 -261 l 324 -168 q 344 -150 325 -150 l 371 -150 q 386 -164 386 -150 l 386 -168 l 371 -261 q 364 -274 369 -269 q 350 -279 358 -279 l 324 -279 z "},"Ỳ":{"ha":829,"x_min":200,"x_max":951,"o":"m 429 353 l 200 1018 l 264 1018 l 465 422 l 885 1018 l 951 1018 l 486 353 l 429 0 l 372 0 l 429 353 m 426 1285 l 479 1285 l 611 1099 l 578 1099 l 426 1285 z "},"Ỷ":{"ha":829,"x_min":200,"x_max":951,"o":"m 429 353 l 200 1018 l 264 1018 l 465 422 l 885 1018 l 951 1018 l 486 353 l 429 0 l 372 0 l 429 353 m 518 1110 q 625 1225 625 1142 q 560 1281 625 1281 q 506 1272 532 1281 l 510 1300 q 572 1308 536 1308 q 660 1229 660 1308 q 624 1140 660 1179 q 513 1081 589 1101 l 518 1110 z "},"Ȳ":{"ha":829,"x_min":200,"x_max":951,"o":"m 429 353 l 200 1018 l 264 1018 l 465 422 l 885 1018 l 951 1018 l 486 353 l 429 0 l 372 0 l 429 353 m 403 1208 l 758 1208 l 751 1174 l 396 1174 l 403 1208 z "},"Ỹ":{"ha":829,"x_min":200,"x_max":951,"o":"m 429 353 l 200 1018 l 264 1018 l 465 422 l 885 1018 l 951 1018 l 486 353 l 429 0 l 372 0 l 429 353 m 365 1135 q 417 1234 376 1203 q 511 1265 458 1265 q 563 1253 539 1265 q 624 1217 588 1242 q 676 1182 654 1193 q 724 1171 699 1171 q 794 1196 765 1171 q 832 1267 824 1221 l 863 1267 q 815 1171 851 1206 q 718 1136 778 1136 q 667 1148 692 1136 q 613 1183 643 1160 q 556 1219 579 1207 q 504 1231 532 1231 q 433 1206 464 1231 q 396 1135 403 1182 l 365 1135 z "},"Z":{"ha":771,"x_min":61,"x_max":858,"o":"m 68 50 l 783 967 l 213 967 l 222 1018 l 858 1018 l 850 968 l 135 51 l 718 51 l 711 0 l 61 0 l 68 50 z "},"Ź":{"ha":771,"x_min":61,"x_max":858,"o":"m 68 50 l 783 967 l 213 967 l 222 1018 l 858 1018 l 850 968 l 135 51 l 718 51 l 711 0 l 61 0 l 68 50 m 690 1285 l 746 1285 l 536 1099 l 501 1099 l 690 1285 z "},"Ž":{"ha":771,"x_min":61,"x_max":858,"o":"m 68 50 l 783 967 l 213 967 l 222 1018 l 858 1018 l 850 968 l 135 51 l 718 51 l 711 0 l 61 0 l 68 50 m 400 1282 l 439 1282 l 560 1129 l 747 1282 l 785 1282 l 576 1099 l 533 1099 l 400 1282 z "},"Ż":{"ha":771,"x_min":61,"x_max":858,"o":"m 68 50 l 783 967 l 213 967 l 222 1018 l 858 1018 l 850 968 l 135 51 l 718 51 l 711 0 l 61 0 l 68 50 m 529 1151 q 518 1156 522 1151 q 514 1167 514 1160 l 514 1169 l 529 1263 q 550 1281 531 1281 l 576 1281 q 592 1267 592 1281 l 592 1263 l 576 1169 q 569 1156 575 1161 q 556 1151 564 1151 l 529 1151 z "},"Ẓ":{"ha":771,"x_min":61,"x_max":858,"o":"m 68 50 l 783 967 l 213 967 l 222 1018 l 858 1018 l 850 968 l 135 51 l 718 51 l 711 0 l 61 0 l 68 50 m 293 -279 q 282 -275 286 -279 q 278 -264 278 -271 l 278 -261 l 293 -168 q 314 -150 294 -150 l 340 -150 q 356 -164 356 -150 l 356 -168 l 340 -261 q 333 -274 339 -269 q 319 -279 328 -279 l 293 -279 z "},"a":{"ha":779,"x_min":124,"x_max":778,"o":"m 351 -8 q 186 53 249 -8 q 124 239 124 114 q 139 376 124 285 q 255 659 168 571 q 513 747 342 747 q 660 728 586 747 q 778 668 735 708 l 672 0 l 629 0 l 629 81 q 504 22 588 53 q 351 -8 421 -8 m 364 40 q 494 60 435 40 q 635 118 553 79 l 718 649 q 631 683 686 668 q 508 699 575 699 q 343 664 406 699 q 247 558 281 629 q 193 363 213 486 q 181 246 181 286 q 230 92 181 143 q 364 40 279 40 z "},"á":{"ha":779,"x_min":124,"x_max":778,"o":"m 351 -8 q 186 53 249 -8 q 124 239 124 114 q 139 376 124 285 q 255 659 168 571 q 513 747 342 747 q 660 728 586 747 q 778 668 735 708 l 672 0 l 629 0 l 629 81 q 504 22 588 53 q 351 -8 421 -8 m 364 40 q 494 60 435 40 q 635 118 553 79 l 718 649 q 631 683 686 668 q 508 699 575 699 q 343 664 406 699 q 247 558 281 629 q 193 363 213 486 q 181 246 181 286 q 230 92 181 143 q 364 40 279 40 m 694 1063 l 750 1063 l 540 876 l 506 876 l 694 1063 z "},"ă":{"ha":779,"x_min":124,"x_max":778,"o":"m 351 -8 q 186 53 249 -8 q 124 239 124 114 q 139 376 124 285 q 255 659 168 571 q 513 747 342 747 q 660 728 586 747 q 778 668 735 708 l 672 0 l 629 0 l 629 81 q 504 22 588 53 q 351 -8 421 -8 m 364 40 q 494 60 435 40 q 635 118 553 79 l 718 649 q 631 683 686 668 q 508 699 575 699 q 343 664 406 699 q 247 558 281 629 q 193 363 213 486 q 181 246 181 286 q 230 92 181 143 q 364 40 279 40 m 536 878 q 429 911 471 878 q 388 1019 388 944 q 390 1067 388 1033 l 421 1067 q 418 1026 418 1036 q 451 937 418 967 q 538 907 483 907 q 652 945 604 907 q 714 1067 700 983 l 743 1067 q 670 921 726 964 q 536 878 614 878 z "},"ắ":{"ha":779,"x_min":124,"x_max":778,"o":"m 351 -8 q 186 53 249 -8 q 124 239 124 114 q 139 376 124 285 q 255 659 168 571 q 513 747 342 747 q 660 728 586 747 q 778 668 735 708 l 672 0 l 629 0 l 629 81 q 504 22 588 53 q 351 -8 421 -8 m 364 40 q 494 60 435 40 q 635 118 553 79 l 718 649 q 631 683 686 668 q 508 699 575 699 q 343 664 406 699 q 247 558 281 629 q 193 363 213 486 q 181 246 181 286 q 230 92 181 143 q 364 40 279 40 m 694 1206 l 750 1206 l 540 1019 l 506 1019 l 694 1206 m 511 875 q 400 903 444 875 q 356 992 356 931 q 358 1022 356 1003 l 389 1022 q 388 1000 388 1014 q 422 926 388 950 q 511 903 456 903 q 620 928 569 903 q 681 1022 671 953 l 711 1022 q 643 908 699 942 q 511 875 588 875 z "},"ặ":{"ha":779,"x_min":124,"x_max":778,"o":"m 351 -8 q 186 53 249 -8 q 124 239 124 114 q 139 376 124 285 q 255 659 168 571 q 513 747 342 747 q 660 728 586 747 q 778 668 735 708 l 672 0 l 629 0 l 629 81 q 504 22 588 53 q 351 -8 421 -8 m 364 40 q 494 60 435 40 q 635 118 553 79 l 718 649 q 631 683 686 668 q 508 699 575 699 q 343 664 406 699 q 247 558 281 629 q 193 363 213 486 q 181 246 181 286 q 230 92 181 143 q 364 40 279 40 m 536 878 q 429 911 471 878 q 388 1019 388 944 q 390 1067 388 1033 l 421 1067 q 418 1026 418 1036 q 451 937 418 967 q 538 907 483 907 q 652 945 604 907 q 714 1067 700 983 l 743 1067 q 670 921 726 964 q 536 878 614 878 m 322 -279 q 311 -275 315 -279 q 307 -264 307 -271 l 307 -261 l 322 -168 q 343 -150 324 -150 l 369 -150 q 385 -164 385 -150 l 385 -168 l 369 -261 q 363 -274 368 -269 q 349 -279 357 -279 l 322 -279 z "},"ằ":{"ha":779,"x_min":124,"x_max":778,"o":"m 351 -8 q 186 53 249 -8 q 124 239 124 114 q 139 376 124 285 q 255 659 168 571 q 513 747 342 747 q 660 728 586 747 q 778 668 735 708 l 672 0 l 629 0 l 629 81 q 504 22 588 53 q 351 -8 421 -8 m 364 40 q 494 60 435 40 q 635 118 553 79 l 718 649 q 631 683 686 668 q 508 699 575 699 q 343 664 406 699 q 247 558 281 629 q 193 363 213 486 q 181 246 181 286 q 230 92 181 143 q 364 40 279 40 m 397 1206 l 450 1206 l 582 1019 l 549 1019 l 397 1206 m 511 875 q 400 903 444 875 q 356 992 356 931 q 358 1022 356 1003 l 389 1022 q 388 1000 388 1014 q 422 926 388 950 q 511 903 456 903 q 681 1022 663 903 l 711 1022 q 643 908 699 942 q 511 875 588 875 z "},"ẳ":{"ha":779,"x_min":124,"x_max":778,"o":"m 351 -8 q 186 53 249 -8 q 124 239 124 114 q 139 376 124 285 q 255 659 168 571 q 513 747 342 747 q 660 728 586 747 q 778 668 735 708 l 672 0 l 629 0 l 629 81 q 504 22 588 53 q 351 -8 421 -8 m 364 40 q 494 60 435 40 q 635 118 553 79 l 718 649 q 631 683 686 668 q 508 699 575 699 q 343 664 406 699 q 247 558 281 629 q 193 363 213 486 q 181 246 181 286 q 230 92 181 143 q 364 40 279 40 m 504 992 q 611 1107 611 1024 q 546 1163 611 1163 q 492 1154 518 1163 l 496 1182 q 558 1190 522 1190 q 646 1111 646 1190 q 610 1022 646 1061 q 499 963 575 983 l 504 992 m 511 875 q 400 903 444 875 q 356 992 356 931 q 358 1022 356 1003 l 389 1022 q 388 1000 388 1014 q 422 926 388 950 q 511 903 456 903 q 622 928 572 903 q 681 1022 671 953 l 711 1022 q 643 908 699 942 q 511 875 588 875 z "},"ẵ":{"ha":779,"x_min":124,"x_max":797,"o":"m 351 -8 q 186 53 249 -8 q 124 239 124 114 q 139 376 124 285 q 255 659 168 571 q 513 747 342 747 q 660 728 586 747 q 778 668 735 708 l 672 0 l 629 0 l 629 81 q 504 22 588 53 q 351 -8 421 -8 m 364 40 q 494 60 435 40 q 635 118 553 79 l 718 649 q 631 683 686 668 q 508 699 575 699 q 343 664 406 699 q 247 558 281 629 q 193 363 213 486 q 181 246 181 286 q 230 92 181 143 q 364 40 279 40 m 335 1069 q 381 1148 344 1124 q 464 1172 418 1172 q 518 1163 493 1172 q 574 1136 543 1153 q 626 1111 604 1119 q 671 1103 647 1103 q 735 1121 708 1103 q 767 1172 763 1139 l 797 1172 q 755 1098 790 1125 q 665 1071 719 1071 q 616 1080 639 1071 q 561 1106 593 1089 q 507 1131 529 1122 q 458 1139 485 1139 q 397 1122 424 1139 q 365 1069 371 1104 l 335 1069 m 518 875 q 408 903 451 875 q 364 992 364 931 q 367 1022 364 1003 l 396 1022 q 394 1000 394 1014 q 429 926 394 950 q 519 903 464 903 q 631 927 585 903 q 689 1022 678 951 l 719 1022 q 651 908 707 942 q 518 875 596 875 z "},"â":{"ha":779,"x_min":124,"x_max":778,"o":"m 351 -8 q 186 53 249 -8 q 124 239 124 114 q 139 376 124 285 q 255 659 168 571 q 513 747 342 747 q 660 728 586 747 q 778 668 735 708 l 672 0 l 629 0 l 629 81 q 504 22 588 53 q 351 -8 421 -8 m 364 40 q 494 60 435 40 q 635 118 553 79 l 718 649 q 631 683 686 668 q 508 699 575 699 q 343 664 406 699 q 247 558 281 629 q 193 363 213 486 q 181 246 181 286 q 230 92 181 143 q 364 40 279 40 m 554 1060 l 597 1060 l 731 876 l 693 876 l 569 1029 l 383 876 l 346 876 l 554 1060 z "},"ấ":{"ha":779,"x_min":124,"x_max":889,"o":"m 351 -8 q 186 53 249 -8 q 124 239 124 114 q 139 376 124 285 q 255 659 168 571 q 513 747 342 747 q 660 728 586 747 q 778 668 735 708 l 672 0 l 629 0 l 629 81 q 504 22 588 53 q 351 -8 421 -8 m 364 40 q 494 60 435 40 q 635 118 553 79 l 718 649 q 631 683 686 668 q 508 699 575 699 q 343 664 406 699 q 247 558 281 629 q 193 363 213 486 q 181 246 181 286 q 230 92 181 143 q 364 40 279 40 m 838 1160 l 889 1160 l 686 976 l 654 976 l 838 1160 m 524 1006 l 567 1006 l 710 876 l 671 876 l 540 975 l 363 876 l 325 876 l 524 1006 z "},"ậ":{"ha":779,"x_min":124,"x_max":778,"o":"m 351 -8 q 186 53 249 -8 q 124 239 124 114 q 139 376 124 285 q 255 659 168 571 q 513 747 342 747 q 660 728 586 747 q 778 668 735 708 l 672 0 l 629 0 l 629 81 q 504 22 588 53 q 351 -8 421 -8 m 364 40 q 494 60 435 40 q 635 118 553 79 l 718 649 q 631 683 686 668 q 508 699 575 699 q 343 664 406 699 q 247 558 281 629 q 193 363 213 486 q 181 246 181 286 q 230 92 181 143 q 364 40 279 40 m 554 1060 l 597 1060 l 731 876 l 693 876 l 569 1029 l 383 876 l 346 876 l 554 1060 m 322 -279 q 311 -275 315 -279 q 307 -264 307 -271 l 307 -261 l 322 -168 q 343 -150 324 -150 l 369 -150 q 385 -164 385 -150 l 385 -168 l 369 -261 q 363 -274 368 -269 q 349 -279 357 -279 l 322 -279 z "},"ầ":{"ha":779,"x_min":124,"x_max":778,"o":"m 351 -8 q 186 53 249 -8 q 124 239 124 114 q 139 376 124 285 q 255 659 168 571 q 513 747 342 747 q 660 728 586 747 q 778 668 735 708 l 672 0 l 629 0 l 629 81 q 504 22 588 53 q 351 -8 421 -8 m 364 40 q 494 60 435 40 q 635 118 553 79 l 718 649 q 631 683 686 668 q 508 699 575 699 q 343 664 406 699 q 247 558 281 629 q 193 363 213 486 q 181 246 181 286 q 230 92 181 143 q 364 40 279 40 m 249 1160 l 301 1160 l 425 976 l 393 976 l 249 1160 m 514 1006 l 557 1006 l 700 876 l 661 876 l 531 975 l 353 876 l 315 876 l 514 1006 z "},"ẩ":{"ha":779,"x_min":124,"x_max":814,"o":"m 351 -8 q 186 53 249 -8 q 124 239 124 114 q 139 376 124 285 q 255 659 168 571 q 513 747 342 747 q 660 728 586 747 q 778 668 735 708 l 672 0 l 629 0 l 629 81 q 504 22 588 53 q 351 -8 421 -8 m 364 40 q 494 60 435 40 q 635 118 553 79 l 718 649 q 631 683 686 668 q 508 699 575 699 q 343 664 406 699 q 247 558 281 629 q 193 363 213 486 q 181 246 181 286 q 230 92 181 143 q 364 40 279 40 m 682 974 q 758 1017 735 990 q 781 1072 781 1043 q 719 1118 781 1118 q 665 1110 690 1118 l 669 1138 q 729 1147 699 1147 q 793 1128 772 1147 q 814 1075 814 1110 q 781 999 814 1033 q 678 946 749 964 l 682 974 m 529 1006 l 572 1006 l 714 876 l 676 876 l 546 975 l 368 876 l 329 876 l 529 1006 z "},"ẫ":{"ha":779,"x_min":124,"x_max":797,"o":"m 351 -8 q 186 53 249 -8 q 124 239 124 114 q 139 376 124 285 q 255 659 168 571 q 513 747 342 747 q 660 728 586 747 q 778 668 735 708 l 672 0 l 629 0 l 629 81 q 504 22 588 53 q 351 -8 421 -8 m 364 40 q 494 60 435 40 q 635 118 553 79 l 718 649 q 631 683 686 668 q 508 699 575 699 q 343 664 406 699 q 247 558 281 629 q 193 363 213 486 q 181 246 181 286 q 230 92 181 143 q 364 40 279 40 m 336 1072 q 381 1151 344 1126 q 464 1175 418 1175 q 517 1166 493 1175 q 575 1139 542 1157 q 627 1114 607 1122 q 671 1106 647 1106 q 735 1124 708 1106 q 767 1175 761 1142 l 797 1175 q 756 1101 790 1128 q 667 1074 721 1074 q 616 1083 639 1074 q 563 1108 593 1092 q 508 1133 532 1125 q 458 1142 485 1142 q 398 1124 424 1142 q 367 1072 372 1107 l 336 1072 m 529 1006 l 574 1006 l 714 876 l 676 876 l 546 975 l 368 876 l 329 876 l 529 1006 z "},"ȁ":{"ha":779,"x_min":124,"x_max":778,"o":"m 351 -8 q 186 53 249 -8 q 124 239 124 114 q 139 376 124 285 q 255 659 168 571 q 513 747 342 747 q 660 728 586 747 q 778 668 735 708 l 672 0 l 629 0 l 629 81 q 504 22 588 53 q 351 -8 421 -8 m 364 40 q 494 60 435 40 q 635 118 553 79 l 718 649 q 631 683 686 668 q 508 699 575 699 q 343 664 406 699 q 247 558 281 629 q 193 363 213 486 q 181 246 181 286 q 230 92 181 143 q 364 40 279 40 m 308 1063 l 361 1063 l 493 876 l 460 876 l 308 1063 m 486 1063 l 539 1063 l 671 876 l 638 876 l 486 1063 z "},"ä":{"ha":779,"x_min":124,"x_max":778,"o":"m 351 -8 q 186 53 249 -8 q 124 239 124 114 q 139 376 124 285 q 255 659 168 571 q 513 747 342 747 q 660 728 586 747 q 778 668 735 708 l 672 0 l 629 0 l 629 81 q 504 22 588 53 q 351 -8 421 -8 m 364 40 q 494 60 435 40 q 635 118 553 79 l 718 649 q 631 683 686 668 q 508 699 575 699 q 343 664 406 699 q 247 558 281 629 q 193 363 213 486 q 181 246 181 286 q 230 92 181 143 q 364 40 279 40 m 363 919 q 347 935 347 919 l 363 1031 q 385 1049 364 1049 l 411 1049 q 426 1035 426 1049 q 410 938 426 1040 q 402 924 408 929 q 389 919 396 919 l 363 919 m 650 919 q 635 935 635 919 l 650 1031 q 672 1049 651 1049 l 699 1049 q 714 1035 714 1049 q 697 938 714 1040 q 690 924 696 929 q 676 919 683 919 l 650 919 z "},"ạ":{"ha":779,"x_min":124,"x_max":778,"o":"m 351 -8 q 186 53 249 -8 q 124 239 124 114 q 139 376 124 285 q 255 659 168 571 q 513 747 342 747 q 660 728 586 747 q 778 668 735 708 l 672 0 l 629 0 l 629 81 q 504 22 588 53 q 351 -8 421 -8 m 364 40 q 494 60 435 40 q 635 118 553 79 l 718 649 q 631 683 686 668 q 508 699 575 699 q 343 664 406 699 q 247 558 281 629 q 193 363 213 486 q 181 246 181 286 q 230 92 181 143 q 364 40 279 40 m 322 -279 q 311 -275 315 -279 q 307 -264 307 -271 l 307 -261 l 322 -168 q 343 -150 324 -150 l 369 -150 q 385 -164 385 -150 l 385 -168 l 369 -261 q 363 -274 368 -269 q 349 -279 357 -279 l 322 -279 z "},"à":{"ha":779,"x_min":124,"x_max":778,"o":"m 351 -8 q 186 53 249 -8 q 124 239 124 114 q 139 376 124 285 q 255 659 168 571 q 513 747 342 747 q 660 728 586 747 q 778 668 735 708 l 672 0 l 629 0 l 629 81 q 504 22 588 53 q 351 -8 421 -8 m 364 40 q 494 60 435 40 q 635 118 553 79 l 718 649 q 631 683 686 668 q 508 699 575 699 q 343 664 406 699 q 247 558 281 629 q 193 363 213 486 q 181 246 181 286 q 230 92 181 143 q 364 40 279 40 m 399 1063 l 451 1063 l 583 876 l 550 876 l 399 1063 z "},"ả":{"ha":779,"x_min":124,"x_max":778,"o":"m 351 -8 q 186 53 249 -8 q 124 239 124 114 q 139 376 124 285 q 255 659 168 571 q 513 747 342 747 q 660 728 586 747 q 778 668 735 708 l 672 0 l 629 0 l 629 81 q 504 22 588 53 q 351 -8 421 -8 m 364 40 q 494 60 435 40 q 635 118 553 79 l 718 649 q 631 683 686 668 q 508 699 575 699 q 343 664 406 699 q 247 558 281 629 q 193 363 213 486 q 181 246 181 286 q 230 92 181 143 q 364 40 279 40 m 508 874 q 615 989 615 906 q 550 1044 615 1044 q 496 1036 524 1044 l 500 1064 q 563 1072 526 1072 q 650 993 650 1072 q 615 904 650 943 q 503 844 579 865 l 508 874 z "},"ȃ":{"ha":779,"x_min":124,"x_max":778,"o":"m 351 -8 q 186 53 249 -8 q 124 239 124 114 q 139 376 124 285 q 255 659 168 571 q 513 747 342 747 q 660 728 586 747 q 778 668 735 708 l 672 0 l 629 0 l 629 81 q 504 22 588 53 q 351 -8 421 -8 m 364 40 q 494 60 435 40 q 635 118 553 79 l 718 649 q 631 683 686 668 q 508 699 575 699 q 343 664 406 699 q 247 558 281 629 q 193 363 213 486 q 181 246 181 286 q 230 92 181 143 q 364 40 279 40 m 347 878 q 420 1024 364 982 q 554 1067 476 1067 q 661 1033 619 1067 q 703 925 703 1000 q 700 878 703 911 l 669 878 q 672 918 672 908 q 639 1008 672 979 q 550 1038 606 1038 q 438 999 486 1038 q 376 878 390 961 l 347 878 z "},"ā":{"ha":779,"x_min":124,"x_max":778,"o":"m 351 -8 q 186 53 249 -8 q 124 239 124 114 q 139 376 124 285 q 255 659 168 571 q 513 747 342 747 q 660 728 586 747 q 778 668 735 708 l 672 0 l 629 0 l 629 81 q 504 22 588 53 q 351 -8 421 -8 m 364 40 q 494 60 435 40 q 635 118 553 79 l 718 649 q 631 683 686 668 q 508 699 575 699 q 343 664 406 699 q 247 558 281 629 q 193 363 213 486 q 181 246 181 286 q 230 92 181 143 q 364 40 279 40 m 376 986 l 732 986 l 725 951 l 369 951 l 376 986 z "},"ą":{"ha":779,"x_min":124,"x_max":778,"o":"m 553 -140 q 583 -201 553 -179 q 672 -222 614 -222 l 681 -222 l 675 -253 q 643 -254 664 -254 q 550 -227 585 -254 q 515 -153 515 -200 q 548 -72 515 -114 q 649 0 581 -29 l 629 0 l 629 81 q 504 22 588 53 q 351 -8 421 -8 q 186 53 249 -8 q 124 239 124 114 q 139 376 124 285 q 255 659 168 571 q 513 747 342 747 q 660 728 586 747 q 778 668 735 708 l 672 0 l 674 0 q 585 -68 617 -28 q 553 -140 553 -108 m 718 649 q 631 683 686 668 q 508 699 575 699 q 343 664 406 699 q 247 558 281 629 q 193 363 213 486 q 181 246 181 286 q 230 92 181 143 q 364 40 279 40 q 494 60 435 40 q 635 118 553 79 l 718 649 z "},"å":{"ha":779,"x_min":124,"x_max":778,"o":"m 351 -8 q 186 53 249 -8 q 124 239 124 114 q 139 376 124 285 q 255 659 168 571 q 513 747 342 747 q 660 728 586 747 q 778 668 735 708 l 672 0 l 629 0 l 629 81 q 504 22 588 53 q 351 -8 421 -8 m 364 40 q 494 60 435 40 q 635 118 553 79 l 718 649 q 631 683 686 668 q 508 699 575 699 q 343 664 406 699 q 247 558 281 629 q 193 363 213 486 q 181 246 181 286 q 230 92 181 143 q 364 40 279 40 m 542 831 q 448 858 483 831 q 413 949 413 886 q 458 1069 413 1019 q 585 1119 504 1119 q 674 1091 639 1119 q 708 1003 708 1063 q 665 880 708 929 q 542 831 621 831 m 543 860 q 642 900 608 860 q 676 1000 676 940 q 649 1069 676 1049 q 582 1090 622 1090 q 480 1050 515 1090 q 444 949 444 1010 q 472 881 444 901 q 543 860 500 860 z "},"ǻ":{"ha":779,"x_min":124,"x_max":815,"o":"m 351 -8 q 186 53 249 -8 q 124 239 124 114 q 139 376 124 285 q 255 659 168 571 q 513 747 342 747 q 660 728 586 747 q 778 668 735 708 l 672 0 l 629 0 l 629 81 q 504 22 588 53 q 351 -8 421 -8 m 364 40 q 494 60 435 40 q 635 118 553 79 l 718 649 q 631 683 686 668 q 508 699 575 699 q 343 664 406 699 q 247 558 281 629 q 193 363 213 486 q 181 246 181 286 q 230 92 181 143 q 364 40 279 40 m 542 831 q 448 858 483 831 q 413 949 413 886 q 458 1069 413 1019 q 585 1119 504 1119 q 674 1091 639 1119 q 708 1003 708 1063 q 665 880 708 929 q 542 831 621 831 m 543 860 q 642 900 608 860 q 676 1000 676 940 q 649 1069 676 1049 q 582 1090 622 1090 q 480 1050 515 1090 q 444 949 444 1010 q 472 881 444 901 q 543 860 500 860 m 760 1340 l 815 1340 l 606 1154 l 571 1154 l 760 1340 z "},"ã":{"ha":779,"x_min":124,"x_max":822,"o":"m 351 -8 q 186 53 249 -8 q 124 239 124 114 q 139 376 124 285 q 255 659 168 571 q 513 747 342 747 q 660 728 586 747 q 778 668 735 708 l 672 0 l 629 0 l 629 81 q 504 22 588 53 q 351 -8 421 -8 m 364 40 q 494 60 435 40 q 635 118 553 79 l 718 649 q 631 683 686 668 q 508 699 575 699 q 343 664 406 699 q 247 558 281 629 q 193 363 213 486 q 181 246 181 286 q 230 92 181 143 q 364 40 279 40 m 325 913 q 377 1012 336 981 q 471 1043 418 1043 q 524 1031 500 1043 q 583 994 547 1019 q 636 960 614 971 q 683 949 658 949 q 754 974 725 949 q 792 1044 783 999 l 822 1044 q 774 949 811 983 q 678 914 738 914 q 627 926 651 914 q 572 961 603 938 q 515 997 539 985 q 464 1008 492 1008 q 393 984 424 1008 q 356 913 363 960 l 325 913 z "},"æ":{"ha":1264,"x_min":128,"x_max":1269,"o":"m 344 -8 q 185 52 243 -8 q 128 239 128 113 q 217 603 128 458 q 513 747 307 747 q 649 726 576 747 q 767 672 722 706 q 875 731 810 711 q 1015 751 940 751 q 1205 699 1140 751 q 1269 546 1269 647 q 1229 428 1269 479 q 1113 349 1189 378 q 936 321 1038 321 q 788 329 861 321 q 692 346 714 338 q 686 246 686 297 q 728 90 686 140 q 878 39 769 39 l 1168 39 l 1161 3 q 869 -8 1046 -8 q 724 27 781 -8 q 647 124 668 63 q 508 33 592 75 q 344 -8 425 -8 m 908 364 q 1133 408 1051 364 q 1214 539 1214 451 q 1165 660 1214 617 q 1025 704 1115 704 q 843 667 908 704 q 747 563 778 631 q 696 378 717 494 q 753 371 697 378 q 908 364 810 364 m 347 42 q 503 79 424 42 q 638 167 583 117 q 631 239 631 193 q 656 454 631 346 q 738 639 681 563 q 514 699 622 699 q 258 567 332 699 q 185 247 185 435 q 347 42 185 42 z "},"ǽ":{"ha":1264,"x_min":128,"x_max":1269,"o":"m 344 -8 q 185 52 243 -8 q 128 239 128 113 q 217 603 128 458 q 513 747 307 747 q 649 726 576 747 q 767 672 722 706 q 875 731 810 711 q 1015 751 940 751 q 1205 699 1140 751 q 1269 546 1269 647 q 1229 428 1269 479 q 1113 349 1189 378 q 936 321 1038 321 q 788 329 861 321 q 692 346 714 338 q 686 246 686 297 q 728 90 686 140 q 878 39 769 39 l 1168 39 l 1161 3 q 869 -8 1046 -8 q 724 27 781 -8 q 647 124 668 63 q 508 33 592 75 q 344 -8 425 -8 m 908 364 q 1133 408 1051 364 q 1214 539 1214 451 q 1165 660 1214 617 q 1025 704 1115 704 q 843 667 908 704 q 747 563 778 631 q 696 378 717 494 q 753 371 697 378 q 908 364 810 364 m 347 42 q 503 79 424 42 q 638 167 583 117 q 631 239 631 193 q 656 454 631 346 q 738 639 681 563 q 514 699 622 699 q 258 567 332 699 q 185 247 185 435 q 347 42 185 42 m 931 1063 l 986 1063 l 776 876 l 742 876 l 931 1063 z "},"b":{"ha":783,"x_min":106,"x_max":774,"o":"m 433 -8 q 297 17 368 -8 q 175 78 226 43 l 150 0 l 106 0 l 274 1060 l 331 1060 l 268 661 q 415 724 336 701 q 551 747 494 747 q 713 685 651 747 q 774 506 774 622 q 758 349 774 440 q 649 88 732 185 q 433 -8 565 -8 m 425 40 q 610 122 543 40 q 703 364 678 204 q 717 499 717 450 q 668 650 717 601 q 539 699 619 699 q 261 622 424 699 l 182 115 q 300 60 244 81 q 425 40 356 40 z "},"ḃ":{"ha":783,"x_min":106,"x_max":774,"o":"m 433 -8 q 297 17 368 -8 q 175 78 226 43 l 150 0 l 106 0 l 274 1060 l 331 1060 l 268 661 q 415 724 336 701 q 551 747 494 747 q 713 685 651 747 q 774 506 774 622 q 758 349 774 440 q 649 88 732 185 q 433 -8 565 -8 m 425 40 q 610 122 543 40 q 703 364 678 204 q 717 499 717 450 q 668 650 717 601 q 539 699 619 699 q 261 622 424 699 l 182 115 q 300 60 244 81 q 425 40 356 40 m 315 1207 q 304 1211 308 1207 q 300 1222 300 1215 l 300 1225 l 315 1318 q 336 1336 317 1336 l 363 1336 q 378 1322 378 1336 l 378 1318 l 363 1225 q 356 1212 361 1217 q 342 1207 350 1207 l 315 1207 z "},"c":{"ha":672,"x_min":126,"x_max":717,"o":"m 382 -8 q 192 48 257 -8 q 126 253 126 104 q 140 383 126 297 q 256 660 169 574 q 482 747 342 747 q 717 735 560 747 l 710 699 l 486 699 q 297 625 369 699 q 194 365 224 551 q 183 256 183 294 q 207 122 183 169 q 276 57 231 75 q 396 39 322 39 l 624 39 l 619 4 q 382 -8 514 -8 z "},"ć":{"ha":672,"x_min":126,"x_max":717,"o":"m 382 -8 q 192 48 257 -8 q 126 253 126 104 q 140 383 126 297 q 256 660 169 574 q 482 747 342 747 q 717 735 560 747 l 710 699 l 486 699 q 297 625 369 699 q 194 365 224 551 q 183 256 183 294 q 207 122 183 169 q 276 57 231 75 q 396 39 322 39 l 624 39 l 619 4 q 382 -8 514 -8 m 654 1063 l 710 1063 l 500 876 l 465 876 l 654 1063 z "},"č":{"ha":672,"x_min":126,"x_max":735,"o":"m 382 -8 q 192 48 257 -8 q 126 253 126 104 q 140 383 126 297 q 256 660 169 574 q 482 747 342 747 q 717 735 560 747 l 710 699 l 486 699 q 297 625 369 699 q 194 365 224 551 q 183 256 183 294 q 207 122 183 169 q 276 57 231 75 q 396 39 322 39 l 624 39 l 619 4 q 382 -8 514 -8 m 350 1060 l 389 1060 l 510 907 l 697 1060 l 735 1060 l 526 876 l 483 876 l 350 1060 z "},"ç":{"ha":672,"x_min":126,"x_max":717,"o":"m 486 699 q 297 625 369 699 q 194 365 224 551 q 183 256 183 294 q 207 122 183 169 q 276 57 231 75 q 396 39 322 39 l 624 39 l 619 4 q 382 -8 514 -8 l 361 -8 l 290 -92 q 363 -110 340 -93 q 385 -160 385 -128 q 368 -209 385 -183 q 319 -252 351 -235 q 243 -269 286 -269 l 210 -269 l 214 -246 l 249 -243 q 322 -211 294 -239 q 349 -160 349 -183 q 327 -121 349 -135 q 250 -106 306 -107 l 333 -7 q 179 61 232 3 q 126 253 126 119 q 140 383 126 297 q 256 660 169 574 q 482 747 342 747 q 717 735 560 747 l 710 699 l 486 699 z "},"ḉ":{"ha":672,"x_min":126,"x_max":717,"o":"m 500 876 l 465 876 l 654 1063 l 710 1063 l 500 876 m 486 699 q 297 625 369 699 q 194 365 224 551 q 183 256 183 294 q 207 122 183 169 q 276 57 231 75 q 396 39 322 39 l 624 39 l 619 4 q 382 -8 514 -8 l 361 -8 l 290 -92 q 363 -110 340 -93 q 385 -160 385 -128 q 368 -209 385 -183 q 319 -252 351 -235 q 243 -269 286 -269 l 210 -269 l 214 -246 l 249 -243 q 322 -211 294 -239 q 349 -160 349 -183 q 327 -121 349 -135 q 250 -106 306 -107 l 333 -7 q 179 61 232 3 q 126 253 126 119 q 140 383 126 297 q 256 660 169 574 q 482 747 342 747 q 717 735 560 747 l 710 699 l 486 699 z "},"ĉ":{"ha":672,"x_min":126,"x_max":717,"o":"m 382 -8 q 192 48 257 -8 q 126 253 126 104 q 140 383 126 297 q 256 660 169 574 q 482 747 342 747 q 717 735 560 747 l 710 699 l 486 699 q 297 625 369 699 q 194 365 224 551 q 183 256 183 294 q 207 122 183 169 q 276 57 231 75 q 396 39 322 39 l 624 39 l 619 4 q 382 -8 514 -8 m 514 1060 l 557 1060 l 690 876 l 653 876 l 529 1029 l 343 876 l 306 876 l 514 1060 z "},"ċ":{"ha":672,"x_min":126,"x_max":717,"o":"m 382 -8 q 192 48 257 -8 q 126 253 126 104 q 140 383 126 297 q 256 660 169 574 q 482 747 342 747 q 717 735 560 747 l 710 699 l 486 699 q 297 625 369 699 q 194 365 224 551 q 183 256 183 294 q 207 122 183 169 q 276 57 231 75 q 396 39 322 39 l 624 39 l 619 4 q 382 -8 514 -8 m 485 929 q 474 933 478 929 q 469 944 469 938 l 469 947 l 485 1040 q 506 1058 486 1058 l 532 1058 q 547 1044 547 1058 l 547 1040 l 532 947 q 525 934 531 939 q 511 929 519 929 l 485 929 z "},"d":{"ha":781,"x_min":126,"x_max":843,"o":"m 346 -8 q 188 53 249 -8 q 126 232 126 115 q 140 381 126 310 q 201 582 164 504 q 311 703 238 660 q 508 747 385 747 q 626 735 574 747 q 728 697 679 724 l 786 1060 l 843 1060 l 675 0 l 631 0 l 631 81 q 495 18 569 44 q 346 -8 421 -8 m 357 40 q 494 60 428 40 q 636 118 560 81 l 719 649 q 623 687 672 675 q 508 699 574 699 q 343 663 404 699 q 250 558 282 628 q 196 367 218 488 q 182 244 182 288 q 231 90 182 139 q 357 40 279 40 z "},"ð":{"ha":781,"x_min":126,"x_max":863,"o":"m 665 950 q 779 613 779 836 q 758 365 779 492 q 693 139 736 219 q 578 25 650 58 q 389 -8 506 -8 q 195 49 264 -8 q 126 239 126 107 q 138 368 126 293 q 204 597 161 515 q 318 711 247 678 q 501 744 389 744 q 732 604 685 744 l 732 608 q 617 932 732 832 l 400 850 l 393 876 l 592 951 q 347 1015 500 1013 l 354 1060 q 643 969 538 1057 l 856 1050 l 863 1024 l 665 950 m 701 367 q 713 493 713 438 q 662 649 713 601 q 499 696 611 696 q 345 668 403 696 q 252 567 288 640 q 194 356 217 494 q 183 239 183 285 q 238 83 183 125 q 399 40 293 40 q 547 66 490 40 q 642 162 604 92 q 701 367 679 232 z "},"ď":{"ha":781,"x_min":126,"x_max":983,"o":"m 346 -8 q 188 53 249 -8 q 126 232 126 115 q 140 381 126 310 q 201 582 164 504 q 311 703 238 660 q 508 747 385 747 q 626 735 574 747 q 728 697 679 724 l 786 1060 l 843 1060 l 675 0 l 631 0 l 631 81 q 495 18 569 44 q 346 -8 421 -8 m 357 40 q 494 60 428 40 q 636 118 560 81 l 719 649 q 623 687 672 675 q 508 699 574 699 q 343 663 404 699 q 250 558 282 628 q 196 367 218 488 q 182 244 182 288 q 231 90 182 139 q 357 40 279 40 m 914 1004 l 928 1097 l 983 1097 l 969 1004 l 929 789 l 893 789 l 914 1004 z "},"đ":{"ha":790,"x_min":126,"x_max":922,"o":"m 918 885 l 815 885 l 675 0 l 631 0 l 631 81 q 495 18 569 44 q 346 -8 421 -8 q 188 53 249 -8 q 126 232 126 115 q 140 381 126 310 q 201 582 164 504 q 311 703 238 660 q 508 747 385 747 q 626 735 574 747 q 728 697 679 724 l 758 885 l 547 885 l 551 914 l 763 914 l 786 1060 l 843 1060 l 819 914 l 922 914 l 918 885 m 719 649 q 623 687 672 675 q 508 699 574 699 q 343 663 404 699 q 250 558 282 628 q 196 367 218 488 q 182 244 182 288 q 231 90 182 139 q 357 40 279 40 q 494 60 428 40 q 636 118 560 81 l 719 649 z "},"ḋ":{"ha":781,"x_min":126,"x_max":889,"o":"m 346 -8 q 188 53 249 -8 q 126 232 126 115 q 140 381 126 310 q 201 582 164 504 q 311 703 238 660 q 508 747 385 747 q 626 735 574 747 q 728 697 679 724 l 786 1060 l 843 1060 l 675 0 l 631 0 l 631 81 q 495 18 569 44 q 346 -8 421 -8 m 357 40 q 494 60 428 40 q 636 118 560 81 l 719 649 q 623 687 672 675 q 508 699 574 699 q 343 663 404 699 q 250 558 282 628 q 196 367 218 488 q 182 244 182 288 q 231 90 182 139 q 357 40 279 40 m 826 1207 q 815 1211 819 1207 q 811 1222 811 1215 l 811 1225 l 826 1318 q 847 1336 828 1336 l 874 1336 q 889 1322 889 1336 l 889 1318 l 874 1225 q 867 1212 872 1217 q 853 1207 861 1207 l 826 1207 z "},"ḍ":{"ha":781,"x_min":126,"x_max":843,"o":"m 346 -8 q 188 53 249 -8 q 126 232 126 115 q 140 381 126 310 q 201 582 164 504 q 311 703 238 660 q 508 747 385 747 q 626 735 574 747 q 728 697 679 724 l 786 1060 l 843 1060 l 675 0 l 631 0 l 631 81 q 495 18 569 44 q 346 -8 421 -8 m 357 40 q 494 60 428 40 q 636 118 560 81 l 719 649 q 623 687 672 675 q 508 699 574 699 q 343 663 404 699 q 250 558 282 628 q 196 367 218 488 q 182 244 182 288 q 231 90 182 139 q 357 40 279 40 m 324 -279 q 313 -275 317 -279 q 308 -264 308 -271 l 308 -261 l 324 -168 q 344 -150 325 -150 l 371 -150 q 386 -164 386 -150 l 386 -168 l 371 -261 q 364 -274 369 -269 q 350 -279 358 -279 l 324 -279 z "},"ḏ":{"ha":781,"x_min":126,"x_max":843,"o":"m 346 -8 q 188 53 249 -8 q 126 232 126 115 q 140 381 126 310 q 201 582 164 504 q 311 703 238 660 q 508 747 385 747 q 626 735 574 747 q 728 697 679 724 l 786 1060 l 843 1060 l 675 0 l 631 0 l 631 81 q 495 18 569 44 q 346 -8 421 -8 m 357 40 q 494 60 428 40 q 636 118 560 81 l 719 649 q 623 687 672 675 q 508 699 574 699 q 343 663 404 699 q 250 558 282 628 q 196 367 218 488 q 182 244 182 288 q 231 90 182 139 q 357 40 279 40 m 190 -208 l 546 -208 l 539 -243 l 183 -243 l 190 -208 z "},"e":{"ha":761,"x_min":128,"x_max":768,"o":"m 432 -8 q 201 53 275 -8 q 128 242 128 115 q 143 406 128 314 q 256 663 168 574 q 513 751 344 751 q 703 706 638 751 q 768 560 768 661 q 408 321 768 321 q 283 328 342 321 q 192 344 225 336 q 185 242 185 303 q 245 87 185 135 q 446 39 306 39 l 664 39 l 657 3 q 432 -8 519 -8 m 379 364 q 626 405 540 364 q 713 554 713 446 q 663 669 713 635 q 508 704 613 704 q 290 624 360 704 q 196 379 219 544 q 379 364 268 364 z "},"é":{"ha":761,"x_min":128,"x_max":768,"o":"m 432 -8 q 201 53 275 -8 q 128 242 128 115 q 143 406 128 314 q 256 663 168 574 q 513 751 344 751 q 703 706 638 751 q 768 560 768 661 q 408 321 768 321 q 283 328 342 321 q 192 344 225 336 q 185 242 185 303 q 245 87 185 135 q 446 39 306 39 l 664 39 l 657 3 q 432 -8 519 -8 m 379 364 q 626 405 540 364 q 713 554 713 446 q 663 669 713 635 q 508 704 613 704 q 290 624 360 704 q 196 379 219 544 q 379 364 268 364 m 692 1063 l 747 1063 l 538 876 l 503 876 l 692 1063 z "},"ĕ":{"ha":761,"x_min":128,"x_max":768,"o":"m 432 -8 q 201 53 275 -8 q 128 242 128 115 q 143 406 128 314 q 256 663 168 574 q 513 751 344 751 q 703 706 638 751 q 768 560 768 661 q 408 321 768 321 q 283 328 342 321 q 192 344 225 336 q 185 242 185 303 q 245 87 185 135 q 446 39 306 39 l 664 39 l 657 3 q 432 -8 519 -8 m 379 364 q 626 405 540 364 q 713 554 713 446 q 663 669 713 635 q 508 704 613 704 q 290 624 360 704 q 196 379 219 544 q 379 364 268 364 m 533 878 q 426 911 468 878 q 385 1019 385 944 q 388 1067 385 1033 l 418 1067 q 415 1026 415 1036 q 448 937 415 967 q 535 907 481 907 q 649 945 601 907 q 711 1067 697 983 l 740 1067 q 667 921 724 964 q 533 878 611 878 z "},"ě":{"ha":761,"x_min":128,"x_max":772,"o":"m 432 -8 q 201 53 275 -8 q 128 242 128 115 q 143 406 128 314 q 256 663 168 574 q 513 751 344 751 q 703 706 638 751 q 768 560 768 661 q 408 321 768 321 q 283 328 342 321 q 192 344 225 336 q 185 242 185 303 q 245 87 185 135 q 446 39 306 39 l 664 39 l 657 3 q 432 -8 519 -8 m 379 364 q 626 405 540 364 q 713 554 713 446 q 663 669 713 635 q 508 704 613 704 q 290 624 360 704 q 196 379 219 544 q 379 364 268 364 m 388 1060 l 426 1060 l 547 907 l 735 1060 l 772 1060 l 564 876 l 521 876 l 388 1060 z "},"ḝ":{"ha":761,"x_min":128,"x_max":768,"o":"m 533 878 q 426 911 468 878 q 385 1019 385 944 q 388 1067 385 1033 l 418 1067 q 415 1026 415 1036 q 448 937 415 967 q 535 907 481 907 q 649 945 601 907 q 711 1067 697 983 l 740 1067 q 667 921 724 964 q 533 878 611 878 m 408 321 q 283 328 342 321 q 192 344 225 336 q 185 242 185 303 q 245 87 185 135 q 446 39 306 39 l 664 39 l 657 3 q 432 -8 519 -8 l 426 -8 l 356 -92 q 428 -110 406 -93 q 450 -160 450 -128 q 433 -209 450 -183 q 384 -252 417 -235 q 308 -269 351 -269 l 275 -269 l 279 -246 l 314 -243 q 387 -211 360 -239 q 414 -160 414 -183 q 392 -121 414 -135 q 315 -106 371 -107 l 397 -7 q 193 60 258 -1 q 128 242 128 122 q 143 406 128 314 q 256 663 168 574 q 513 751 344 751 q 703 706 638 751 q 768 560 768 661 q 408 321 768 321 m 508 704 q 290 624 360 704 q 196 379 219 544 q 379 364 268 364 q 626 405 540 364 q 713 554 713 446 q 663 669 713 635 q 508 704 613 704 z "},"ê":{"ha":761,"x_min":128,"x_max":768,"o":"m 432 -8 q 201 53 275 -8 q 128 242 128 115 q 143 406 128 314 q 256 663 168 574 q 513 751 344 751 q 703 706 638 751 q 768 560 768 661 q 408 321 768 321 q 283 328 342 321 q 192 344 225 336 q 185 242 185 303 q 245 87 185 135 q 446 39 306 39 l 664 39 l 657 3 q 432 -8 519 -8 m 379 364 q 626 405 540 364 q 713 554 713 446 q 663 669 713 635 q 508 704 613 704 q 290 624 360 704 q 196 379 219 544 q 379 364 268 364 m 551 1060 l 594 1060 l 728 876 l 690 876 l 567 1029 l 381 876 l 343 876 l 551 1060 z "},"ế":{"ha":761,"x_min":128,"x_max":886,"o":"m 432 -8 q 201 53 275 -8 q 128 242 128 115 q 143 406 128 314 q 256 663 168 574 q 513 751 344 751 q 703 706 638 751 q 768 560 768 661 q 408 321 768 321 q 283 328 342 321 q 192 344 225 336 q 185 242 185 303 q 245 87 185 135 q 446 39 306 39 l 664 39 l 657 3 q 432 -8 519 -8 m 379 364 q 626 405 540 364 q 713 554 713 446 q 663 669 713 635 q 508 704 613 704 q 290 624 360 704 q 196 379 219 544 q 379 364 268 364 m 835 1160 l 886 1160 l 683 976 l 651 976 l 835 1160 m 521 1006 l 564 1006 l 707 876 l 668 876 l 538 975 l 360 876 l 322 876 l 521 1006 z "},"ệ":{"ha":761,"x_min":128,"x_max":768,"o":"m 432 -8 q 201 53 275 -8 q 128 242 128 115 q 143 406 128 314 q 256 663 168 574 q 513 751 344 751 q 703 706 638 751 q 768 560 768 661 q 408 321 768 321 q 283 328 342 321 q 192 344 225 336 q 185 242 185 303 q 245 87 185 135 q 446 39 306 39 l 664 39 l 657 3 q 432 -8 519 -8 m 379 364 q 626 405 540 364 q 713 554 713 446 q 663 669 713 635 q 508 704 613 704 q 290 624 360 704 q 196 379 219 544 q 379 364 268 364 m 551 1060 l 594 1060 l 728 876 l 690 876 l 567 1029 l 381 876 l 343 876 l 551 1060 m 347 -279 q 336 -275 340 -279 q 332 -264 332 -271 l 332 -261 l 347 -168 q 368 -150 349 -150 l 394 -150 q 410 -164 410 -150 l 410 -168 l 394 -261 q 388 -274 393 -269 q 374 -279 382 -279 l 347 -279 z "},"ề":{"ha":761,"x_min":128,"x_max":768,"o":"m 432 -8 q 201 53 275 -8 q 128 242 128 115 q 143 406 128 314 q 256 663 168 574 q 513 751 344 751 q 703 706 638 751 q 768 560 768 661 q 408 321 768 321 q 283 328 342 321 q 192 344 225 336 q 185 242 185 303 q 245 87 185 135 q 446 39 306 39 l 664 39 l 657 3 q 432 -8 519 -8 m 379 364 q 626 405 540 364 q 713 554 713 446 q 663 669 713 635 q 508 704 613 704 q 290 624 360 704 q 196 379 219 544 q 379 364 268 364 m 246 1160 l 299 1160 l 422 976 l 390 976 l 246 1160 m 511 1006 l 554 1006 l 697 876 l 658 876 l 528 975 l 350 876 l 313 876 l 511 1006 z "},"ể":{"ha":761,"x_min":128,"x_max":811,"o":"m 432 -8 q 201 53 275 -8 q 128 242 128 115 q 143 406 128 314 q 256 663 168 574 q 513 751 344 751 q 703 706 638 751 q 768 560 768 661 q 408 321 768 321 q 283 328 342 321 q 192 344 225 336 q 185 242 185 303 q 245 87 185 135 q 446 39 306 39 l 664 39 l 657 3 q 432 -8 519 -8 m 379 364 q 626 405 540 364 q 713 554 713 446 q 663 669 713 635 q 508 704 613 704 q 290 624 360 704 q 196 379 219 544 q 379 364 268 364 m 679 974 q 755 1017 732 990 q 778 1072 778 1043 q 717 1118 778 1118 q 663 1110 688 1118 l 667 1138 q 726 1147 696 1147 q 790 1128 769 1147 q 811 1075 811 1110 q 778 999 811 1033 q 675 946 746 964 l 679 974 m 526 1006 l 569 1006 l 711 876 l 674 876 l 543 975 l 365 876 l 326 876 l 526 1006 z "},"ễ":{"ha":761,"x_min":128,"x_max":794,"o":"m 432 -8 q 201 53 275 -8 q 128 242 128 115 q 143 406 128 314 q 256 663 168 574 q 513 751 344 751 q 703 706 638 751 q 768 560 768 661 q 408 321 768 321 q 283 328 342 321 q 192 344 225 336 q 185 242 185 303 q 245 87 185 135 q 446 39 306 39 l 664 39 l 657 3 q 432 -8 519 -8 m 379 364 q 626 405 540 364 q 713 554 713 446 q 663 669 713 635 q 508 704 613 704 q 290 624 360 704 q 196 379 219 544 q 379 364 268 364 m 333 1072 q 378 1151 342 1126 q 461 1175 415 1175 q 515 1166 490 1175 q 572 1139 539 1157 q 624 1114 604 1122 q 668 1106 644 1106 q 732 1124 706 1106 q 764 1175 758 1142 l 794 1175 q 753 1101 788 1128 q 664 1074 718 1074 q 613 1083 636 1074 q 560 1108 590 1092 q 506 1133 529 1125 q 456 1142 482 1142 q 395 1124 421 1142 q 364 1072 369 1107 l 333 1072 m 526 1006 l 571 1006 l 711 876 l 674 876 l 543 975 l 365 876 l 326 876 l 526 1006 z "},"ȅ":{"ha":761,"x_min":128,"x_max":768,"o":"m 432 -8 q 201 53 275 -8 q 128 242 128 115 q 143 406 128 314 q 256 663 168 574 q 513 751 344 751 q 703 706 638 751 q 768 560 768 661 q 408 321 768 321 q 283 328 342 321 q 192 344 225 336 q 185 242 185 303 q 245 87 185 135 q 446 39 306 39 l 664 39 l 657 3 q 432 -8 519 -8 m 379 364 q 626 405 540 364 q 713 554 713 446 q 663 669 713 635 q 508 704 613 704 q 290 624 360 704 q 196 379 219 544 q 379 364 268 364 m 306 1063 l 358 1063 l 490 876 l 457 876 l 306 1063 m 483 1063 l 536 1063 l 668 876 l 635 876 l 483 1063 z "},"ë":{"ha":761,"x_min":128,"x_max":768,"o":"m 432 -8 q 201 53 275 -8 q 128 242 128 115 q 143 406 128 314 q 256 663 168 574 q 513 751 344 751 q 703 706 638 751 q 768 560 768 661 q 408 321 768 321 q 283 328 342 321 q 192 344 225 336 q 185 242 185 303 q 245 87 185 135 q 446 39 306 39 l 664 39 l 657 3 q 432 -8 519 -8 m 379 364 q 626 405 540 364 q 713 554 713 446 q 663 669 713 635 q 508 704 613 704 q 290 624 360 704 q 196 379 219 544 q 379 364 268 364 m 360 919 q 344 935 344 919 l 360 1031 q 382 1049 361 1049 l 408 1049 q 424 1035 424 1049 q 407 938 424 1040 q 399 924 406 929 q 386 919 393 919 l 360 919 m 647 919 q 632 935 632 919 l 647 1031 q 669 1049 649 1049 l 696 1049 q 711 1035 711 1049 q 694 938 711 1040 q 687 924 693 929 q 674 919 681 919 l 647 919 z "},"ė":{"ha":761,"x_min":128,"x_max":768,"o":"m 432 -8 q 201 53 275 -8 q 128 242 128 115 q 143 406 128 314 q 256 663 168 574 q 513 751 344 751 q 703 706 638 751 q 768 560 768 661 q 408 321 768 321 q 283 328 342 321 q 192 344 225 336 q 185 242 185 303 q 245 87 185 135 q 446 39 306 39 l 664 39 l 657 3 q 432 -8 519 -8 m 379 364 q 626 405 540 364 q 713 554 713 446 q 663 669 713 635 q 508 704 613 704 q 290 624 360 704 q 196 379 219 544 q 379 364 268 364 m 522 929 q 511 933 515 929 q 507 944 507 938 l 507 947 l 522 1040 q 543 1058 524 1058 l 569 1058 q 585 1044 585 1058 l 585 1040 l 569 947 q 563 934 568 939 q 549 929 557 929 l 522 929 z "},"ẹ":{"ha":761,"x_min":128,"x_max":768,"o":"m 432 -8 q 201 53 275 -8 q 128 242 128 115 q 143 406 128 314 q 256 663 168 574 q 513 751 344 751 q 703 706 638 751 q 768 560 768 661 q 408 321 768 321 q 283 328 342 321 q 192 344 225 336 q 185 242 185 303 q 245 87 185 135 q 446 39 306 39 l 664 39 l 657 3 q 432 -8 519 -8 m 379 364 q 626 405 540 364 q 713 554 713 446 q 663 669 713 635 q 508 704 613 704 q 290 624 360 704 q 196 379 219 544 q 379 364 268 364 m 347 -279 q 336 -275 340 -279 q 332 -264 332 -271 l 332 -261 l 347 -168 q 368 -150 349 -150 l 394 -150 q 410 -164 410 -150 l 410 -168 l 394 -261 q 388 -274 393 -269 q 374 -279 382 -279 l 347 -279 z "},"è":{"ha":761,"x_min":128,"x_max":768,"o":"m 432 -8 q 201 53 275 -8 q 128 242 128 115 q 143 406 128 314 q 256 663 168 574 q 513 751 344 751 q 703 706 638 751 q 768 560 768 661 q 408 321 768 321 q 283 328 342 321 q 192 344 225 336 q 185 242 185 303 q 245 87 185 135 q 446 39 306 39 l 664 39 l 657 3 q 432 -8 519 -8 m 379 364 q 626 405 540 364 q 713 554 713 446 q 663 669 713 635 q 508 704 613 704 q 290 624 360 704 q 196 379 219 544 q 379 364 268 364 m 396 1063 l 449 1063 l 581 876 l 547 876 l 396 1063 z "},"ẻ":{"ha":761,"x_min":128,"x_max":768,"o":"m 432 -8 q 201 53 275 -8 q 128 242 128 115 q 143 406 128 314 q 256 663 168 574 q 513 751 344 751 q 703 706 638 751 q 768 560 768 661 q 408 321 768 321 q 283 328 342 321 q 192 344 225 336 q 185 242 185 303 q 245 87 185 135 q 446 39 306 39 l 664 39 l 657 3 q 432 -8 519 -8 m 379 364 q 626 405 540 364 q 713 554 713 446 q 663 669 713 635 q 508 704 613 704 q 290 624 360 704 q 196 379 219 544 q 379 364 268 364 m 506 874 q 613 989 613 906 q 547 1044 613 1044 q 493 1036 521 1044 l 497 1064 q 560 1072 524 1072 q 647 993 647 1072 q 612 904 647 943 q 500 844 576 865 l 506 874 z "},"ȇ":{"ha":761,"x_min":128,"x_max":768,"o":"m 432 -8 q 201 53 275 -8 q 128 242 128 115 q 143 406 128 314 q 256 663 168 574 q 513 751 344 751 q 703 706 638 751 q 768 560 768 661 q 408 321 768 321 q 283 328 342 321 q 192 344 225 336 q 185 242 185 303 q 245 87 185 135 q 446 39 306 39 l 664 39 l 657 3 q 432 -8 519 -8 m 379 364 q 626 405 540 364 q 713 554 713 446 q 663 669 713 635 q 508 704 613 704 q 290 624 360 704 q 196 379 219 544 q 379 364 268 364 m 344 878 q 417 1024 361 982 q 551 1067 474 1067 q 658 1033 617 1067 q 700 925 700 1000 q 697 878 700 911 l 667 878 q 669 918 669 908 q 636 1008 669 979 q 547 1038 603 1038 q 435 999 483 1038 q 374 878 388 961 l 344 878 z "},"ē":{"ha":761,"x_min":128,"x_max":768,"o":"m 432 -8 q 201 53 275 -8 q 128 242 128 115 q 143 406 128 314 q 256 663 168 574 q 513 751 344 751 q 703 706 638 751 q 768 560 768 661 q 408 321 768 321 q 283 328 342 321 q 192 344 225 336 q 185 242 185 303 q 245 87 185 135 q 446 39 306 39 l 664 39 l 657 3 q 432 -8 519 -8 m 379 364 q 626 405 540 364 q 713 554 713 446 q 663 669 713 635 q 508 704 613 704 q 290 624 360 704 q 196 379 219 544 q 379 364 268 364 m 374 986 l 729 986 l 722 951 l 367 951 l 374 986 z "},"ḗ":{"ha":761,"x_min":128,"x_max":775,"o":"m 432 -8 q 201 53 275 -8 q 128 242 128 115 q 143 406 128 314 q 256 663 168 574 q 513 751 344 751 q 703 706 638 751 q 768 560 768 661 q 408 321 768 321 q 283 328 342 321 q 192 344 225 336 q 185 242 185 303 q 245 87 185 135 q 446 39 306 39 l 664 39 l 657 3 q 432 -8 519 -8 m 379 364 q 626 405 540 364 q 713 554 713 446 q 663 669 713 635 q 508 704 613 704 q 290 624 360 704 q 196 379 219 544 q 379 364 268 364 m 374 986 l 729 986 l 722 951 l 367 951 l 374 986 m 719 1235 l 775 1235 l 565 1049 l 531 1049 l 719 1235 z "},"ḕ":{"ha":761,"x_min":128,"x_max":768,"o":"m 432 -8 q 201 53 275 -8 q 128 242 128 115 q 143 406 128 314 q 256 663 168 574 q 513 751 344 751 q 703 706 638 751 q 768 560 768 661 q 408 321 768 321 q 283 328 342 321 q 192 344 225 336 q 185 242 185 303 q 245 87 185 135 q 446 39 306 39 l 664 39 l 657 3 q 432 -8 519 -8 m 379 364 q 626 405 540 364 q 713 554 713 446 q 663 669 713 635 q 508 704 613 704 q 290 624 360 704 q 196 379 219 544 q 379 364 268 364 m 374 986 l 729 986 l 722 951 l 367 951 l 374 986 m 396 1235 l 449 1235 l 581 1049 l 547 1049 l 396 1235 z "},"ę":{"ha":761,"x_min":128,"x_max":768,"o":"m 408 321 q 283 328 342 321 q 192 344 225 336 q 185 242 185 303 q 245 87 185 135 q 446 39 306 39 l 664 39 l 657 3 q 568 -65 600 -25 q 536 -137 536 -106 q 567 -198 536 -176 q 656 -219 597 -219 l 664 -219 l 658 -250 q 626 -251 647 -251 q 533 -224 568 -251 q 499 -150 499 -197 q 530 -71 499 -112 q 626 0 561 -29 q 432 -8 521 -8 q 201 53 275 -8 q 128 242 128 115 q 143 406 128 314 q 256 663 168 574 q 513 751 344 751 q 703 706 638 751 q 768 560 768 661 q 408 321 768 321 m 508 704 q 290 624 360 704 q 196 379 219 544 q 379 364 268 364 q 626 405 540 364 q 713 554 713 446 q 663 669 713 635 q 508 704 613 704 z "},"ẽ":{"ha":761,"x_min":128,"x_max":819,"o":"m 432 -8 q 201 53 275 -8 q 128 242 128 115 q 143 406 128 314 q 256 663 168 574 q 513 751 344 751 q 703 706 638 751 q 768 560 768 661 q 408 321 768 321 q 283 328 342 321 q 192 344 225 336 q 185 242 185 303 q 245 87 185 135 q 446 39 306 39 l 664 39 l 657 3 q 432 -8 519 -8 m 379 364 q 626 405 540 364 q 713 554 713 446 q 663 669 713 635 q 508 704 613 704 q 290 624 360 704 q 196 379 219 544 q 379 364 268 364 m 322 913 q 374 1012 333 981 q 468 1043 415 1043 q 521 1031 497 1043 q 581 994 544 1019 q 633 960 611 971 q 681 949 656 949 q 751 974 722 949 q 789 1044 781 999 l 819 1044 q 772 949 808 983 q 675 914 735 914 q 624 926 649 914 q 569 961 600 938 q 513 997 536 985 q 461 1008 489 1008 q 390 984 421 1008 q 353 913 360 960 l 322 913 z "},"ə":{"ha":764,"x_min":114,"x_max":754,"o":"m 450 747 q 681 685 607 747 q 754 497 754 624 q 739 333 754 425 q 626 76 714 165 q 369 -12 538 -12 q 179 33 244 -12 q 114 179 114 78 q 474 418 114 418 q 599 410 540 418 q 690 394 657 403 q 697 497 697 436 q 637 652 697 604 q 436 700 576 700 l 218 700 l 225 736 q 450 747 363 747 m 503 375 q 256 334 342 375 q 169 185 169 293 q 219 69 169 104 q 374 35 269 35 q 592 115 522 35 q 686 360 663 194 q 503 375 614 375 z "},"f":{"ha":506,"x_min":151,"x_max":663,"o":"m 269 688 l 151 688 l 157 725 l 278 739 l 297 856 q 322 961 308 919 q 379 1035 336 1003 q 501 1068 422 1068 q 663 1060 594 1068 l 657 1021 l 504 1021 q 421 1000 451 1021 q 376 943 390 979 q 353 847 363 907 l 335 739 l 585 739 l 576 688 l 326 688 l 218 0 l 161 0 l 269 688 z "},"ḟ":{"ha":506,"x_min":151,"x_max":663,"o":"m 269 688 l 151 688 l 157 725 l 278 739 l 297 856 q 322 961 308 919 q 379 1035 336 1003 q 501 1068 422 1068 q 663 1060 594 1068 l 657 1021 l 504 1021 q 421 1000 451 1021 q 376 943 390 979 q 353 847 363 907 l 335 739 l 585 739 l 576 688 l 326 688 l 218 0 l 161 0 l 269 688 m 493 1207 q 482 1211 486 1207 q 478 1222 478 1215 l 478 1225 l 493 1318 q 514 1336 494 1336 l 540 1336 q 556 1322 556 1336 l 556 1318 l 540 1225 q 533 1212 539 1217 q 519 1207 528 1207 l 493 1207 z "},"g":{"ha":779,"x_min":82,"x_max":789,"o":"m 82 -321 l 89 -282 l 308 -282 q 504 -233 422 -282 q 603 -86 586 -185 l 631 81 q 482 14 560 36 q 333 -8 404 -8 q 231 19 278 -8 q 155 101 183 47 q 126 231 126 156 q 142 388 126 289 q 203 589 161 511 q 323 707 246 667 q 522 747 400 747 q 789 725 678 747 l 660 -93 q 530 -281 638 -226 q 293 -329 422 -335 l 82 -321 m 351 40 q 485 58 421 40 q 636 118 550 76 l 725 689 l 640 693 q 496 699 543 699 q 292 622 361 699 q 197 379 224 546 q 183 238 183 286 q 231 90 183 140 q 351 40 278 40 z "},"ğ":{"ha":779,"x_min":82,"x_max":789,"o":"m 82 -321 l 89 -282 l 308 -282 q 504 -233 422 -282 q 603 -86 586 -185 l 631 81 q 482 14 560 36 q 333 -8 404 -8 q 231 19 278 -8 q 155 101 183 47 q 126 231 126 156 q 142 388 126 289 q 203 589 161 511 q 323 707 246 667 q 522 747 400 747 q 789 725 678 747 l 660 -93 q 530 -281 638 -226 q 293 -329 422 -335 l 82 -321 m 351 40 q 485 58 421 40 q 636 118 550 76 l 725 689 l 640 693 q 496 699 543 699 q 292 622 361 699 q 197 379 224 546 q 183 238 183 286 q 231 90 183 140 q 351 40 278 40 m 536 878 q 429 911 471 878 q 388 1019 388 944 q 390 1067 388 1033 l 421 1067 q 418 1026 418 1036 q 451 937 418 967 q 538 907 483 907 q 652 945 604 907 q 714 1067 700 983 l 743 1067 q 670 921 726 964 q 536 878 614 878 z "},"ǧ":{"ha":779,"x_min":82,"x_max":789,"o":"m 82 -321 l 89 -282 l 308 -282 q 504 -233 422 -282 q 603 -86 586 -185 l 631 81 q 482 14 560 36 q 333 -8 404 -8 q 231 19 278 -8 q 155 101 183 47 q 126 231 126 156 q 142 388 126 289 q 203 589 161 511 q 323 707 246 667 q 522 747 400 747 q 789 725 678 747 l 660 -93 q 530 -281 638 -226 q 293 -329 422 -335 l 82 -321 m 351 40 q 485 58 421 40 q 636 118 550 76 l 725 689 l 640 693 q 496 699 543 699 q 292 622 361 699 q 197 379 224 546 q 183 238 183 286 q 231 90 183 140 q 351 40 278 40 m 390 1060 l 429 1060 l 550 907 l 738 1060 l 775 1060 l 567 876 l 524 876 l 390 1060 z "},"ĝ":{"ha":779,"x_min":82,"x_max":789,"o":"m 82 -321 l 89 -282 l 308 -282 q 504 -233 422 -282 q 603 -86 586 -185 l 631 81 q 482 14 560 36 q 333 -8 404 -8 q 231 19 278 -8 q 155 101 183 47 q 126 231 126 156 q 142 388 126 289 q 203 589 161 511 q 323 707 246 667 q 522 747 400 747 q 789 725 678 747 l 660 -93 q 530 -281 638 -226 q 293 -329 422 -335 l 82 -321 m 351 40 q 485 58 421 40 q 636 118 550 76 l 725 689 l 640 693 q 496 699 543 699 q 292 622 361 699 q 197 379 224 546 q 183 238 183 286 q 231 90 183 140 q 351 40 278 40 m 554 1060 l 597 1060 l 731 876 l 693 876 l 569 1029 l 383 876 l 346 876 l 554 1060 z "},"ģ":{"ha":779,"x_min":82,"x_max":789,"o":"m 82 -321 l 89 -282 l 308 -282 q 504 -233 422 -282 q 603 -86 586 -185 l 631 81 q 482 14 560 36 q 333 -8 404 -8 q 231 19 278 -8 q 155 101 183 47 q 126 231 126 156 q 142 388 126 289 q 203 589 161 511 q 323 707 246 667 q 522 747 400 747 q 789 725 678 747 l 660 -93 q 530 -281 638 -226 q 293 -329 422 -335 l 82 -321 m 351 40 q 485 58 421 40 q 636 118 550 76 l 725 689 l 640 693 q 496 699 543 699 q 292 622 361 699 q 197 379 224 546 q 183 238 183 286 q 231 90 183 140 q 351 40 278 40 m 460 850 q 490 963 471 922 q 543 1022 508 1003 q 638 1040 578 1040 l 681 1040 l 675 1017 l 632 1011 q 566 996 590 1007 q 524 951 542 985 q 497 850 507 918 l 460 850 z "},"ġ":{"ha":779,"x_min":82,"x_max":789,"o":"m 82 -321 l 89 -282 l 308 -282 q 504 -233 422 -282 q 603 -86 586 -185 l 631 81 q 482 14 560 36 q 333 -8 404 -8 q 231 19 278 -8 q 155 101 183 47 q 126 231 126 156 q 142 388 126 289 q 203 589 161 511 q 323 707 246 667 q 522 747 400 747 q 789 725 678 747 l 660 -93 q 530 -281 638 -226 q 293 -329 422 -335 l 82 -321 m 351 40 q 485 58 421 40 q 636 118 550 76 l 725 689 l 640 693 q 496 699 543 699 q 292 622 361 699 q 197 379 224 546 q 183 238 183 286 q 231 90 183 140 q 351 40 278 40 m 525 929 q 514 933 518 929 q 510 944 510 938 l 510 947 l 525 1040 q 546 1058 526 1058 l 572 1058 q 588 1044 588 1058 l 588 1040 l 572 947 q 565 934 571 939 q 551 929 560 929 l 525 929 z "},"ḡ":{"ha":779,"x_min":82,"x_max":789,"o":"m 82 -321 l 89 -282 l 308 -282 q 504 -233 422 -282 q 603 -86 586 -185 l 631 81 q 482 14 560 36 q 333 -8 404 -8 q 231 19 278 -8 q 155 101 183 47 q 126 231 126 156 q 142 388 126 289 q 203 589 161 511 q 323 707 246 667 q 522 747 400 747 q 789 725 678 747 l 660 -93 q 530 -281 638 -226 q 293 -329 422 -335 l 82 -321 m 351 40 q 485 58 421 40 q 636 118 550 76 l 725 689 l 640 693 q 496 699 543 699 q 292 622 361 699 q 197 379 224 546 q 183 238 183 286 q 231 90 183 140 q 351 40 278 40 m 376 986 l 732 986 l 725 951 l 369 951 l 376 986 z "},"h":{"ha":789,"x_min":106,"x_max":768,"o":"m 274 1060 l 331 1060 l 267 654 q 579 751 418 751 q 720 706 672 751 q 768 572 768 660 q 764 510 768 543 l 682 0 l 625 0 l 704 499 q 708 557 708 519 q 669 665 708 632 q 554 699 631 699 q 408 678 474 699 q 261 613 343 658 l 163 0 l 106 0 l 274 1060 z "},"ħ":{"ha":789,"x_min":106,"x_max":768,"o":"m 579 751 q 720 706 672 751 q 768 572 768 660 q 764 510 768 543 l 682 0 l 625 0 l 704 499 q 708 557 708 519 q 669 665 708 632 q 554 699 631 699 q 408 678 474 699 q 261 613 343 658 l 163 0 l 106 0 l 246 885 l 139 885 l 144 914 l 250 914 l 274 1060 l 331 1060 l 307 914 l 515 914 l 510 885 l 303 885 l 267 654 q 579 751 418 751 z "},"ḫ":{"ha":789,"x_min":106,"x_max":768,"o":"m 274 1060 l 331 1060 l 267 654 q 579 751 418 751 q 720 706 672 751 q 768 572 768 660 q 764 510 768 543 l 682 0 l 625 0 l 704 499 q 708 557 708 519 q 669 665 708 632 q 554 699 631 699 q 408 678 474 699 q 261 613 343 658 l 163 0 l 106 0 l 274 1060 m 361 -303 q 254 -269 296 -303 q 213 -161 213 -236 q 215 -114 213 -147 l 244 -114 q 242 -154 242 -144 q 275 -244 242 -214 q 363 -274 308 -274 q 477 -235 429 -274 q 538 -114 525 -197 l 568 -114 q 494 -260 551 -218 q 361 -303 438 -303 z "},"ĥ":{"ha":789,"x_min":106,"x_max":768,"o":"m 274 1060 l 331 1060 l 267 654 q 579 751 418 751 q 720 706 672 751 q 768 572 768 660 q 764 510 768 543 l 682 0 l 625 0 l 704 499 q 708 557 708 519 q 669 665 708 632 q 554 699 631 699 q 408 678 474 699 q 261 613 343 658 l 163 0 l 106 0 l 274 1060 m 438 1338 l 481 1338 l 614 1154 l 576 1154 l 453 1307 l 267 1154 l 229 1154 l 438 1338 z "},"ḥ":{"ha":789,"x_min":106,"x_max":768,"o":"m 274 1060 l 331 1060 l 267 654 q 579 751 418 751 q 720 706 672 751 q 768 572 768 660 q 764 510 768 543 l 682 0 l 625 0 l 704 499 q 708 557 708 519 q 669 665 708 632 q 554 699 631 699 q 408 678 474 699 q 261 613 343 658 l 163 0 l 106 0 l 274 1060 m 324 -279 q 313 -275 317 -279 q 308 -264 308 -271 l 308 -261 l 324 -168 q 344 -150 325 -150 l 371 -150 q 386 -164 386 -150 l 386 -168 l 371 -261 q 364 -274 369 -269 q 350 -279 358 -279 l 324 -279 z "},"i":{"ha":269,"x_min":107,"x_max":329,"o":"m 257 885 q 245 890 250 885 q 242 903 240 894 l 257 996 q 279 1014 260 1014 l 314 1014 q 326 1009 322 1014 q 328 996 329 1004 l 313 903 q 293 885 311 885 l 257 885 m 224 739 l 281 739 l 164 0 l 107 0 l 224 739 z "},"ı":{"ha":269,"x_min":107,"x_max":281,"o":"m 224 739 l 281 739 l 164 0 l 107 0 l 224 739 z "},"í":{"ha":269,"x_min":107,"x_max":496,"o":"m 224 739 l 281 739 l 164 0 l 107 0 l 224 739 m 440 1063 l 496 1063 l 286 876 l 251 876 l 440 1063 z "},"ĭ":{"ha":269,"x_min":107,"x_max":489,"o":"m 224 739 l 281 739 l 164 0 l 107 0 l 224 739 m 282 878 q 175 911 217 878 q 133 1019 133 944 q 136 1067 133 1033 l 167 1067 q 164 1026 164 1036 q 197 937 164 967 q 283 907 229 907 q 398 945 350 907 q 460 1067 446 983 l 489 1067 q 416 921 472 964 q 282 878 360 878 z "},"î":{"ha":269,"x_min":92,"x_max":476,"o":"m 224 739 l 281 739 l 164 0 l 107 0 l 224 739 m 300 1060 l 343 1060 l 476 876 l 439 876 l 315 1029 l 129 876 l 92 876 l 300 1060 z "},"ȉ":{"ha":269,"x_min":54,"x_max":417,"o":"m 224 739 l 281 739 l 164 0 l 107 0 l 224 739 m 54 1063 l 107 1063 l 239 876 l 206 876 l 54 1063 m 232 1063 l 285 1063 l 417 876 l 383 876 l 232 1063 z "},"ï":{"ha":269,"x_min":93,"x_max":460,"o":"m 224 739 l 281 739 l 164 0 l 107 0 l 224 739 m 108 919 q 93 935 93 919 l 108 1031 q 131 1049 110 1049 l 157 1049 q 172 1035 172 1049 q 156 938 172 1040 q 148 924 154 929 q 135 919 142 919 l 108 919 m 396 919 q 381 935 381 919 l 396 1031 q 418 1049 397 1049 l 444 1049 q 460 1035 460 1049 q 443 938 460 1040 q 435 924 442 929 q 422 919 429 919 l 396 919 z "},"ḯ":{"ha":269,"x_min":93,"x_max":511,"o":"m 224 739 l 281 739 l 164 0 l 107 0 l 224 739 m 108 919 q 93 935 93 919 l 108 1031 q 131 1049 110 1049 l 157 1049 q 172 1035 172 1049 q 156 938 172 1040 q 148 924 154 929 q 135 919 142 919 l 108 919 m 396 919 q 381 935 381 919 l 396 1031 q 418 1049 397 1049 l 444 1049 q 460 1035 460 1049 q 443 938 460 1040 q 435 924 442 929 q 422 919 429 919 l 396 919 m 456 1290 l 511 1290 l 301 1104 l 267 1104 l 456 1290 z "},"ị":{"ha":269,"x_min":63,"x_max":328,"o":"m 257 885 q 245 890 250 885 q 242 903 240 894 l 257 996 q 279 1014 260 1014 l 314 1014 q 326 1009 322 1014 q 328 996 329 1004 l 313 903 q 293 885 311 885 l 257 885 m 224 739 l 281 739 l 164 0 l 107 0 l 224 739 m 78 -279 q 67 -275 71 -279 q 63 -264 63 -271 l 63 -261 l 78 -168 q 99 -150 79 -150 l 125 -150 q 140 -164 140 -150 l 140 -168 l 125 -261 q 118 -274 124 -269 q 104 -279 113 -279 l 78 -279 z "},"ì":{"ha":269,"x_min":107,"x_max":329,"o":"m 224 739 l 281 739 l 164 0 l 107 0 l 224 739 m 144 1063 l 197 1063 l 329 876 l 296 876 l 144 1063 z "},"ỉ":{"ha":269,"x_min":107,"x_max":396,"o":"m 224 739 l 281 739 l 164 0 l 107 0 l 224 739 m 254 874 q 361 989 361 906 q 296 1044 361 1044 q 242 1036 269 1044 l 246 1064 q 308 1072 272 1072 q 396 993 396 1072 q 360 904 396 943 q 249 844 325 865 l 254 874 z "},"ȋ":{"ha":269,"x_min":93,"x_max":449,"o":"m 224 739 l 281 739 l 164 0 l 107 0 l 224 739 m 93 878 q 166 1024 110 982 q 300 1067 222 1067 q 407 1033 365 1067 q 449 925 449 1000 q 446 878 449 911 l 415 878 q 418 918 418 908 q 385 1008 418 979 q 296 1038 351 1038 q 184 999 232 1038 q 122 878 136 961 l 93 878 z "},"ī":{"ha":269,"x_min":107,"x_max":478,"o":"m 224 739 l 281 739 l 164 0 l 107 0 l 224 739 m 122 986 l 478 986 l 471 951 l 115 951 l 122 986 z "},"į":{"ha":269,"x_min":6,"x_max":328,"o":"m 257 885 q 245 890 250 885 q 242 903 240 894 l 257 996 q 279 1014 260 1014 l 314 1014 q 326 1009 322 1014 q 328 996 329 1004 l 313 903 q 293 885 311 885 l 257 885 m 224 739 l 281 739 l 164 0 l 107 0 l 224 739 m 133 -254 q 40 -227 75 -254 q 6 -153 6 -200 q 38 -72 6 -114 q 139 0 71 -29 l 164 0 q 75 -68 107 -28 q 43 -140 43 -108 q 74 -201 43 -179 q 163 -222 104 -222 l 171 -222 l 165 -253 q 133 -254 154 -254 z "},"ĩ":{"ha":269,"x_min":71,"x_max":568,"o":"m 224 739 l 281 739 l 164 0 l 107 0 l 224 739 m 71 913 q 123 1012 82 981 q 217 1043 164 1043 q 269 1031 246 1043 q 329 994 293 1019 q 382 960 360 971 q 429 949 404 949 q 500 974 471 949 q 538 1044 529 999 l 568 1044 q 520 949 557 983 q 424 914 483 914 q 373 926 397 914 q 318 961 349 938 q 261 997 285 985 q 210 1008 238 1008 q 139 984 169 1008 q 101 913 108 960 l 71 913 z "},"j":{"ha":269,"x_min":54,"x_max":329,"o":"m 257 885 q 245 890 250 885 q 242 903 240 894 l 257 996 q 279 1014 260 1014 l 314 1014 q 326 1009 322 1014 q 328 996 329 1004 l 313 903 q 293 885 311 885 l 257 885 m 224 739 l 281 739 l 163 -6 q 93 -329 131 -192 l 54 -329 l 224 739 z "},"ȷ":{"ha":269,"x_min":54,"x_max":281,"o":"m 224 739 l 281 739 l 163 -6 q 93 -329 131 -192 l 54 -329 l 224 739 z "},"ĵ":{"ha":269,"x_min":54,"x_max":476,"o":"m 224 739 l 281 739 l 163 -6 q 93 -329 131 -192 l 54 -329 l 224 739 m 300 1060 l 343 1060 l 476 876 l 439 876 l 315 1029 l 129 876 l 92 876 l 300 1060 z "},"k":{"ha":703,"x_min":106,"x_max":692,"o":"m 274 1060 l 331 1060 l 231 422 q 482 498 379 425 q 635 739 585 571 l 692 739 q 428 411 619 492 l 656 0 l 593 0 l 375 394 q 297 381 340 386 q 224 375 254 375 l 163 0 l 106 0 l 274 1060 z "},"ķ":{"ha":703,"x_min":106,"x_max":692,"o":"m 274 1060 l 331 1060 l 231 422 q 482 498 379 425 q 635 739 585 571 l 692 739 q 428 411 619 492 l 656 0 l 593 0 l 375 394 q 297 381 340 386 q 224 375 254 375 l 163 0 l 106 0 l 274 1060 m 206 -247 l 249 -242 q 315 -225 290 -236 q 356 -180 339 -214 q 383 -79 374 -146 l 421 -79 q 391 -193 410 -153 q 338 -251 372 -233 q 243 -269 304 -269 l 201 -269 l 206 -247 z "},"ĸ":{"ha":703,"x_min":106,"x_max":692,"o":"m 222 739 l 279 739 l 226 397 q 478 479 376 400 q 635 739 581 558 l 692 739 q 581 510 649 593 q 424 386 513 428 l 656 0 l 593 0 l 371 369 q 295 355 338 360 q 218 350 253 350 l 163 0 l 106 0 l 222 739 z "},"l":{"ha":383,"x_min":133,"x_max":364,"o":"m 279 0 q 171 35 208 0 q 133 138 133 71 q 146 250 133 178 l 274 1060 l 331 1060 l 204 260 q 197 217 203 253 q 192 147 192 182 q 215 75 192 97 q 282 47 238 53 l 364 40 l 357 0 l 279 0 z "},"ĺ":{"ha":383,"x_min":133,"x_max":547,"o":"m 279 0 q 171 35 208 0 q 133 138 133 71 q 146 250 133 178 l 274 1060 l 331 1060 l 204 260 q 197 217 203 253 q 192 147 192 182 q 215 75 192 97 q 282 47 238 53 l 364 40 l 357 0 l 279 0 m 492 1340 l 547 1340 l 338 1154 l 303 1154 l 492 1340 z "},"ľ":{"ha":383,"x_min":133,"x_max":474,"o":"m 279 0 q 171 35 208 0 q 133 138 133 71 q 146 250 133 178 l 274 1060 l 331 1060 l 204 260 q 197 217 203 253 q 192 147 192 182 q 215 75 192 97 q 282 47 238 53 l 364 40 l 357 0 l 279 0 m 404 1004 l 418 1097 l 474 1097 l 460 1004 l 419 789 l 383 789 l 404 1004 z "},"ļ":{"ha":383,"x_min":96,"x_max":364,"o":"m 279 0 q 171 35 208 0 q 133 138 133 71 q 146 250 133 178 l 274 1060 l 331 1060 l 204 260 q 197 217 203 253 q 192 147 192 182 q 215 75 192 97 q 282 47 238 53 l 364 40 l 357 0 l 279 0 m 100 -247 l 143 -242 q 209 -225 185 -236 q 251 -180 233 -214 q 278 -79 268 -146 l 315 -79 q 285 -193 304 -153 q 233 -251 267 -233 q 138 -269 199 -269 l 96 -269 l 100 -247 z "},"ŀ":{"ha":392,"x_min":133,"x_max":483,"o":"m 279 0 q 171 35 208 0 q 133 138 133 71 q 146 250 133 178 l 274 1060 l 331 1060 l 204 260 q 197 217 203 253 q 192 147 192 182 q 215 75 192 97 q 282 47 238 53 l 364 40 l 357 0 l 279 0 m 426 560 q 414 565 418 560 q 411 578 410 571 l 417 610 q 438 628 419 628 l 468 628 q 482 610 486 628 l 478 578 q 457 560 476 560 l 426 560 z "},"ḷ":{"ha":383,"x_min":133,"x_max":364,"o":"m 279 0 q 171 35 208 0 q 133 138 133 71 q 146 250 133 178 l 274 1060 l 331 1060 l 204 260 q 197 217 203 253 q 192 147 192 182 q 215 75 192 97 q 282 47 238 53 l 364 40 l 357 0 l 279 0 m 183 -279 q 172 -275 176 -279 q 168 -264 168 -271 l 168 -261 l 183 -168 q 204 -150 185 -150 l 231 -150 q 246 -164 246 -150 l 246 -168 l 231 -261 q 224 -274 229 -269 q 210 -279 218 -279 l 183 -279 z "},"ḻ":{"ha":383,"x_min":43,"x_max":406,"o":"m 279 0 q 171 35 208 0 q 133 138 133 71 q 146 250 133 178 l 274 1060 l 331 1060 l 204 260 q 197 217 203 253 q 192 147 192 182 q 215 75 192 97 q 282 47 238 53 l 364 40 l 357 0 l 279 0 m 50 -208 l 406 -208 l 399 -243 l 43 -243 l 50 -208 z "},"ł":{"ha":383,"x_min":78,"x_max":421,"o":"m 204 260 q 197 217 203 253 q 192 147 192 182 q 215 75 192 97 q 282 47 238 53 l 364 40 l 357 0 l 279 0 q 171 35 208 0 q 133 138 133 71 q 146 250 133 178 l 193 547 l 78 510 l 83 550 l 199 586 l 274 1060 l 331 1060 l 260 607 l 421 657 l 415 617 l 253 567 l 204 260 z "},"m":{"ha":1307,"x_min":106,"x_max":1288,"o":"m 224 739 l 265 739 l 267 654 q 575 751 429 751 q 698 722 656 751 q 761 638 740 693 q 920 720 833 689 q 1092 751 1007 751 q 1288 569 1288 751 q 1282 507 1288 540 l 1201 0 l 1144 0 l 1225 507 q 1229 557 1229 526 q 1190 664 1229 629 q 1072 699 1151 699 q 918 674 988 699 q 765 599 849 649 q 767 564 767 589 q 761 493 767 531 l 682 0 l 625 0 l 704 493 q 710 558 710 528 q 554 699 710 699 q 412 678 475 699 q 261 613 349 658 l 163 0 l 106 0 l 224 739 z "},"ṁ":{"ha":1307,"x_min":106,"x_max":1288,"o":"m 224 739 l 265 739 l 267 654 q 575 751 429 751 q 698 722 656 751 q 761 638 740 693 q 920 720 833 689 q 1092 751 1007 751 q 1288 569 1288 751 q 1282 507 1288 540 l 1201 0 l 1144 0 l 1225 507 q 1229 557 1229 526 q 1190 664 1229 629 q 1072 699 1151 699 q 918 674 988 699 q 765 599 849 649 q 767 564 767 589 q 761 493 767 531 l 682 0 l 625 0 l 704 493 q 710 558 710 528 q 554 699 710 699 q 412 678 475 699 q 261 613 349 658 l 163 0 l 106 0 l 224 739 m 776 929 q 765 933 769 929 q 761 944 761 938 l 761 947 l 776 1040 q 797 1058 778 1058 l 824 1058 q 839 1044 839 1058 l 839 1040 l 824 947 q 817 934 822 939 q 803 929 811 929 l 776 929 z "},"ṃ":{"ha":1307,"x_min":106,"x_max":1288,"o":"m 224 739 l 265 739 l 267 654 q 575 751 429 751 q 698 722 656 751 q 761 638 740 693 q 920 720 833 689 q 1092 751 1007 751 q 1288 569 1288 751 q 1282 507 1288 540 l 1201 0 l 1144 0 l 1225 507 q 1229 557 1229 526 q 1190 664 1229 629 q 1072 699 1151 699 q 918 674 988 699 q 765 599 849 649 q 767 564 767 589 q 761 493 767 531 l 682 0 l 625 0 l 704 493 q 710 558 710 528 q 554 699 710 699 q 412 678 475 699 q 261 613 349 658 l 163 0 l 106 0 l 224 739 m 574 -279 q 563 -275 567 -279 q 558 -264 558 -271 l 558 -261 l 574 -168 q 594 -150 575 -150 l 621 -150 q 636 -164 636 -150 l 636 -168 l 621 -261 q 614 -274 619 -269 q 600 -279 608 -279 l 574 -279 z "},"n":{"ha":789,"x_min":106,"x_max":768,"o":"m 224 739 l 265 739 l 267 654 q 415 725 335 699 q 575 751 496 751 q 722 703 676 751 q 768 574 768 654 q 756 457 768 542 l 682 0 l 625 0 l 697 456 q 710 558 710 542 q 554 699 710 699 q 408 678 474 699 q 261 613 343 658 l 163 0 l 106 0 l 224 739 z "},"ń":{"ha":789,"x_min":106,"x_max":768,"o":"m 224 739 l 265 739 l 267 654 q 415 725 335 699 q 575 751 496 751 q 722 703 676 751 q 768 574 768 654 q 756 457 768 542 l 682 0 l 625 0 l 697 456 q 710 558 710 542 q 554 699 710 699 q 408 678 474 699 q 261 613 343 658 l 163 0 l 106 0 l 224 739 m 699 1063 l 754 1063 l 544 876 l 510 876 l 699 1063 z "},"ň":{"ha":789,"x_min":106,"x_max":779,"o":"m 224 739 l 265 739 l 267 654 q 415 725 335 699 q 575 751 496 751 q 722 703 676 751 q 768 574 768 654 q 756 457 768 542 l 682 0 l 625 0 l 697 456 q 710 558 710 542 q 554 699 710 699 q 408 678 474 699 q 261 613 343 658 l 163 0 l 106 0 l 224 739 m 394 1060 l 433 1060 l 554 907 l 742 1060 l 779 1060 l 571 876 l 528 876 l 394 1060 z "},"ņ":{"ha":789,"x_min":106,"x_max":768,"o":"m 224 739 l 265 739 l 267 654 q 415 725 335 699 q 575 751 496 751 q 722 703 676 751 q 768 574 768 654 q 756 457 768 542 l 682 0 l 625 0 l 697 456 q 710 558 710 542 q 554 699 710 699 q 408 678 474 699 q 261 613 343 658 l 163 0 l 106 0 l 224 739 m 243 -247 l 286 -242 q 352 -225 328 -236 q 394 -180 376 -214 q 421 -79 411 -146 l 458 -79 q 428 -193 447 -153 q 376 -251 410 -233 q 281 -269 342 -269 l 239 -269 l 243 -247 z "},"ṅ":{"ha":789,"x_min":106,"x_max":768,"o":"m 224 739 l 265 739 l 267 654 q 415 725 335 699 q 575 751 496 751 q 722 703 676 751 q 768 574 768 654 q 756 457 768 542 l 682 0 l 625 0 l 697 456 q 710 558 710 542 q 554 699 710 699 q 408 678 474 699 q 261 613 343 658 l 163 0 l 106 0 l 224 739 m 326 -279 q 315 -275 319 -279 q 311 -264 311 -271 l 311 -261 l 326 -168 q 347 -150 328 -150 l 374 -150 q 389 -164 389 -150 l 389 -168 l 374 -261 q 367 -274 372 -269 q 353 -279 361 -279 l 326 -279 z "},"ṇ":{"ha":789,"x_min":106,"x_max":768,"o":"m 224 739 l 265 739 l 267 654 q 415 725 335 699 q 575 751 496 751 q 722 703 676 751 q 768 574 768 654 q 756 457 768 542 l 682 0 l 625 0 l 697 456 q 710 558 710 542 q 554 699 710 699 q 408 678 474 699 q 261 613 343 658 l 163 0 l 106 0 l 224 739 m 326 -279 q 315 -275 319 -279 q 311 -264 311 -271 l 311 -261 l 326 -168 q 347 -150 328 -150 l 374 -150 q 389 -164 389 -150 l 389 -168 l 374 -261 q 367 -274 372 -269 q 353 -279 361 -279 l 326 -279 z "},"ŋ":{"ha":789,"x_min":106,"x_max":768,"o":"m 768 574 q 756 457 768 542 l 690 56 l 692 56 l 682 -7 q 599 -212 663 -129 q 438 -329 536 -294 l 389 -329 q 549 -202 492 -279 q 625 -7 607 -125 l 626 0 l 625 0 l 697 456 q 710 558 710 542 q 554 699 710 699 q 408 678 474 699 q 261 613 343 658 l 163 0 l 106 0 l 224 739 l 265 739 l 267 654 q 415 725 335 699 q 575 751 496 751 q 722 703 676 751 q 768 574 768 654 z "},"ṉ":{"ha":789,"x_min":106,"x_max":768,"o":"m 224 739 l 265 739 l 267 654 q 415 725 335 699 q 575 751 496 751 q 722 703 676 751 q 768 574 768 654 q 756 457 768 542 l 682 0 l 625 0 l 697 456 q 710 558 710 542 q 554 699 710 699 q 408 678 474 699 q 261 613 343 658 l 163 0 l 106 0 l 224 739 m 193 -208 l 549 -208 l 542 -243 l 186 -243 l 193 -208 z "},"ñ":{"ha":789,"x_min":106,"x_max":826,"o":"m 224 739 l 265 739 l 267 654 q 415 725 335 699 q 575 751 496 751 q 722 703 676 751 q 768 574 768 654 q 756 457 768 542 l 682 0 l 625 0 l 697 456 q 710 558 710 542 q 554 699 710 699 q 408 678 474 699 q 261 613 343 658 l 163 0 l 106 0 l 224 739 m 329 913 q 381 1012 340 981 q 475 1043 422 1043 q 528 1031 504 1043 q 588 994 551 1019 q 640 960 618 971 q 688 949 663 949 q 758 974 729 949 q 796 1044 788 999 l 826 1044 q 778 949 815 983 q 682 914 742 914 q 631 926 656 914 q 576 961 607 938 q 519 997 543 985 q 468 1008 496 1008 q 397 984 428 1008 q 360 913 367 960 l 329 913 z "},"o":{"ha":781,"x_min":126,"x_max":771,"o":"m 389 -8 q 195 49 264 -8 q 126 239 126 107 q 138 371 126 296 q 205 599 161 518 q 321 714 249 681 q 508 747 393 747 q 709 685 647 747 q 771 493 771 622 q 757 346 771 454 q 692 133 735 210 q 578 24 650 57 q 389 -8 506 -8 m 399 40 q 547 65 490 40 q 642 159 604 90 q 700 358 679 228 q 713 494 713 438 q 664 652 713 606 q 499 699 615 699 q 345 671 403 699 q 252 570 288 643 q 194 358 217 497 q 183 239 183 285 q 238 83 183 125 q 399 40 293 40 z "},"ó":{"ha":781,"x_min":126,"x_max":771,"o":"m 389 -8 q 195 49 264 -8 q 126 239 126 107 q 138 371 126 296 q 205 599 161 518 q 321 714 249 681 q 508 747 393 747 q 709 685 647 747 q 771 493 771 622 q 757 346 771 454 q 692 133 735 210 q 578 24 650 57 q 389 -8 506 -8 m 399 40 q 547 65 490 40 q 642 159 604 90 q 700 358 679 228 q 713 494 713 438 q 664 652 713 606 q 499 699 615 699 q 345 671 403 699 q 252 570 288 643 q 194 358 217 497 q 183 239 183 285 q 238 83 183 125 q 399 40 293 40 m 686 1063 l 742 1063 l 532 876 l 497 876 l 686 1063 z "},"ŏ":{"ha":781,"x_min":126,"x_max":771,"o":"m 389 -8 q 195 49 264 -8 q 126 239 126 107 q 138 371 126 296 q 205 599 161 518 q 321 714 249 681 q 508 747 393 747 q 709 685 647 747 q 771 493 771 622 q 757 346 771 454 q 692 133 735 210 q 578 24 650 57 q 389 -8 506 -8 m 399 40 q 547 65 490 40 q 642 159 604 90 q 700 358 679 228 q 713 494 713 438 q 664 652 713 606 q 499 699 615 699 q 345 671 403 699 q 252 570 288 643 q 194 358 217 497 q 183 239 183 285 q 238 83 183 125 q 399 40 293 40 m 528 878 q 421 911 463 878 q 379 1019 379 944 q 382 1067 379 1033 l 413 1067 q 410 1026 410 1036 q 442 937 410 967 q 529 907 475 907 q 644 945 596 907 q 706 1067 692 983 l 735 1067 q 662 921 718 964 q 528 878 606 878 z "},"ô":{"ha":781,"x_min":126,"x_max":771,"o":"m 389 -8 q 195 49 264 -8 q 126 239 126 107 q 138 371 126 296 q 205 599 161 518 q 321 714 249 681 q 508 747 393 747 q 709 685 647 747 q 771 493 771 622 q 757 346 771 454 q 692 133 735 210 q 578 24 650 57 q 389 -8 506 -8 m 399 40 q 547 65 490 40 q 642 159 604 90 q 700 358 679 228 q 713 494 713 438 q 664 652 713 606 q 499 699 615 699 q 345 671 403 699 q 252 570 288 643 q 194 358 217 497 q 183 239 183 285 q 238 83 183 125 q 399 40 293 40 m 546 1060 l 589 1060 l 722 876 l 685 876 l 561 1029 l 375 876 l 338 876 l 546 1060 z "},"ố":{"ha":781,"x_min":126,"x_max":882,"o":"m 389 -8 q 195 49 264 -8 q 126 239 126 107 q 138 371 126 296 q 205 599 161 518 q 321 714 249 681 q 508 747 393 747 q 709 685 647 747 q 771 493 771 622 q 757 346 771 454 q 692 133 735 210 q 578 24 650 57 q 389 -8 506 -8 m 399 40 q 547 65 490 40 q 642 159 604 90 q 700 358 679 228 q 713 494 713 438 q 664 652 713 606 q 499 699 615 699 q 345 671 403 699 q 252 570 288 643 q 194 358 217 497 q 183 239 183 285 q 238 83 183 125 q 399 40 293 40 m 831 1160 l 882 1160 l 679 976 l 647 976 l 831 1160 m 517 1006 l 560 1006 l 703 876 l 664 876 l 533 975 l 356 876 l 318 876 l 517 1006 z "},"ộ":{"ha":781,"x_min":126,"x_max":771,"o":"m 389 -8 q 195 49 264 -8 q 126 239 126 107 q 138 371 126 296 q 205 599 161 518 q 321 714 249 681 q 508 747 393 747 q 709 685 647 747 q 771 493 771 622 q 757 346 771 454 q 692 133 735 210 q 578 24 650 57 q 389 -8 506 -8 m 399 40 q 547 65 490 40 q 642 159 604 90 q 700 358 679 228 q 713 494 713 438 q 664 652 713 606 q 499 699 615 699 q 345 671 403 699 q 252 570 288 643 q 194 358 217 497 q 183 239 183 285 q 238 83 183 125 q 399 40 293 40 m 546 1060 l 589 1060 l 722 876 l 685 876 l 561 1029 l 375 876 l 338 876 l 546 1060 m 314 -279 q 303 -275 307 -279 q 299 -264 299 -271 l 299 -261 l 314 -168 q 335 -150 315 -150 l 361 -150 q 376 -164 376 -150 l 376 -168 l 361 -261 q 354 -274 360 -269 q 340 -279 349 -279 l 314 -279 z "},"ồ":{"ha":781,"x_min":126,"x_max":771,"o":"m 389 -8 q 195 49 264 -8 q 126 239 126 107 q 138 371 126 296 q 205 599 161 518 q 321 714 249 681 q 508 747 393 747 q 709 685 647 747 q 771 493 771 622 q 757 346 771 454 q 692 133 735 210 q 578 24 650 57 q 389 -8 506 -8 m 399 40 q 547 65 490 40 q 642 159 604 90 q 700 358 679 228 q 713 494 713 438 q 664 652 713 606 q 499 699 615 699 q 345 671 403 699 q 252 570 288 643 q 194 358 217 497 q 183 239 183 285 q 238 83 183 125 q 399 40 293 40 m 242 1160 l 294 1160 l 418 976 l 386 976 l 242 1160 m 507 1006 l 550 1006 l 693 876 l 654 876 l 524 975 l 346 876 l 308 876 l 507 1006 z "},"ổ":{"ha":781,"x_min":126,"x_max":807,"o":"m 389 -8 q 195 49 264 -8 q 126 239 126 107 q 138 371 126 296 q 205 599 161 518 q 321 714 249 681 q 508 747 393 747 q 709 685 647 747 q 771 493 771 622 q 757 346 771 454 q 692 133 735 210 q 578 24 650 57 q 389 -8 506 -8 m 399 40 q 547 65 490 40 q 642 159 604 90 q 700 358 679 228 q 713 494 713 438 q 664 652 713 606 q 499 699 615 699 q 345 671 403 699 q 252 570 288 643 q 194 358 217 497 q 183 239 183 285 q 238 83 183 125 q 399 40 293 40 m 675 974 q 751 1017 728 990 q 774 1072 774 1043 q 713 1118 774 1118 q 658 1110 683 1118 l 663 1138 q 722 1147 692 1147 q 786 1128 765 1147 q 807 1075 807 1110 q 774 999 807 1033 q 671 946 742 964 l 675 974 m 522 1006 l 565 1006 l 707 876 l 669 876 l 539 975 l 361 876 l 322 876 l 522 1006 z "},"ỗ":{"ha":781,"x_min":126,"x_max":789,"o":"m 389 -8 q 195 49 264 -8 q 126 239 126 107 q 138 371 126 296 q 205 599 161 518 q 321 714 249 681 q 508 747 393 747 q 709 685 647 747 q 771 493 771 622 q 757 346 771 454 q 692 133 735 210 q 578 24 650 57 q 389 -8 506 -8 m 399 40 q 547 65 490 40 q 642 159 604 90 q 700 358 679 228 q 713 494 713 438 q 664 652 713 606 q 499 699 615 699 q 345 671 403 699 q 252 570 288 643 q 194 358 217 497 q 183 239 183 285 q 238 83 183 125 q 399 40 293 40 m 328 1072 q 373 1151 336 1126 q 456 1175 410 1175 q 509 1166 485 1175 q 567 1139 533 1157 q 619 1114 599 1122 q 663 1106 639 1106 q 726 1124 700 1106 q 758 1175 753 1142 l 789 1175 q 747 1101 782 1128 q 658 1074 713 1074 q 608 1083 631 1074 q 554 1108 585 1092 q 500 1133 524 1125 q 450 1142 476 1142 q 390 1124 415 1142 q 358 1072 364 1107 l 328 1072 m 521 1006 l 565 1006 l 706 876 l 668 876 l 538 975 l 360 876 l 321 876 l 521 1006 z "},"ȍ":{"ha":781,"x_min":126,"x_max":771,"o":"m 389 -8 q 195 49 264 -8 q 126 239 126 107 q 138 371 126 296 q 205 599 161 518 q 321 714 249 681 q 508 747 393 747 q 709 685 647 747 q 771 493 771 622 q 757 346 771 454 q 692 133 735 210 q 578 24 650 57 q 389 -8 506 -8 m 399 40 q 547 65 490 40 q 642 159 604 90 q 700 358 679 228 q 713 494 713 438 q 664 652 713 606 q 499 699 615 699 q 345 671 403 699 q 252 570 288 643 q 194 358 217 497 q 183 239 183 285 q 238 83 183 125 q 399 40 293 40 m 300 1063 l 353 1063 l 485 876 l 451 876 l 300 1063 m 478 1063 l 531 1063 l 663 876 l 629 876 l 478 1063 z "},"ö":{"ha":781,"x_min":126,"x_max":771,"o":"m 389 -8 q 195 49 264 -8 q 126 239 126 107 q 138 371 126 296 q 205 599 161 518 q 321 714 249 681 q 508 747 393 747 q 709 685 647 747 q 771 493 771 622 q 757 346 771 454 q 692 133 735 210 q 578 24 650 57 q 389 -8 506 -8 m 399 40 q 547 65 490 40 q 642 159 604 90 q 700 358 679 228 q 713 494 713 438 q 664 652 713 606 q 499 699 615 699 q 345 671 403 699 q 252 570 288 643 q 194 358 217 497 q 183 239 183 285 q 238 83 183 125 q 399 40 293 40 m 354 919 q 339 935 339 919 l 354 1031 q 376 1049 356 1049 l 403 1049 q 418 1035 418 1049 q 401 938 418 1040 q 394 924 400 929 q 381 919 388 919 l 354 919 m 642 919 q 626 935 626 919 l 642 1031 q 664 1049 643 1049 l 690 1049 q 706 1035 706 1049 q 689 938 706 1040 q 681 924 688 929 q 668 919 675 919 l 642 919 z "},"ȫ":{"ha":781,"x_min":126,"x_max":771,"o":"m 389 -8 q 195 49 264 -8 q 126 239 126 107 q 138 371 126 296 q 205 599 161 518 q 321 714 249 681 q 508 747 393 747 q 709 685 647 747 q 771 493 771 622 q 757 346 771 454 q 692 133 735 210 q 578 24 650 57 q 389 -8 506 -8 m 399 40 q 547 65 490 40 q 642 159 604 90 q 700 358 679 228 q 713 494 713 438 q 664 652 713 606 q 499 699 615 699 q 345 671 403 699 q 252 570 288 643 q 194 358 217 497 q 183 239 183 285 q 238 83 183 125 q 399 40 293 40 m 354 917 q 339 932 339 917 l 354 1028 q 376 1046 356 1046 l 403 1046 q 418 1032 418 1046 q 401 935 418 1038 q 394 922 400 926 q 381 917 388 917 l 354 917 m 642 917 q 626 932 626 917 l 642 1028 q 664 1046 643 1046 l 690 1046 q 706 1032 706 1046 q 689 935 706 1038 q 681 922 688 926 q 668 917 675 917 l 642 917 m 371 1185 l 726 1185 l 719 1150 l 364 1150 l 371 1185 z "},"ȱ":{"ha":781,"x_min":126,"x_max":771,"o":"m 389 -8 q 195 49 264 -8 q 126 239 126 107 q 138 371 126 296 q 205 599 161 518 q 321 714 249 681 q 508 747 393 747 q 709 685 647 747 q 771 493 771 622 q 757 346 771 454 q 692 133 735 210 q 578 24 650 57 q 389 -8 506 -8 m 399 40 q 547 65 490 40 q 642 159 604 90 q 700 358 679 228 q 713 494 713 438 q 664 652 713 606 q 499 699 615 699 q 345 671 403 699 q 252 570 288 643 q 194 358 217 497 q 183 239 183 285 q 238 83 183 125 q 399 40 293 40 m 517 925 q 506 929 510 925 q 501 940 501 933 l 501 943 l 517 1036 q 538 1054 518 1054 l 564 1054 q 579 1040 579 1054 l 579 1036 l 564 943 q 557 930 563 935 q 543 925 551 925 l 517 925 m 396 1185 l 751 1185 l 744 1150 l 389 1150 l 396 1185 z "},"ọ":{"ha":781,"x_min":126,"x_max":771,"o":"m 389 -8 q 195 49 264 -8 q 126 239 126 107 q 138 371 126 296 q 205 599 161 518 q 321 714 249 681 q 508 747 393 747 q 709 685 647 747 q 771 493 771 622 q 757 346 771 454 q 692 133 735 210 q 578 24 650 57 q 389 -8 506 -8 m 399 40 q 547 65 490 40 q 642 159 604 90 q 700 358 679 228 q 713 494 713 438 q 664 652 713 606 q 499 699 615 699 q 345 671 403 699 q 252 570 288 643 q 194 358 217 497 q 183 239 183 285 q 238 83 183 125 q 399 40 293 40 m 314 -279 q 303 -275 307 -279 q 299 -264 299 -271 l 299 -261 l 314 -168 q 335 -150 315 -150 l 361 -150 q 376 -164 376 -150 l 376 -168 l 361 -261 q 354 -274 360 -269 q 340 -279 349 -279 l 314 -279 z "},"ò":{"ha":781,"x_min":126,"x_max":771,"o":"m 389 -8 q 195 49 264 -8 q 126 239 126 107 q 138 371 126 296 q 205 599 161 518 q 321 714 249 681 q 508 747 393 747 q 709 685 647 747 q 771 493 771 622 q 757 346 771 454 q 692 133 735 210 q 578 24 650 57 q 389 -8 506 -8 m 399 40 q 547 65 490 40 q 642 159 604 90 q 700 358 679 228 q 713 494 713 438 q 664 652 713 606 q 499 699 615 699 q 345 671 403 699 q 252 570 288 643 q 194 358 217 497 q 183 239 183 285 q 238 83 183 125 q 399 40 293 40 m 390 1063 l 443 1063 l 575 876 l 542 876 l 390 1063 z "},"ỏ":{"ha":781,"x_min":126,"x_max":771,"o":"m 389 -8 q 195 49 264 -8 q 126 239 126 107 q 138 371 126 296 q 205 599 161 518 q 321 714 249 681 q 508 747 393 747 q 709 685 647 747 q 771 493 771 622 q 757 346 771 454 q 692 133 735 210 q 578 24 650 57 q 389 -8 506 -8 m 399 40 q 547 65 490 40 q 642 159 604 90 q 700 358 679 228 q 713 494 713 438 q 664 652 713 606 q 499 699 615 699 q 345 671 403 699 q 252 570 288 643 q 194 358 217 497 q 183 239 183 285 q 238 83 183 125 q 399 40 293 40 m 500 874 q 607 989 607 906 q 542 1044 607 1044 q 488 1036 515 1044 l 492 1064 q 554 1072 518 1072 q 642 993 642 1072 q 606 904 642 943 q 494 844 571 865 l 500 874 z "},"ơ":{"ha":803,"x_min":126,"x_max":896,"o":"m 896 899 q 828 749 879 793 q 711 704 778 704 l 685 704 q 750 622 729 674 q 771 493 771 569 q 757 346 771 454 q 692 133 735 210 q 578 24 650 57 q 389 -8 506 -8 q 195 49 264 -8 q 126 239 126 107 q 138 371 126 296 q 205 599 161 518 q 321 714 249 681 q 508 747 393 747 q 600 739 558 747 l 711 739 q 850 899 826 739 l 896 899 m 713 494 q 664 652 713 606 q 499 699 615 699 q 345 671 403 699 q 252 570 288 643 q 194 358 217 497 q 183 239 183 285 q 238 83 183 125 q 399 40 293 40 q 547 65 490 40 q 642 159 604 90 q 700 358 679 228 q 713 494 713 438 z "},"ớ":{"ha":803,"x_min":126,"x_max":896,"o":"m 896 899 q 828 749 879 793 q 711 704 778 704 l 685 704 q 750 622 729 674 q 771 493 771 569 q 757 346 771 454 q 692 133 735 210 q 578 24 650 57 q 389 -8 506 -8 q 195 49 264 -8 q 126 239 126 107 q 138 371 126 296 q 205 599 161 518 q 321 714 249 681 q 508 747 393 747 q 600 739 558 747 l 711 739 q 850 899 826 739 l 896 899 m 713 494 q 664 652 713 606 q 499 699 615 699 q 345 671 403 699 q 252 570 288 643 q 194 358 217 497 q 183 239 183 285 q 238 83 183 125 q 399 40 293 40 q 547 65 490 40 q 642 159 604 90 q 700 358 679 228 q 713 494 713 438 m 683 1063 l 739 1063 l 529 876 l 494 876 l 683 1063 z "},"ợ":{"ha":803,"x_min":126,"x_max":896,"o":"m 896 899 q 828 749 879 793 q 711 704 778 704 l 685 704 q 750 622 729 674 q 771 493 771 569 q 757 346 771 454 q 692 133 735 210 q 578 24 650 57 q 389 -8 506 -8 q 195 49 264 -8 q 126 239 126 107 q 138 371 126 296 q 205 599 161 518 q 321 714 249 681 q 508 747 393 747 q 600 739 558 747 l 711 739 q 850 899 826 739 l 896 899 m 713 494 q 664 652 713 606 q 499 699 615 699 q 345 671 403 699 q 252 570 288 643 q 194 358 217 497 q 183 239 183 285 q 238 83 183 125 q 399 40 293 40 q 547 65 490 40 q 642 159 604 90 q 700 358 679 228 q 713 494 713 438 m 325 -279 q 314 -275 318 -279 q 310 -264 310 -271 l 310 -261 l 325 -168 q 346 -150 326 -150 l 372 -150 q 388 -164 388 -150 l 388 -168 l 372 -261 q 365 -274 371 -269 q 351 -279 360 -279 l 325 -279 z "},"ờ":{"ha":803,"x_min":126,"x_max":896,"o":"m 896 899 q 828 749 879 793 q 711 704 778 704 l 685 704 q 750 622 729 674 q 771 493 771 569 q 757 346 771 454 q 692 133 735 210 q 578 24 650 57 q 389 -8 506 -8 q 195 49 264 -8 q 126 239 126 107 q 138 371 126 296 q 205 599 161 518 q 321 714 249 681 q 508 747 393 747 q 600 739 558 747 l 711 739 q 850 899 826 739 l 896 899 m 713 494 q 664 652 713 606 q 499 699 615 699 q 345 671 403 699 q 252 570 288 643 q 194 358 217 497 q 183 239 183 285 q 238 83 183 125 q 399 40 293 40 q 547 65 490 40 q 642 159 604 90 q 700 358 679 228 q 713 494 713 438 m 388 1063 l 440 1063 l 572 876 l 539 876 l 388 1063 z "},"ở":{"ha":803,"x_min":126,"x_max":896,"o":"m 896 899 q 828 749 879 793 q 711 704 778 704 l 685 704 q 750 622 729 674 q 771 493 771 569 q 757 346 771 454 q 692 133 735 210 q 578 24 650 57 q 389 -8 506 -8 q 195 49 264 -8 q 126 239 126 107 q 138 371 126 296 q 205 599 161 518 q 321 714 249 681 q 508 747 393 747 q 600 739 558 747 l 711 739 q 850 899 826 739 l 896 899 m 713 494 q 664 652 713 606 q 499 699 615 699 q 345 671 403 699 q 252 570 288 643 q 194 358 217 497 q 183 239 183 285 q 238 83 183 125 q 399 40 293 40 q 547 65 490 40 q 642 159 604 90 q 700 358 679 228 q 713 494 713 438 m 497 874 q 604 989 604 906 q 539 1044 604 1044 q 485 1036 513 1044 l 489 1064 q 551 1072 515 1072 q 639 993 639 1072 q 603 904 639 943 q 492 844 568 865 l 497 874 z "},"ỡ":{"ha":803,"x_min":126,"x_max":896,"o":"m 896 899 q 828 749 879 793 q 711 704 778 704 l 685 704 q 750 622 729 674 q 771 493 771 569 q 757 346 771 454 q 692 133 735 210 q 578 24 650 57 q 389 -8 506 -8 q 195 49 264 -8 q 126 239 126 107 q 138 371 126 296 q 205 599 161 518 q 321 714 249 681 q 508 747 393 747 q 600 739 558 747 l 711 739 q 850 899 826 739 l 896 899 m 713 494 q 664 652 713 606 q 499 699 615 699 q 345 671 403 699 q 252 570 288 643 q 194 358 217 497 q 183 239 183 285 q 238 83 183 125 q 399 40 293 40 q 547 65 490 40 q 642 159 604 90 q 700 358 679 228 q 713 494 713 438 m 314 913 q 366 1012 325 981 q 460 1043 407 1043 q 513 1031 489 1043 q 572 994 536 1019 q 625 960 603 971 q 672 949 647 949 q 743 974 714 949 q 781 1044 772 999 l 811 1044 q 763 949 800 983 q 667 914 726 914 q 616 926 640 914 q 561 961 592 938 q 504 997 528 985 q 453 1008 481 1008 q 382 984 413 1008 q 344 913 351 960 l 314 913 z "},"ő":{"ha":781,"x_min":126,"x_max":825,"o":"m 389 -8 q 195 49 264 -8 q 126 239 126 107 q 138 371 126 296 q 205 599 161 518 q 321 714 249 681 q 508 747 393 747 q 709 685 647 747 q 771 493 771 622 q 757 346 771 454 q 692 133 735 210 q 578 24 650 57 q 389 -8 506 -8 m 399 40 q 547 65 490 40 q 642 159 604 90 q 700 358 679 228 q 713 494 713 438 q 664 652 713 606 q 499 699 615 699 q 345 671 403 699 q 252 570 288 643 q 194 358 217 497 q 183 239 183 285 q 238 83 183 125 q 399 40 293 40 m 574 1063 l 626 1063 l 418 876 l 385 876 l 574 1063 m 772 1063 l 825 1063 l 617 876 l 583 876 l 772 1063 z "},"ȏ":{"ha":781,"x_min":126,"x_max":771,"o":"m 389 -8 q 195 49 264 -8 q 126 239 126 107 q 138 371 126 296 q 205 599 161 518 q 321 714 249 681 q 508 747 393 747 q 709 685 647 747 q 771 493 771 622 q 757 346 771 454 q 692 133 735 210 q 578 24 650 57 q 389 -8 506 -8 m 399 40 q 547 65 490 40 q 642 159 604 90 q 700 358 679 228 q 713 494 713 438 q 664 652 713 606 q 499 699 615 699 q 345 671 403 699 q 252 570 288 643 q 194 358 217 497 q 183 239 183 285 q 238 83 183 125 q 399 40 293 40 m 339 878 q 412 1024 356 982 q 546 1067 468 1067 q 653 1033 611 1067 q 694 925 694 1000 q 692 878 694 911 l 661 878 q 664 918 664 908 q 631 1008 664 979 q 542 1038 597 1038 q 430 999 478 1038 q 368 878 382 961 l 339 878 z "},"ō":{"ha":781,"x_min":126,"x_max":771,"o":"m 389 -8 q 195 49 264 -8 q 126 239 126 107 q 138 371 126 296 q 205 599 161 518 q 321 714 249 681 q 508 747 393 747 q 709 685 647 747 q 771 493 771 622 q 757 346 771 454 q 692 133 735 210 q 578 24 650 57 q 389 -8 506 -8 m 399 40 q 547 65 490 40 q 642 159 604 90 q 700 358 679 228 q 713 494 713 438 q 664 652 713 606 q 499 699 615 699 q 345 671 403 699 q 252 570 288 643 q 194 358 217 497 q 183 239 183 285 q 238 83 183 125 q 399 40 293 40 m 368 986 l 724 986 l 717 951 l 361 951 l 368 986 z "},"ṓ":{"ha":781,"x_min":126,"x_max":771,"o":"m 389 -8 q 195 49 264 -8 q 126 239 126 107 q 138 371 126 296 q 205 599 161 518 q 321 714 249 681 q 508 747 393 747 q 709 685 647 747 q 771 493 771 622 q 757 346 771 454 q 692 133 735 210 q 578 24 650 57 q 389 -8 506 -8 m 399 40 q 547 65 490 40 q 642 159 604 90 q 700 358 679 228 q 713 494 713 438 q 664 652 713 606 q 499 699 615 699 q 345 671 403 699 q 252 570 288 643 q 194 358 217 497 q 183 239 183 285 q 238 83 183 125 q 399 40 293 40 m 368 986 l 724 986 l 717 951 l 361 951 l 368 986 m 715 1235 l 771 1235 l 561 1049 l 526 1049 l 715 1235 z "},"ṑ":{"ha":781,"x_min":126,"x_max":771,"o":"m 389 -8 q 195 49 264 -8 q 126 239 126 107 q 138 371 126 296 q 205 599 161 518 q 321 714 249 681 q 508 747 393 747 q 709 685 647 747 q 771 493 771 622 q 757 346 771 454 q 692 133 735 210 q 578 24 650 57 q 389 -8 506 -8 m 399 40 q 547 65 490 40 q 642 159 604 90 q 700 358 679 228 q 713 494 713 438 q 664 652 713 606 q 499 699 615 699 q 345 671 403 699 q 252 570 288 643 q 194 358 217 497 q 183 239 183 285 q 238 83 183 125 q 399 40 293 40 m 368 986 l 724 986 l 717 951 l 361 951 l 368 986 m 390 1235 l 443 1235 l 575 1049 l 542 1049 l 390 1235 z "},"ǫ":{"ha":781,"x_min":126,"x_max":771,"o":"m 508 747 q 709 685 647 747 q 771 493 771 622 q 757 346 771 454 q 671 99 731 178 q 497 0 611 19 q 408 -68 440 -28 q 376 -140 376 -108 q 407 -201 376 -179 q 496 -222 438 -222 l 504 -222 l 499 -253 q 467 -254 488 -254 q 374 -227 408 -254 q 339 -153 339 -200 q 369 -75 339 -115 q 461 -6 399 -35 q 389 -8 417 -8 q 195 49 264 -8 q 126 239 126 107 q 138 371 126 296 q 205 599 161 518 q 321 714 249 681 q 508 747 393 747 m 700 358 q 713 494 713 438 q 664 652 713 606 q 499 699 615 699 q 345 671 403 699 q 252 570 288 643 q 194 358 217 497 q 183 239 183 285 q 238 83 183 125 q 399 40 293 40 q 547 65 490 40 q 642 159 604 90 q 700 358 679 228 z "},"ø":{"ha":779,"x_min":90,"x_max":807,"o":"m 732 657 q 771 493 771 596 q 757 346 771 454 q 692 133 735 210 q 578 24 650 57 q 389 -8 506 -8 q 185 60 249 -8 l 129 0 l 90 0 l 167 83 q 126 239 126 140 q 138 371 126 296 q 205 599 161 518 q 321 714 249 681 q 508 747 393 747 q 714 679 651 747 l 768 739 l 807 739 l 732 657 m 183 239 q 206 125 183 172 l 676 639 q 608 684 651 669 q 499 699 565 699 q 345 671 403 699 q 252 570 288 643 q 194 358 217 497 q 183 239 183 285 m 713 494 q 692 613 713 569 l 221 100 q 292 53 249 67 q 399 40 336 40 q 547 65 490 40 q 642 159 604 90 q 700 358 679 228 q 713 494 713 438 z "}}}
